<svg width="23" height="28" viewBox="0 0 23 28" fill="none" xmlns="http://www.w3.org/2000/svg">
<path d="M18.526 26.8724C17.0953 28.3464 15.5168 28.1166 14.0122 27.4217C12.4126 26.7127 10.9502 26.6679 9.26085 27.4217C7.15705 28.3856 6.04048 28.1054 4.77344 26.8724C-2.38002 19.0545 -1.32416 7.14544 6.80598 6.6971C8.7778 6.80918 10.1583 7.85438 11.3198 7.94124C13.0461 7.56856 14.6985 6.50095 16.5463 6.64105C18.7662 6.8316 20.4266 7.76191 21.5352 9.43478C16.9686 12.349 18.0509 18.7379 22.2453 20.5312C21.4059 22.871 20.3289 25.1828 18.5234 26.8921L18.526 26.8724ZM11.1614 6.61303C10.9476 3.13839 13.6004 0.280213 16.6519 0C17.0716 4.00705 13.2203 7.00533 11.1614 6.61303Z" fill="black"/>
</svg>
