<svg width="44" height="52" viewBox="0 0 44 52" fill="none" xmlns="http://www.w3.org/2000/svg">
<path d="M8.8 34.455H26.015V31.155H8.8V34.455ZM8.8 27.305H35.2V24.005H8.8V27.305ZM8.8 20.155H35.2V16.855H8.8V20.155ZM0 52V11.3C0 10.4567 0.33 9.69583 0.99 9.0175C1.65 8.33917 2.42 8 3.3 8H40.7C41.5433 8 42.3042 8.33917 42.9825 9.0175C43.6608 9.69583 44 10.4567 44 11.3V39.9C44 40.7433 43.6608 41.5042 42.9825 42.1825C42.3042 42.8608 41.5433 43.2 40.7 43.2H8.8L0 52ZM3.3 44.025L7.425 39.9H40.7V11.3H3.3V44.025ZM3.3 11.3V39.9V44.025V11.3Z" fill="#001935"/>
</svg>
