<svg width="24" height="28" viewBox="0 0 24 28" fill="none" xmlns="http://www.w3.org/2000/svg">
<g clip-path="url(#clip0_2_99)">
<path d="M3.46367 4.77572C3.28203 4.86842 2.9152 4.9826 2.37114 4.9826C0.864576 4.9826 0 3.89906 0 2.51663C0 0.870884 1.10167 0 2.4712 0C3.00215 0 3.28269 0.106252 3.46338 0.206652L3.29602 1.19087C3.09486 1.09771 2.88132 1.01286 2.51258 1.01286C1.86036 1.01286 1.16853 1.41847 1.16853 2.49846C1.16853 3.46458 1.72016 3.97559 2.51803 3.97559C2.83406 3.97559 3.04854 3.91076 3.29609 3.79196L3.46367 4.77572Z" fill="#0056A2"/>
<path d="M5.96533 1.22054C5.55948 1.22054 5.16673 1.41295 4.96675 1.722H4.95445V0.0172729L3.93356 0.386845V4.83441H4.95445V2.75688C4.95445 2.45691 5.14096 2.13423 5.49867 2.13423C5.88132 2.13423 6.02873 2.44921 6.02873 2.9074V4.83449H7.05051V2.76004C7.05051 1.70105 6.61616 1.22054 5.96533 1.22054Z" fill="#0056A2"/>
<path d="M8.59055 3.43137C8.62813 3.88187 8.98545 4.12124 9.53759 4.1264C9.87037 4.12909 10.2572 4.02792 10.5149 3.86916L10.6689 4.70001C10.281 4.90373 9.83793 4.98265 9.38687 4.98265C8.17165 4.98265 7.52036 4.21841 7.52036 3.04756C7.52036 1.91497 8.22068 1.18414 9.27023 1.18414C10.3519 1.18414 10.8367 2.01691 10.8367 3.06034C10.8367 3.17028 10.8238 3.34938 10.8121 3.43137H8.59055ZM9.81709 2.67167C9.81709 2.41005 9.69503 1.95255 9.22237 1.95255C8.80799 1.95255 8.61256 2.32558 8.58356 2.67167H9.81709Z" fill="#0056A2"/>
<path d="M12.0368 4.83434L10.9088 1.33264H12.035L12.6479 3.80962H12.6685L13.2814 1.33264H14.4082L13.2802 4.83434H12.0368Z" fill="#0056A2"/>
<path d="M14.6976 2.48425C14.6976 1.96908 14.6822 1.633 14.6612 1.33257H15.6229L15.6521 1.98348H15.6779C15.8462 1.46831 16.1693 1.27259 16.5015 1.25288C16.6594 1.24325 16.7449 1.25496 16.8427 1.27475V2.29862C16.7491 2.27944 16.5634 2.25688 16.4329 2.26943C16.04 2.30724 15.8022 2.60605 15.7355 2.95006C15.7221 3.02136 15.7152 3.10051 15.7152 3.19313V4.83426H14.6979V2.48425H14.6976Z" fill="#0056A2"/>
<path d="M20.4305 3.08325C20.4305 4.23093 19.7692 4.98246 18.6977 4.98246C17.6259 4.98246 16.9642 4.23093 16.9642 3.08325C16.9642 1.93542 17.6259 1.18396 18.6977 1.18396C19.7692 1.18396 20.4305 1.9355 20.4305 3.08325ZM19.3721 3.08325C19.3721 2.51341 19.1847 2.01742 18.6977 2.01742C18.2099 2.01742 18.0235 2.51334 18.0235 3.08325C18.0235 3.65362 18.2099 4.14884 18.6977 4.14884C19.1849 4.14884 19.3721 3.65362 19.3721 3.08325Z" fill="#0056A2"/>
<path d="M20.8845 2.44918C20.8845 2.01216 20.8692 1.63905 20.8476 1.33276H21.8093L21.8314 1.82268H21.852C21.9852 1.59485 22.3376 1.22058 22.8876 1.22058C23.5607 1.22058 24 1.7011 24 2.7319V4.83453H22.98V2.89282C22.98 2.44225 22.8322 2.13419 22.463 2.13419C22.18 2.13419 22.0042 2.34231 21.939 2.5418C21.9149 2.61487 21.905 2.71412 21.905 2.81436V4.83446H20.8845V2.44918Z" fill="#0056A2"/>
<path d="M0.036499 14.1172V5.76562L12.0196 9.94164L0.036499 14.1172Z" fill="url(#paint0_linear_2_99)"/>
<path d="M0.0395203 14.1178L12.0196 18.2933L23.9991 14.1178V5.7666L12.0196 9.94158L0.0395203 14.1178Z" fill="url(#paint1_linear_2_99)"/>
<path d="M0.0371942 23.8249L0.0361633 15.4706L12.0185 19.6464L0.0371942 23.8249Z" fill="url(#paint2_linear_2_99)"/>
<path d="M23.9997 15.4706L12.0162 19.6451L0.0385132 23.8233L12.0185 28L23.9997 23.822V15.4706Z" fill="url(#paint3_linear_2_99)"/>
</g>
<defs>
<linearGradient id="paint0_linear_2_99" x1="12.0196" y1="9.94143" x2="4.18435" y2="-1.30097" gradientUnits="userSpaceOnUse">
<stop stop-color="#06549B"/>
<stop offset="0.55" stop-color="#2FA1D3"/>
<stop offset="0.9" stop-color="#2FA1D3"/>
</linearGradient>
<linearGradient id="paint1_linear_2_99" x1="0.0395201" y1="13.2826" x2="8.85955" y2="-9.49165" gradientUnits="userSpaceOnUse">
<stop stop-color="#1371B1"/>
<stop offset="0.05" stop-color="#2FA1D3"/>
<stop offset="0.45" stop-color="#2FA1D3"/>
<stop offset="0.6" stop-color="#06569C"/>
</linearGradient>
<linearGradient id="paint2_linear_2_99" x1="12.0185" y1="19.6477" x2="2.6561" y2="11.5908" gradientUnits="userSpaceOnUse">
<stop stop-color="#9D1A36"/>
<stop offset="0.4" stop-color="#9D1A36"/>
<stop offset="0.6" stop-color="#E6192F"/>
</linearGradient>
<linearGradient id="paint3_linear_2_99" x1="0.0385126" y1="22.9882" x2="8.86135" y2="0.209993" gradientUnits="userSpaceOnUse">
<stop stop-color="#A21C38"/>
<stop offset="0.13" stop-color="#E6192F"/>
<stop offset="0.45" stop-color="#E6192F"/>
<stop offset="0.6" stop-color="#A71C37"/>
</linearGradient>
<clipPath id="clip0_2_99">
<rect width="24" height="28" fill="white"/>
</clipPath>
</defs>
</svg>
