<svg width="25" height="29" viewBox="0 0 25 29" fill="none" xmlns="http://www.w3.org/2000/svg">
<path d="M3.50695 4.78105C3.32303 4.87385 2.95162 4.98816 2.40076 4.98816C0.875377 4.98816 0 3.90341 0 2.51944C0 0.871853 1.11543 0 2.50208 0C3.03966 0 3.3237 0.10637 3.50665 0.206883L3.3372 1.1922C3.13352 1.09893 2.91733 1.01399 2.54397 1.01399C1.8836 1.01399 1.18312 1.42005 1.18312 2.50125C1.18312 3.46845 1.74166 3.98003 2.54949 3.98003C2.86946 3.98003 3.08663 3.91513 3.33727 3.79619L3.50695 4.78105Z" fill="#001935"/>
<path d="M6.0397 1.22243C5.62878 1.22243 5.23112 1.41505 5.02864 1.72445H5.01619V0.0178223L3.98254 0.387807V4.84034H5.01619V2.76049C5.01619 2.46018 5.20503 2.13714 5.5672 2.13714C5.95464 2.13714 6.10389 2.45247 6.10389 2.91118V4.84042H7.13843V2.76365C7.13843 1.70349 6.69866 1.22243 6.0397 1.22243Z" fill="#001935"/>
<path d="M8.69786 3.43528C8.73588 3.88628 9.09767 4.12592 9.65673 4.13109C9.99362 4.13378 10.3853 4.0325 10.6462 3.87356L10.8022 4.70533C10.4095 4.90929 9.96082 4.98829 9.50412 4.98829C8.27374 4.98829 7.61426 4.2232 7.61426 3.05104C7.61426 1.91719 8.32339 1.18555 9.38603 1.18555C10.4812 1.18555 10.9721 2.01925 10.9721 3.06383C10.9721 3.1739 10.959 3.35319 10.9472 3.43528H8.69786ZM9.93972 2.67473C9.93972 2.41282 9.81612 1.95481 9.33758 1.95481C8.918 1.95481 8.72015 2.32826 8.69077 2.67473H9.93972Z" fill="#001935"/>
<path d="M12.1873 4.83959L11.0452 1.33398H12.1856L12.8061 3.81373H12.827L13.4476 1.33398H14.5884L13.4464 4.83959H12.1873Z" fill="#001935"/>
<path d="M14.8813 2.48715C14.8813 1.97141 14.8657 1.63495 14.8444 1.33419H15.8182L15.8477 1.98582H15.8739C16.0443 1.47008 16.3714 1.27414 16.7077 1.25441C16.8677 1.24477 16.9542 1.25649 17.0532 1.2763V2.30131C16.9585 2.28212 16.7704 2.25953 16.6383 2.2721C16.2405 2.30994 15.9997 2.60909 15.9322 2.95348C15.9186 3.02486 15.9116 3.1041 15.9116 3.19683V4.83979H14.8817V2.48715H14.8813Z" fill="#001935"/>
<path d="M20.6857 3.08696C20.6857 4.23591 20.0162 4.98829 18.9312 4.98829C17.8461 4.98829 17.1761 4.23591 17.1761 3.08696C17.1761 1.93785 17.8461 1.18555 18.9312 1.18555C20.0162 1.18555 20.6857 1.93793 20.6857 3.08696ZM19.6141 3.08696C19.6141 2.51649 19.4244 2.01994 18.9312 2.01994C18.4374 2.01994 18.2487 2.51641 18.2487 3.08696C18.2487 3.65797 18.4374 4.15375 18.9312 4.15375C19.4245 4.15375 19.6141 3.65797 19.6141 3.08696Z" fill="#001935"/>
<path d="M21.1454 2.45165C21.1454 2.01414 21.1299 1.64061 21.1081 1.33399H22.0819L22.1042 1.82445H22.125C22.2599 1.59637 22.6168 1.22168 23.1736 1.22168C23.8551 1.22168 24.2999 1.70274 24.2999 2.73468V4.83966H23.2672V2.89578C23.2672 2.44471 23.1175 2.13631 22.7437 2.13631C22.4572 2.13631 22.2792 2.34466 22.2132 2.54437C22.1887 2.61752 22.1787 2.71688 22.1787 2.81724V4.83959H21.1454V2.45165Z" fill="#001935"/>
<path d="M0.0369263 14.1328V5.77197L12.1698 9.95264L0.0369263 14.1328Z" fill="#001935"/>
<path d="M0.0396729 14.1334L12.1695 18.3136L24.2986 14.1334V5.77295L12.1695 9.95262L0.0396729 14.1334Z" fill="#001935"/>
<path d="M0.0379089 23.8519L0.0368652 15.4883L12.1689 19.6687L0.0379089 23.8519Z" fill="#001935"/>
<path d="M24.2992 15.4883L12.166 19.6674L0.0386963 23.8503L12.1684 28.0316L24.2992 23.849V15.4883Z" fill="#001935"/>
</svg>
