<svg width="15" height="15" viewBox="0 0 15 15" fill="none" xmlns="http://www.w3.org/2000/svg">
<path fill-rule="evenodd" clip-rule="evenodd" d="M0.357213 0.357143C0.554457 0.159898 0.874254 0.159898 1.0715 0.357143L14.6429 13.9286C14.8402 14.1258 14.8402 14.4456 14.6429 14.6429C14.4457 14.8401 14.1259 14.8401 13.9286 14.6429L0.357213 1.07143C0.159968 0.874184 0.159968 0.554387 0.357213 0.357143Z" fill="#001935"/>
<path fill-rule="evenodd" clip-rule="evenodd" d="M0.357213 14.6429C0.554457 14.8401 0.874254 14.8401 1.0715 14.6429L14.6429 1.07143C14.8402 0.874184 14.8402 0.554387 14.6429 0.357142C14.4457 0.159897 14.1259 0.159898 13.9286 0.357143L0.357213 13.9286C0.159968 14.1258 0.159968 14.4456 0.357213 14.6429Z" fill="#001935"/>
</svg>
