<svg width="44" height="48" viewBox="0 0 44 48" fill="none" xmlns="http://www.w3.org/2000/svg">
<path d="M13.2 37.2H16.225V26.2H22L24.2 30.6H35.2V17.4H28.6L26.4 13H13.2V37.2ZM26.235 27.575L24.035 23.175H16.225V16.025H24.365L26.565 20.425H32.175V27.575H26.235ZM22 46C18.8833 46 15.9867 45.4408 13.31 44.3225C10.6333 43.2042 8.305 41.655 6.325 39.675C4.345 37.695 2.79583 35.3667 1.6775 32.69C0.559167 30.0133 0 27.1167 0 24C0 20.92 0.559167 18.0417 1.6775 15.365C2.79583 12.6883 4.345 10.36 6.325 8.38C8.305 6.4 10.6333 4.84167 13.31 3.705C15.9867 2.56833 18.8833 2 22 2C25.08 2 27.9583 2.56833 30.635 3.705C33.3117 4.84167 35.64 6.4 37.62 8.38C39.6 10.36 41.1583 12.6883 42.295 15.365C43.4317 18.0417 44 20.92 44 24C44 27.1167 43.4317 30.0133 42.295 32.69C41.1583 35.3667 39.6 37.695 37.62 39.675C35.64 41.655 33.3117 43.2042 30.635 44.3225C27.9583 45.4408 25.08 46 22 46ZM22 42.7C27.3167 42.7 31.7625 40.9125 35.3375 37.3375C38.9125 33.7625 40.7 29.3167 40.7 24C40.7 18.6833 38.9125 14.2375 35.3375 10.6625C31.7625 7.0875 27.3167 5.3 22 5.3C16.6833 5.3 12.2375 7.0875 8.6625 10.6625C5.0875 14.2375 3.3 18.6833 3.3 24C3.3 29.3167 5.0875 33.7625 8.6625 37.3375C12.2375 40.9125 16.6833 42.7 22 42.7Z" fill="#F2C811"/>
</svg>
