<svg width="44" height="48" viewBox="0 0 44 48" fill="none" xmlns="http://www.w3.org/2000/svg">
<path d="M3.5 41.35C2.53333 41.35 1.70833 41.0083 1.025 40.325C0.341667 39.6417 0 38.8167 0 37.85C0 36.8833 0.341667 36.0583 1.025 35.375C1.70833 34.6917 2.53333 34.35 3.5 34.35C3.66667 34.35 3.83333 34.3583 4 34.375C4.16667 34.3917 4.38333 34.4333 4.65 34.5L14.65 24.5C14.5833 24.2333 14.5417 24.0167 14.525 23.85C14.5083 23.6833 14.5 23.5167 14.5 23.35C14.5 22.3833 14.8417 21.5583 15.525 20.875C16.2083 20.1917 17.0333 19.85 18 19.85C18.9667 19.85 19.7917 20.1917 20.475 20.875C21.1583 21.5583 21.5 22.3833 21.5 23.35C21.5 23.4167 21.45 23.8 21.35 24.5L26.85 30C27.1167 29.9333 27.3333 29.8917 27.5 29.875C27.6667 29.8583 27.8333 29.85 28 29.85C28.1667 29.85 28.3333 29.8583 28.5 29.875C28.6667 29.8917 28.8833 29.9333 29.15 30L37.15 22C37.0833 21.7333 37.0417 21.5167 37.025 21.35C37.0083 21.1833 37 21.0167 37 20.85C37 19.8833 37.3417 19.0583 38.025 18.375C38.7083 17.6917 39.5333 17.35 40.5 17.35C41.4667 17.35 42.2917 17.6917 42.975 18.375C43.6583 19.0583 44 19.8833 44 20.85C44 21.8167 43.6583 22.6417 42.975 23.325C42.2917 24.0083 41.4667 24.35 40.5 24.35C40.3333 24.35 40.1667 24.3417 40 24.325C39.8333 24.3083 39.6167 24.2667 39.35 24.2L31.35 32.2C31.4167 32.4667 31.4583 32.6833 31.475 32.85C31.4917 33.0167 31.5 33.1833 31.5 33.35C31.5 34.3167 31.1583 35.1417 30.475 35.825C29.7917 36.5083 28.9667 36.85 28 36.85C27.0333 36.85 26.2083 36.5083 25.525 35.825C24.8417 35.1417 24.5 34.3167 24.5 33.35C24.5 33.1833 24.5083 33.0167 24.525 32.85C24.5417 32.6833 24.5833 32.4667 24.65 32.2L19.15 26.7C18.8833 26.7667 18.6667 26.8083 18.5 26.825C18.3333 26.8417 18.1667 26.85 18 26.85C17.9333 26.85 17.55 26.8 16.85 26.7L6.85 36.7C6.91667 36.9667 6.95833 37.1833 6.975 37.35C6.99167 37.5167 7 37.6833 7 37.85C7 38.8167 6.65833 39.6417 5.975 40.325C5.29167 41.0083 4.46667 41.35 3.5 41.35ZM6 19.25L5 17.05L2.8 16.05L5 15.05L6 12.85L7 15.05L9.2 16.05L7 17.05L6 19.25ZM28 16.7L26.45 13.4L23.15 11.85L26.45 10.3L28 7L29.55 10.3L32.85 11.85L29.55 13.4L28 16.7Z" fill="#F2C811"/>
</svg>
