<svg width="44" height="48" viewBox="0 0 44 48" fill="none" xmlns="http://www.w3.org/2000/svg">
<path d="M12.4406 37.8H31.5594V34.2H12.4406V37.8ZM12.4406 27.6H31.5594V24H12.4406V27.6ZM6.5625 48C5.6125 48 4.78125 47.64 4.06875 46.92C3.35625 46.2 3 45.36 3 44.4V3.6C3 2.64 3.35625 1.8 4.06875 1.08C4.78125 0.36 5.6125 0 6.5625 0H27.9969L41 13.14V44.4C41 45.36 40.6437 46.2 39.9312 46.92C39.2188 47.64 38.3875 48 37.4375 48H6.5625ZM26.2156 14.76V3.6H6.5625V44.4H37.4375V14.76H26.2156ZM6.5625 3.6V14.76V3.6V14.76V44.4V3.6Z" fill="#F2C811"/>
</svg>
