<svg width="29" height="29" viewBox="0 0 29 29" fill="none" xmlns="http://www.w3.org/2000/svg">
<path fill-rule="evenodd" clip-rule="evenodd" d="M23.2726 10.0656H20.9645L17.7315 18.938H20.0396L23.2726 10.0656V10.0656ZM14.498 29.001C14.3557 29.001 14.2118 28.9985 14.0685 28.9939L17.0323 20.8493H21.1089C21.826 20.8493 22.6123 20.2996 22.8564 19.627L26.071 10.7966C26.5983 9.34998 25.7711 8.16857 24.2303 8.16857H18.573L13.8264 21.2128H13.8248L11.1329 28.6064C4.74973 27.0897 0 21.3484 0 14.5005C0 7.65259 4.47894 2.24305 10.5862 0.534914L7.80872 8.16806H7.80718L3.19105 20.8493H6.26438L10.1905 10.0738H12.5001L8.57398 20.8493L11.6453 20.8509L15.3037 10.7966C15.8299 9.34998 15.0022 8.16857 13.465 8.16857H10.882L13.8474 0.0163801C14.0639 0.00563067 14.2809 0 14.498 0C22.5084 0 29 6.49216 29 14.5005C29 22.5089 22.5084 29.001 14.498 29.001V29.001Z" fill="#00A1DD"/>
</svg>
