<svg width="29" height="29" viewBox="0 0 29 29" fill="none" xmlns="http://www.w3.org/2000/svg">
<g clip-path="url(#clip0_2_66)">
<path d="M14.5002 29C14.3561 29 14.2126 28.9974 14.0693 28.9933L17.0326 20.8493H21.1108C21.8266 20.8493 22.6123 20.299 22.8571 19.6267L26.072 10.7961C26.598 9.35028 25.7699 8.16746 24.2315 8.16746H18.5738L13.8269 21.2118H13.8251L11.1339 28.6063C4.74926 27.0885 0.000244141 21.3491 0.000244141 14.5C0.000244141 7.84846 4.47913 2.24347 10.5854 0.535292L7.80863 8.16746H7.80782L3.19159 20.8493L6.26458 20.8495L10.1903 10.0732H12.4999L8.57417 20.8495L11.646 20.8501L15.3045 10.7961C15.8308 9.35028 15.0026 8.16746 13.4656 8.16746H10.8824L13.8484 0.0152384C14.0646 0.00563889 14.2817 0 14.5001 0C22.5083 0 29.0001 6.49184 29.0001 14.5C29.0001 22.5081 22.5083 29 14.5001 29H14.5002ZM23.2735 10.0654H20.9646L17.7312 18.9371H20.0402L23.2735 10.0654Z" fill="#001935"/>
</g>
<defs>
<clipPath id="clip0_2_66">
<rect width="29" height="29" fill="white"/>
</clipPath>
</defs>
</svg>
