<svg width="44" height="48" viewBox="0 0 44 48" fill="none" xmlns="http://www.w3.org/2000/svg">
<path d="M20.9268 35.2195C17.8049 35.0569 15.1707 33.8537 13.0244 31.6098C10.878 29.3659 9.80488 26.6667 9.80488 23.5122C9.80488 20.2602 10.9431 17.4959 13.2195 15.2195C15.4959 12.9431 18.2602 11.8049 21.5122 11.8049C24.6667 11.8049 27.3659 12.878 29.6098 15.0244C31.8537 17.1707 33.0569 19.8211 33.2195 22.9756L30.1463 22C29.7886 19.9187 28.813 18.187 27.2195 16.8049C25.626 15.4228 23.7236 14.7317 21.5122 14.7317C19.0732 14.7317 17 15.5854 15.2927 17.2927C13.5854 19 12.7317 21.0732 12.7317 23.5122C12.7317 25.6911 13.4228 27.5854 14.8049 29.1951C16.187 30.8049 17.9187 31.7886 20 32.1463L20.9268 35.2195ZM23.2683 42.9268C22.9756 42.9594 22.6829 42.9837 22.3902 43C22.0976 43.0163 21.8049 43.0244 21.5122 43.0244C18.813 43.0244 16.2764 42.5122 13.9024 41.4878C11.5285 40.4634 9.46342 39.0732 7.70732 37.3171C5.95122 35.561 4.56098 33.4959 3.53659 31.122C2.51219 28.748 2 26.2114 2 23.5122C2 20.813 2.51219 18.2764 3.53659 15.9024C4.56098 13.5285 5.95122 11.4634 7.70732 9.70732C9.46342 7.95122 11.5285 6.56098 13.9024 5.53659C16.2764 4.51219 18.813 4 21.5122 4C24.2114 4 26.748 4.51219 29.122 5.53659C31.4959 6.56098 33.561 7.95122 35.3171 9.70732C37.0732 11.4634 38.4634 13.5285 39.4878 15.9024C40.5122 18.2764 41.0244 20.813 41.0244 23.5122C41.0244 23.8049 41.0163 24.0976 41 24.3902C40.9837 24.6829 40.9594 24.9756 40.9268 25.2683L38.0976 24.3902V23.5122C38.0976 18.8943 36.4878 14.9756 33.2683 11.7561C30.0488 8.53659 26.1301 6.92683 21.5122 6.92683C16.8943 6.92683 12.9756 8.53659 9.7561 11.7561C6.53659 14.9756 4.92683 18.8943 4.92683 23.5122C4.92683 28.1301 6.53659 32.0488 9.7561 35.2683C12.9756 38.4878 16.8943 40.0976 21.5122 40.0976H22.3902L23.2683 42.9268ZM38.1463 44L29.8049 35.6585L27.3659 43.0244L21.5122 23.5122L41.0244 29.3659L33.6585 31.8049L42 40.1463L38.1463 44Z" fill="#F2C811"/>
</svg>
