<svg width="44" height="48" viewBox="0 0 44 48" fill="none" xmlns="http://www.w3.org/2000/svg">
<path d="M23.65 29.61H26.95V22.35H34.21V19.05H26.95V11.79H23.65V19.05H16.39V22.35H23.65V29.61ZM9.9 39.4C9.02 39.4 8.25 39.07 7.59 38.41C6.93 37.75 6.6 36.98 6.6 36.1V5.3C6.6 4.42 6.93 3.65 7.59 2.99C8.25 2.33 9.02 2 9.9 2H40.7C41.58 2 42.35 2.33 43.01 2.99C43.67 3.65 44 4.42 44 5.3V36.1C44 36.98 43.67 37.75 43.01 38.41C42.35 39.07 41.58 39.4 40.7 39.4H9.9ZM9.9 36.1H40.7V5.3H9.9V36.1ZM9.9 5.3V36.1V5.3ZM3.3 46C2.42 46 1.65 45.67 0.99 45.01C0.33 44.35 0 43.58 0 42.7V8.6H3.3V42.7H37.4V46H3.3Z" fill="#F2C811"/>
</svg>
