<svg width="252" height="40" viewBox="0 0 252 40" fill="none" xmlns="http://www.w3.org/2000/svg">
<path d="M165.717 26H164.472V15.292H170.441V16.3979H165.717V20.3164H170.156V21.4224H165.717V26ZM178.967 21.979C178.967 23.2876 178.637 24.3105 177.978 25.0479C177.319 25.7803 176.408 26.1465 175.246 26.1465C174.528 26.1465 173.891 25.978 173.334 25.6411C172.778 25.3042 172.348 24.8208 172.045 24.1909C171.743 23.561 171.591 22.8237 171.591 21.979C171.591 20.6704 171.918 19.6523 172.573 18.9248C173.227 18.1924 174.135 17.8262 175.297 17.8262C176.42 17.8262 177.312 18.1997 177.971 18.9468C178.635 19.6938 178.967 20.7046 178.967 21.979ZM172.851 21.979C172.851 23.0044 173.056 23.7856 173.466 24.3228C173.876 24.8599 174.479 25.1284 175.275 25.1284C176.071 25.1284 176.674 24.8623 177.084 24.3301C177.5 23.793 177.707 23.0093 177.707 21.979C177.707 20.9585 177.5 20.1846 177.084 19.6572C176.674 19.125 176.066 18.8589 175.261 18.8589C174.465 18.8589 173.864 19.1201 173.459 19.6426C173.054 20.165 172.851 20.9438 172.851 21.979ZM184.768 17.8262C185.124 17.8262 185.444 17.8555 185.727 17.9141L185.559 19.042C185.227 18.9688 184.934 18.9321 184.68 18.9321C184.03 18.9321 183.474 19.1958 183.01 19.7231C182.551 20.2505 182.321 20.9072 182.321 21.6934V26H181.105V17.9727H182.109L182.248 19.4595H182.307C182.604 18.937 182.963 18.5342 183.383 18.251C183.803 17.9678 184.265 17.8262 184.768 17.8262ZM198.098 18.4121C198.098 19.4961 197.727 20.3311 196.984 20.917C196.247 21.498 195.19 21.7886 193.813 21.7886H192.553V26H191.308V15.292H194.084C196.76 15.292 198.098 16.332 198.098 18.4121ZM192.553 20.7192H193.674C194.777 20.7192 195.576 20.541 196.069 20.1846C196.562 19.8281 196.809 19.2568 196.809 18.4707C196.809 17.7627 196.577 17.2354 196.113 16.8887C195.649 16.542 194.926 16.3687 193.945 16.3687H192.553V20.7192ZM207.092 21.979C207.092 23.2876 206.762 24.3105 206.103 25.0479C205.444 25.7803 204.533 26.1465 203.371 26.1465C202.653 26.1465 202.016 25.978 201.459 25.6411C200.903 25.3042 200.473 24.8208 200.17 24.1909C199.868 23.561 199.716 22.8237 199.716 21.979C199.716 20.6704 200.043 19.6523 200.698 18.9248C201.352 18.1924 202.26 17.8262 203.422 17.8262C204.545 17.8262 205.437 18.1997 206.096 18.9468C206.76 19.6938 207.092 20.7046 207.092 21.979ZM200.976 21.979C200.976 23.0044 201.181 23.7856 201.591 24.3228C202.001 24.8599 202.604 25.1284 203.4 25.1284C204.196 25.1284 204.799 24.8623 205.209 24.3301C205.625 23.793 205.832 23.0093 205.832 21.979C205.832 20.9585 205.625 20.1846 205.209 19.6572C204.799 19.125 204.191 18.8589 203.386 18.8589C202.59 18.8589 201.989 19.1201 201.584 19.6426C201.179 20.165 200.976 20.9438 200.976 21.979ZM215.786 26L214.313 21.2905C214.221 21.0024 214.047 20.3481 213.793 19.3276H213.735C213.54 20.1821 213.369 20.8413 213.222 21.3052L211.706 26H210.3L208.11 17.9727H209.384C209.902 19.9893 210.295 21.5249 210.563 22.5796C210.837 23.6343 210.993 24.3447 211.032 24.7109H211.091C211.145 24.4326 211.23 24.0737 211.347 23.6343C211.469 23.1899 211.574 22.8384 211.662 22.5796L213.134 17.9727H214.453L215.888 22.5796C216.162 23.4194 216.347 24.125 216.445 24.6963H216.503C216.523 24.5205 216.574 24.2495 216.657 23.8833C216.745 23.5171 217.255 21.5469 218.188 17.9727H219.448L217.229 26H215.786ZM224.296 26.1465C223.11 26.1465 222.172 25.7852 221.484 25.0625C220.8 24.3398 220.458 23.3364 220.458 22.0522C220.458 20.7583 220.776 19.7305 221.411 18.9688C222.05 18.207 222.907 17.8262 223.981 17.8262C224.987 17.8262 225.783 18.1582 226.369 18.8223C226.955 19.4814 227.248 20.353 227.248 21.437V22.2061H221.718C221.743 23.1484 221.979 23.8638 222.429 24.3521C222.883 24.8403 223.52 25.0845 224.34 25.0845C225.205 25.0845 226.059 24.9038 226.904 24.5425V25.6265C226.474 25.812 226.066 25.9438 225.681 26.022C225.3 26.105 224.838 26.1465 224.296 26.1465ZM223.967 18.8442C223.322 18.8442 222.807 19.0542 222.421 19.4741C222.041 19.894 221.816 20.4751 221.748 21.2173H225.944C225.944 20.4507 225.773 19.8647 225.432 19.4595C225.09 19.0493 224.602 18.8442 223.967 18.8442ZM232.99 17.8262C233.347 17.8262 233.667 17.8555 233.95 17.9141L233.781 19.042C233.449 18.9688 233.156 18.9321 232.902 18.9321C232.253 18.9321 231.696 19.1958 231.232 19.7231C230.773 20.2505 230.544 20.9072 230.544 21.6934V26H229.328V17.9727H230.332L230.471 19.4595H230.529C230.827 18.937 231.186 18.5342 231.606 18.251C232.026 17.9678 232.487 17.8262 232.99 17.8262ZM239.531 15.292H242.556C243.977 15.292 245.004 15.5044 245.639 15.9292C246.274 16.354 246.591 17.0254 246.591 17.9434C246.591 18.5781 246.413 19.103 246.057 19.5181C245.705 19.9282 245.19 20.1943 244.511 20.3164V20.3896C246.137 20.668 246.95 21.5225 246.95 22.9531C246.95 23.9102 246.625 24.6572 245.976 25.1943C245.332 25.7314 244.428 26 243.266 26H239.531V15.292ZM240.776 19.877H242.827C243.706 19.877 244.338 19.7402 244.724 19.4668C245.109 19.1885 245.302 18.7222 245.302 18.0679C245.302 17.4673 245.087 17.0352 244.658 16.7715C244.228 16.5029 243.544 16.3687 242.607 16.3687H240.776V19.877ZM240.776 20.9316V24.938H243.01C243.874 24.938 244.523 24.772 244.958 24.4399C245.397 24.103 245.617 23.5781 245.617 22.8652C245.617 22.2012 245.393 21.7129 244.943 21.4004C244.499 21.0879 243.82 20.9316 242.907 20.9316H240.776ZM249.257 26V15.292H250.502V26H249.257Z" fill="#001935"/>
<path d="M133.333 0H0V40H133.333V0Z" fill="#FF0000"/>
<path d="M65.3828 23.9034C65.7841 24.213 66.1853 24.4193 66.598 24.5225C67.0108 24.6257 67.4923 24.683 68.0655 24.683C69.3266 24.683 70.5533 24.3964 71.7342 23.8346V26.1276C70.4845 26.6091 69.2005 26.8613 67.8591 26.8613C65.8528 26.8613 64.3395 26.2766 63.2962 25.1072C62.253 23.9378 61.7256 22.2525 61.7256 20.0399C61.7256 17.8272 62.253 16.1304 63.2962 14.9725C64.3395 13.8031 65.8643 13.2184 67.8591 13.2184C69.2005 13.2184 70.496 13.4592 71.7342 13.9521V16.2565C70.5419 15.6718 69.3381 15.3852 68.1114 15.3852C68.0884 15.3852 68.077 15.3852 68.0655 15.3852C66.8503 15.3852 65.9102 15.6948 65.2223 16.3253C64.5344 16.9559 64.1905 18.1826 64.1905 20.0284C64.1905 21.0029 64.2937 21.8169 64.4886 22.4589C64.6835 23.1124 64.9815 23.5939 65.3828 23.9034ZM81.9148 26.6549V18.7673C81.9148 17.4718 81.6396 16.6005 81.1008 16.1763C80.5505 15.7406 79.8397 15.5228 78.9683 15.5228C77.8907 15.5228 76.813 15.7292 75.7124 16.1534V26.6435H73.3048V8.35742H75.7124V13.8604C76.8359 13.4248 78.0053 13.2069 79.1976 13.2069C80.8371 13.2069 82.1096 13.6999 83.0154 14.6744C83.9211 15.6489 84.3796 17.0476 84.3796 18.8475V26.632L81.9148 26.6549ZM96.7156 23.4219C96.6582 23.6971 96.5207 24.0639 96.3143 24.4996C96.1079 24.9352 95.8213 25.325 95.4544 25.646C95.0876 25.9785 94.5487 26.2537 93.8265 26.4944C93.1042 26.7352 92.2673 26.8498 91.3157 26.8498C90.3412 26.8498 89.4929 26.7237 88.7591 26.483C88.0254 26.2307 87.4751 25.9441 87.1082 25.6231C86.7414 25.2906 86.4433 24.9008 86.2254 24.4537C86.0076 24.0066 85.87 23.6283 85.8242 23.3417C85.7669 23.0436 85.7439 22.757 85.7439 22.4703C85.7439 21.1634 86.2942 20.143 87.3948 19.4093C88.4954 18.6756 90.0088 18.3087 91.9463 18.3087C92.7717 18.3087 93.5628 18.366 94.3424 18.4692C94.2851 17.3571 93.987 16.5546 93.4367 16.0731C92.8864 15.5916 91.9807 15.3508 90.7196 15.3508C89.5731 15.3508 88.3579 15.5687 87.0738 16.0158V13.9407C88.3235 13.4706 89.6419 13.2299 91.052 13.2299C92.8864 13.2299 94.308 13.7114 95.3054 14.663C96.3028 15.6145 96.8073 16.9903 96.8073 18.7673V22.585C96.7958 22.8601 96.7729 23.1468 96.7156 23.4219ZM94.3424 20.4067C93.7118 20.3035 92.9437 20.2462 92.0495 20.2347C91.6941 20.2347 91.3272 20.2691 90.9489 20.3265C90.5591 20.3953 90.1463 20.487 89.6992 20.6245C89.2521 20.7621 88.8852 20.9914 88.5986 21.301C88.312 21.622 88.163 22.0003 88.163 22.436C88.163 23.9263 89.2177 24.6715 91.3272 24.6715C91.3387 24.6715 91.3501 24.6715 91.3616 24.6715C93.345 24.6715 94.3424 23.9607 94.3424 22.5277V20.4067ZM100.992 16.0043V26.6549H98.5843V14.5483C100.785 13.6655 102.918 13.2299 105.004 13.2299V15.454C103.686 15.4655 102.345 15.6489 100.992 16.0043ZM112.055 24.683C112.067 24.683 112.067 24.683 112.078 24.683C112.674 24.683 113.19 24.5569 113.614 24.2932V26.483C113.018 26.7237 112.411 26.8498 111.814 26.8498C111.792 26.8498 111.78 26.8498 111.746 26.8498C111.425 26.8498 111.092 26.8154 110.725 26.7352C110.37 26.6549 109.934 26.5059 109.43 26.2766C108.925 26.0473 108.513 25.6575 108.192 25.0843C107.871 24.5225 107.699 23.8232 107.699 22.9863V15.4884H105.406V13.4133H107.699V9.50388H110.106V13.4248H113.614V15.4999H110.106V23.1468C110.106 24.1671 110.76 24.683 112.055 24.683ZM117.891 18.0106C118.349 18.2514 118.911 18.4692 119.565 18.6526C120.218 18.8361 120.871 19.0654 121.525 19.329C122.178 19.5927 122.74 20.0284 123.21 20.6475C123.68 21.2666 123.91 22.0347 123.91 22.9404C123.91 24.0066 123.508 24.9238 122.717 25.7034C121.926 26.4715 120.688 26.8613 119.014 26.8613C117.604 26.8613 116.343 26.5517 115.219 25.9327V23.72C116.366 24.362 117.581 24.683 118.865 24.683C118.877 24.683 118.9 24.683 118.922 24.683C119.759 24.683 120.401 24.534 120.849 24.2244C121.296 23.9149 121.513 23.5251 121.513 23.055C121.513 22.5162 121.284 22.0805 120.826 21.7481C120.367 21.4156 119.805 21.1634 119.14 20.9685C118.475 20.7851 117.822 20.5787 117.168 20.3494C116.515 20.1201 115.953 19.7418 115.495 19.2144C115.036 18.687 114.807 17.9992 114.807 17.1508C114.807 16.0616 115.196 15.1215 115.976 14.3534C116.756 13.5853 117.937 13.2069 119.542 13.2069C120.734 13.2069 121.903 13.4936 123.061 14.0783V16.1763C121.926 15.6489 120.849 15.3852 119.84 15.3852C118.097 15.3852 117.226 15.947 117.226 17.0705C117.191 17.4603 117.432 17.7584 117.891 18.0106Z" fill="white"/>
<path d="M32.7429 22.5615C32.7429 25.4735 30.3468 27.9154 27.3889 27.9154C27.3774 27.9154 27.3889 22.5156 27.3889 22.5156C27.4462 22.5729 32.7429 22.55 32.7429 22.5615Z" fill="white"/>
<path d="M58.3205 26.6553V17.9881C58.3205 17.2314 58.137 16.6123 57.7702 16.1537C57.4033 15.6837 56.681 15.4544 55.6033 15.4544C54.4454 15.4544 53.2646 15.6952 52.0723 16.1881C52.2786 16.7499 52.3818 17.3805 52.3818 18.0798C52.3818 18.1027 52.3818 18.1371 52.3818 18.1601V26.6668H49.9742V18.0225C49.9742 17.2429 49.7679 16.6353 49.3666 16.1881C48.9539 15.741 48.1514 15.5117 46.9361 15.5117C45.996 15.5117 45.033 15.6493 44.0585 15.913V26.6668H41.6509V21.3472C40.665 22.5051 39.3007 23.3535 37.7071 23.686C37.0192 23.835 36.3428 23.8694 35.6779 23.8236C35.1505 27.2859 32.548 30.2208 28.9367 30.9889C25.1304 31.8029 21.3815 29.9342 19.6045 26.6668H9.8252V24.4197L16.5205 15.6722H9.97424V13.4481H19.6045V15.6493L12.9321 24.3739H18.7447C18.7447 24.3509 18.7332 24.328 18.7332 24.3051C17.7587 19.6161 20.728 15.0188 25.3827 14.0328C26.7813 13.7347 28.18 13.8035 29.4755 14.1589C30.301 11.8889 32.227 10.089 34.7378 9.55014C38.223 8.80494 41.6509 10.7539 42.9006 13.9869C44.2649 13.471 45.6635 13.2188 47.1081 13.2188C48.5297 13.2188 49.7105 13.5513 50.6277 14.2162C52.2786 13.5513 53.8951 13.2188 55.4543 13.2188C57.1167 13.2188 58.4122 13.6545 59.3408 14.5258C60.2694 15.3971 60.7395 16.6123 60.7395 18.1715V26.6782L58.3205 26.6553ZM36.3199 11.5794C33.5111 11.5794 31.2296 13.8608 31.2296 16.6697C31.2296 16.9333 31.2525 17.197 31.2869 17.4492C30.2093 16.6238 28.8564 16.1308 27.389 16.1308C23.8349 16.1308 20.9573 19.0084 20.9573 22.5625C20.9573 26.1165 23.8349 28.9941 27.389 28.9941C30.943 28.9941 33.8206 26.1165 33.8206 22.5625C33.8206 22.0236 33.7518 21.4848 33.6257 20.9803C34.4053 21.4619 35.3225 21.7485 36.3084 21.7485C39.1173 21.7485 41.3987 19.467 41.3987 16.6582C41.3987 13.8608 39.1287 11.5794 36.3199 11.5794Z" fill="white"/>
<path d="M125.457 13.5166C124.598 13.5166 123.887 14.2159 123.887 15.0873C123.887 15.9471 124.586 16.6579 125.457 16.6579C126.317 16.6579 127.028 15.9586 127.028 15.0873C127.028 14.2159 126.329 13.5166 125.457 13.5166ZM125.457 16.3369C124.769 16.3369 124.208 15.7751 124.208 15.0873C124.208 14.3994 124.769 13.8376 125.457 13.8376C126.145 13.8376 126.707 14.3994 126.707 15.0873C126.707 15.7751 126.145 16.3369 125.457 16.3369Z" fill="white"/>
<path d="M125.882 15.1906C125.836 15.1447 125.79 15.1103 125.721 15.0988C125.825 15.0645 125.905 15.0186 125.962 14.9498C126.019 14.881 126.042 14.7893 126.042 14.6861C126.042 14.5256 125.997 14.411 125.893 14.3422C125.79 14.2734 125.63 14.2275 125.423 14.2275H124.781V15.867H125.205V15.2479H125.32C125.389 15.2479 125.446 15.2594 125.481 15.2937C125.526 15.3281 125.561 15.3855 125.607 15.4657L125.813 15.8784H126.26L126.031 15.4084C125.974 15.3052 125.928 15.2364 125.882 15.1906ZM125.561 14.9039C125.526 14.9383 125.458 14.9498 125.366 14.9498H125.194V14.5256H125.377C125.469 14.5256 125.526 14.5371 125.572 14.5715C125.607 14.6059 125.63 14.6632 125.63 14.732C125.618 14.8237 125.607 14.8696 125.561 14.9039Z" fill="white"/>
<line x1="148.5" y1="-2.18557e-08" x2="148.5" y2="40" stroke="black"/>
</svg>
