<svg width="134" height="40" viewBox="0 0 134 40" fill="none" xmlns="http://www.w3.org/2000/svg">
<path d="M133.333 0H0V40H133.333V0Z" fill="#FF0000"/>
<path d="M65.383 23.9034C65.7843 24.213 66.1856 24.4193 66.5983 24.5225C67.011 24.6257 67.4925 24.683 68.0658 24.683C69.3269 24.683 70.5536 24.3964 71.7344 23.8346V26.1276C70.4848 26.6091 69.2008 26.8613 67.8594 26.8613C65.8531 26.8613 64.3398 26.2766 63.2965 25.1072C62.2532 23.9378 61.7258 22.2525 61.7258 20.0399C61.7258 17.8272 62.2532 16.1304 63.2965 14.9725C64.3398 13.8031 65.8646 13.2184 67.8594 13.2184C69.2008 13.2184 70.4963 13.4592 71.7344 13.9521V16.2565C70.5421 15.6718 69.3383 15.3852 68.1116 15.3852C68.0887 15.3852 68.0772 15.3852 68.0658 15.3852C66.8505 15.3852 65.9104 15.6948 65.2225 16.3253C64.5347 16.9559 64.1907 18.1826 64.1907 20.0284C64.1907 21.0029 64.2939 21.8169 64.4888 22.4589C64.6837 23.1124 64.9818 23.5939 65.383 23.9034ZM81.915 26.6549V18.7673C81.915 17.4718 81.6398 16.6005 81.101 16.1763C80.5507 15.7406 79.8399 15.5228 78.9686 15.5228C77.8909 15.5228 76.8132 15.7292 75.7126 16.1534V26.6435H73.3051V8.35742H75.7126V13.8604C76.8362 13.4248 78.0056 13.2069 79.1979 13.2069C80.8373 13.2069 82.1099 13.6999 83.0156 14.6744C83.9213 15.6489 84.3799 17.0476 84.3799 18.8475V26.632L81.915 26.6549ZM96.7158 23.4219C96.6585 23.6971 96.5209 24.0639 96.3145 24.4996C96.1082 24.9352 95.8216 25.325 95.4547 25.646C95.0878 25.9785 94.549 26.2537 93.8267 26.4944C93.1044 26.7352 92.2675 26.8498 91.316 26.8498C90.3415 26.8498 89.4931 26.7237 88.7594 26.483C88.0256 26.2307 87.4753 25.9441 87.1085 25.6231C86.7416 25.2906 86.4435 24.9008 86.2257 24.4537C86.0079 24.0066 85.8703 23.6283 85.8244 23.3417C85.7671 23.0436 85.7442 22.757 85.7442 22.4703C85.7442 21.1634 86.2945 20.143 87.3951 19.4093C88.4957 18.6756 90.009 18.3087 91.9465 18.3087C92.772 18.3087 93.563 18.366 94.3426 18.4692C94.2853 17.3571 93.9872 16.5546 93.4369 16.0731C92.8866 15.5916 91.9809 15.3508 90.7198 15.3508C89.5734 15.3508 88.3581 15.5687 87.0741 16.0158V13.9407C88.3237 13.4706 89.6421 13.2299 91.0523 13.2299C92.8866 13.2299 94.3082 13.7114 95.3057 14.663C96.3031 15.6145 96.8075 16.9903 96.8075 18.7673V22.585C96.796 22.8601 96.7731 23.1468 96.7158 23.4219ZM94.3426 20.4067C93.7121 20.3035 92.9439 20.2462 92.0497 20.2347C91.6943 20.2347 91.3274 20.2691 90.9491 20.3265C90.5593 20.3953 90.1466 20.487 89.6995 20.6245C89.2523 20.7621 88.8855 20.9914 88.5989 21.301C88.3122 21.622 88.1632 22.0003 88.1632 22.436C88.1632 23.9263 89.2179 24.6715 91.3274 24.6715C91.3389 24.6715 91.3504 24.6715 91.3618 24.6715C93.3452 24.6715 94.3426 23.9607 94.3426 22.5277V20.4067ZM100.992 16.0043V26.6549H98.5845V14.5483C100.786 13.6655 102.918 13.2299 105.005 13.2299V15.454C103.686 15.4655 102.345 15.6489 100.992 16.0043ZM112.055 24.683C112.067 24.683 112.067 24.683 112.078 24.683C112.675 24.683 113.19 24.5569 113.615 24.2932V26.483C113.018 26.7237 112.411 26.8498 111.815 26.8498C111.792 26.8498 111.78 26.8498 111.746 26.8498C111.425 26.8498 111.092 26.8154 110.726 26.7352C110.37 26.6549 109.934 26.5059 109.43 26.2766C108.926 26.0473 108.513 25.6575 108.192 25.0843C107.871 24.5225 107.699 23.8232 107.699 22.9863V15.4884H105.406V13.4133H107.699V9.50388H110.106V13.4248H113.615V15.4999H110.106V23.1468C110.106 24.1671 110.76 24.683 112.055 24.683ZM117.891 18.0106C118.35 18.2514 118.911 18.4692 119.565 18.6526C120.218 18.8361 120.872 19.0654 121.525 19.329C122.179 19.5927 122.74 20.0284 123.21 20.6475C123.681 21.2666 123.91 22.0347 123.91 22.9404C123.91 24.0066 123.509 24.9238 122.718 25.7034C121.926 26.4715 120.688 26.8613 119.014 26.8613C117.604 26.8613 116.343 26.5517 115.22 25.9327V23.72C116.366 24.362 117.581 24.683 118.865 24.683C118.877 24.683 118.9 24.683 118.923 24.683C119.76 24.683 120.402 24.534 120.849 24.2244C121.296 23.9149 121.514 23.5251 121.514 23.055C121.514 22.5162 121.284 22.0805 120.826 21.7481C120.367 21.4156 119.806 21.1634 119.141 20.9685C118.476 20.7851 117.822 20.5787 117.169 20.3494C116.515 20.1201 115.953 19.7418 115.495 19.2144C115.036 18.687 114.807 17.9992 114.807 17.1508C114.807 16.0616 115.197 15.1215 115.976 14.3534C116.756 13.5853 117.937 13.2069 119.542 13.2069C120.734 13.2069 121.904 13.4936 123.061 14.0783V16.1763C121.926 15.6489 120.849 15.3852 119.84 15.3852C118.097 15.3852 117.226 15.947 117.226 17.0705C117.192 17.4603 117.432 17.7584 117.891 18.0106Z" fill="white"/>
<path d="M32.7431 22.5615C32.7431 25.4735 30.347 27.9154 27.3891 27.9154C27.3777 27.9154 27.3891 22.5156 27.3891 22.5156C27.4465 22.5729 32.7431 22.55 32.7431 22.5615Z" fill="white"/>
<path d="M58.3205 26.6553V17.9881C58.3205 17.2314 58.137 16.6123 57.7702 16.1537C57.4033 15.6837 56.681 15.4544 55.6033 15.4544C54.4454 15.4544 53.2646 15.6952 52.0723 16.1881C52.2786 16.7499 52.3818 17.3805 52.3818 18.0798C52.3818 18.1027 52.3818 18.1371 52.3818 18.1601V26.6668H49.9742V18.0225C49.9742 17.2429 49.7679 16.6353 49.3666 16.1881C48.9539 15.741 48.1514 15.5117 46.9361 15.5117C45.996 15.5117 45.033 15.6493 44.0585 15.913V26.6668H41.6509V21.3472C40.665 22.5051 39.3007 23.3535 37.7071 23.686C37.0192 23.835 36.3428 23.8694 35.6779 23.8236C35.1505 27.2859 32.548 30.2208 28.9367 30.9889C25.1304 31.8029 21.3815 29.9342 19.6045 26.6668H9.8252V24.4197L16.5205 15.6722H9.97424V13.4481H19.6045V15.6493L12.9321 24.3739H18.7447C18.7447 24.3509 18.7332 24.328 18.7332 24.3051C17.7587 19.6161 20.728 15.0188 25.3827 14.0328C26.7813 13.7347 28.18 13.8035 29.4755 14.1589C30.301 11.8889 32.227 10.089 34.7378 9.55014C38.223 8.80494 41.6509 10.7539 42.9006 13.9869C44.2649 13.471 45.6635 13.2188 47.1081 13.2188C48.5297 13.2188 49.7105 13.5513 50.6277 14.2162C52.2786 13.5513 53.8951 13.2188 55.4543 13.2188C57.1167 13.2188 58.4122 13.6545 59.3408 14.5258C60.2694 15.3971 60.7395 16.6123 60.7395 18.1715V26.6782L58.3205 26.6553ZM36.3199 11.5794C33.5111 11.5794 31.2296 13.8608 31.2296 16.6697C31.2296 16.9333 31.2525 17.197 31.2869 17.4492C30.2093 16.6238 28.8564 16.1308 27.389 16.1308C23.8349 16.1308 20.9573 19.0084 20.9573 22.5625C20.9573 26.1165 23.8349 28.9941 27.389 28.9941C30.943 28.9941 33.8206 26.1165 33.8206 22.5625C33.8206 22.0236 33.7518 21.4848 33.6257 20.9803C34.4053 21.4619 35.3225 21.7485 36.3084 21.7485C39.1173 21.7485 41.3987 19.467 41.3987 16.6582C41.3987 13.8608 39.1287 11.5794 36.3199 11.5794Z" fill="white"/>
<path d="M125.457 13.5166C124.598 13.5166 123.887 14.2159 123.887 15.0873C123.887 15.9471 124.586 16.6579 125.457 16.6579C126.317 16.6579 127.028 15.9586 127.028 15.0873C127.028 14.2159 126.329 13.5166 125.457 13.5166ZM125.457 16.3369C124.769 16.3369 124.208 15.7751 124.208 15.0873C124.208 14.3994 124.769 13.8376 125.457 13.8376C126.145 13.8376 126.707 14.3994 126.707 15.0873C126.707 15.7751 126.145 16.3369 125.457 16.3369Z" fill="white"/>
<path d="M125.882 15.1906C125.836 15.1447 125.79 15.1103 125.721 15.0988C125.824 15.0645 125.905 15.0186 125.962 14.9498C126.019 14.881 126.042 14.7893 126.042 14.6861C126.042 14.5256 125.996 14.411 125.893 14.3422C125.79 14.2734 125.629 14.2275 125.423 14.2275H124.781V15.867H125.205V15.2479H125.32C125.389 15.2479 125.446 15.2594 125.48 15.2937C125.526 15.3281 125.561 15.3855 125.606 15.4657L125.813 15.8784H126.26L126.031 15.4084C125.973 15.3052 125.927 15.2364 125.882 15.1906ZM125.561 14.9039C125.526 14.9383 125.457 14.9498 125.366 14.9498H125.194V14.5256H125.377C125.469 14.5256 125.526 14.5371 125.572 14.5715C125.606 14.6059 125.629 14.6632 125.629 14.732C125.618 14.8237 125.606 14.8696 125.561 14.9039Z" fill="white"/>
</svg>
