<svg width="219" height="30" viewBox="0 0 219 30" fill="none" xmlns="http://www.w3.org/2000/svg">
<path d="M132.717 21H131.472V10.292H137.441V11.3979H132.717V15.3164H137.156V16.4224H132.717V21ZM145.967 16.979C145.967 18.2876 145.637 19.3105 144.978 20.0479C144.319 20.7803 143.408 21.1465 142.246 21.1465C141.528 21.1465 140.891 20.978 140.334 20.6411C139.778 20.3042 139.348 19.8208 139.045 19.1909C138.743 18.561 138.591 17.8237 138.591 16.979C138.591 15.6704 138.918 14.6523 139.573 13.9248C140.227 13.1924 141.135 12.8262 142.297 12.8262C143.42 12.8262 144.312 13.1997 144.971 13.9468C145.635 14.6938 145.967 15.7046 145.967 16.979ZM139.851 16.979C139.851 18.0044 140.056 18.7856 140.466 19.3228C140.876 19.8599 141.479 20.1284 142.275 20.1284C143.071 20.1284 143.674 19.8623 144.084 19.3301C144.5 18.793 144.707 18.0093 144.707 16.979C144.707 15.9585 144.5 15.1846 144.084 14.6572C143.674 14.125 143.066 13.8589 142.261 13.8589C141.465 13.8589 140.864 14.1201 140.459 14.6426C140.054 15.165 139.851 15.9438 139.851 16.979ZM151.768 12.8262C152.124 12.8262 152.444 12.8555 152.727 12.9141L152.559 14.042C152.227 13.9688 151.934 13.9321 151.68 13.9321C151.03 13.9321 150.474 14.1958 150.01 14.7231C149.551 15.2505 149.321 15.9072 149.321 16.6934V21H148.105V12.9727H149.109L149.248 14.4595H149.307C149.604 13.937 149.963 13.5342 150.383 13.251C150.803 12.9678 151.265 12.8262 151.768 12.8262ZM165.098 13.4121C165.098 14.4961 164.727 15.3311 163.984 15.917C163.247 16.498 162.19 16.7886 160.813 16.7886H159.553V21H158.308V10.292H161.084C163.76 10.292 165.098 11.332 165.098 13.4121ZM159.553 15.7192H160.674C161.777 15.7192 162.576 15.541 163.069 15.1846C163.562 14.8281 163.809 14.2568 163.809 13.4707C163.809 12.7627 163.577 12.2354 163.113 11.8887C162.649 11.542 161.926 11.3687 160.945 11.3687H159.553V15.7192ZM174.092 16.979C174.092 18.2876 173.762 19.3105 173.103 20.0479C172.444 20.7803 171.533 21.1465 170.371 21.1465C169.653 21.1465 169.016 20.978 168.459 20.6411C167.903 20.3042 167.473 19.8208 167.17 19.1909C166.868 18.561 166.716 17.8237 166.716 16.979C166.716 15.6704 167.043 14.6523 167.698 13.9248C168.352 13.1924 169.26 12.8262 170.422 12.8262C171.545 12.8262 172.437 13.1997 173.096 13.9468C173.76 14.6938 174.092 15.7046 174.092 16.979ZM167.976 16.979C167.976 18.0044 168.181 18.7856 168.591 19.3228C169.001 19.8599 169.604 20.1284 170.4 20.1284C171.196 20.1284 171.799 19.8623 172.209 19.3301C172.625 18.793 172.832 18.0093 172.832 16.979C172.832 15.9585 172.625 15.1846 172.209 14.6572C171.799 14.125 171.191 13.8589 170.386 13.8589C169.59 13.8589 168.989 14.1201 168.584 14.6426C168.179 15.165 167.976 15.9438 167.976 16.979ZM182.786 21L181.313 16.2905C181.221 16.0024 181.047 15.3481 180.793 14.3276H180.735C180.54 15.1821 180.369 15.8413 180.222 16.3052L178.706 21H177.3L175.11 12.9727H176.384C176.902 14.9893 177.295 16.5249 177.563 17.5796C177.837 18.6343 177.993 19.3447 178.032 19.7109H178.091C178.145 19.4326 178.23 19.0737 178.347 18.6343C178.469 18.1899 178.574 17.8384 178.662 17.5796L180.134 12.9727H181.453L182.888 17.5796C183.162 18.4194 183.347 19.125 183.445 19.6963H183.503C183.523 19.5205 183.574 19.2495 183.657 18.8833C183.745 18.5171 184.255 16.5469 185.188 12.9727H186.448L184.229 21H182.786ZM191.296 21.1465C190.11 21.1465 189.172 20.7852 188.484 20.0625C187.8 19.3398 187.458 18.3364 187.458 17.0522C187.458 15.7583 187.776 14.7305 188.411 13.9688C189.05 13.207 189.907 12.8262 190.981 12.8262C191.987 12.8262 192.783 13.1582 193.369 13.8223C193.955 14.4814 194.248 15.353 194.248 16.437V17.2061H188.718C188.743 18.1484 188.979 18.8638 189.429 19.3521C189.883 19.8403 190.52 20.0845 191.34 20.0845C192.205 20.0845 193.059 19.9038 193.904 19.5425V20.6265C193.474 20.812 193.066 20.9438 192.681 21.022C192.3 21.105 191.838 21.1465 191.296 21.1465ZM190.967 13.8442C190.322 13.8442 189.807 14.0542 189.421 14.4741C189.041 14.894 188.816 15.4751 188.748 16.2173H192.944C192.944 15.4507 192.773 14.8647 192.432 14.4595C192.09 14.0493 191.602 13.8442 190.967 13.8442ZM199.99 12.8262C200.347 12.8262 200.667 12.8555 200.95 12.9141L200.781 14.042C200.449 13.9688 200.156 13.9321 199.902 13.9321C199.253 13.9321 198.696 14.1958 198.232 14.7231C197.773 15.2505 197.544 15.9072 197.544 16.6934V21H196.328V12.9727H197.332L197.471 14.4595H197.529C197.827 13.937 198.186 13.5342 198.606 13.251C199.026 12.9678 199.487 12.8262 199.99 12.8262ZM206.531 10.292H209.556C210.977 10.292 212.004 10.5044 212.639 10.9292C213.274 11.354 213.591 12.0254 213.591 12.9434C213.591 13.5781 213.413 14.103 213.057 14.5181C212.705 14.9282 212.19 15.1943 211.511 15.3164V15.3896C213.137 15.668 213.95 16.5225 213.95 17.9531C213.95 18.9102 213.625 19.6572 212.976 20.1943C212.332 20.7314 211.428 21 210.266 21H206.531V10.292ZM207.776 14.877H209.827C210.706 14.877 211.338 14.7402 211.724 14.4668C212.109 14.1885 212.302 13.7222 212.302 13.0679C212.302 12.4673 212.087 12.0352 211.658 11.7715C211.228 11.5029 210.544 11.3687 209.607 11.3687H207.776V14.877ZM207.776 15.9316V19.938H210.01C210.874 19.938 211.523 19.772 211.958 19.4399C212.397 19.103 212.617 18.5781 212.617 17.8652C212.617 17.2012 212.393 16.7129 211.943 16.4004C211.499 16.0879 210.82 15.9316 209.907 15.9316H207.776ZM216.257 21V10.292H217.502V21H216.257Z" fill="#001935"/>
<path d="M100 0H0V30H100V0Z" fill="#FF0000"/>
<path d="M49.0369 17.9271C49.3378 18.1592 49.6387 18.314 49.9483 18.3914C50.2578 18.4688 50.619 18.5118 51.0489 18.5118C51.9947 18.5118 52.9148 18.2968 53.8004 17.8755V19.5952C52.8632 19.9563 51.9001 20.1455 50.8941 20.1455C49.3894 20.1455 48.2544 19.707 47.4719 18.8299C46.6895 17.9529 46.2939 16.6889 46.2939 15.0294C46.2939 13.3699 46.6895 12.0973 47.4719 11.2289C48.2544 10.3518 49.398 9.91332 50.8941 9.91332C51.9001 9.91332 52.8718 10.0939 53.8004 10.4636V12.1919C52.9062 11.7534 52.0033 11.5384 51.0833 11.5384C51.0661 11.5384 51.0575 11.5384 51.0489 11.5384C50.1375 11.5384 49.4324 11.7706 48.9165 12.2435C48.4006 12.7164 48.1426 13.6364 48.1426 15.0208C48.1426 15.7517 48.22 16.3622 48.3662 16.8437C48.5123 17.3338 48.7359 17.6949 49.0369 17.9271ZM61.4358 19.9907V14.075C61.4358 13.1033 61.2295 12.4499 60.8253 12.1317C60.4126 11.805 59.8795 11.6416 59.226 11.6416C58.4178 11.6416 57.6095 11.7964 56.7841 12.1145V19.9821H54.9784V6.26758H56.7841V10.3948C57.6267 10.0681 58.5037 9.90472 59.398 9.90472C60.6276 9.90472 61.582 10.2745 62.2613 11.0053C62.9405 11.7362 63.2845 12.7852 63.2845 14.1352V19.9735L61.4358 19.9907ZM72.5364 17.5659C72.4934 17.7723 72.3902 18.0475 72.2355 18.3742C72.0807 18.7009 71.8657 18.9933 71.5906 19.234C71.3154 19.4834 70.9113 19.6898 70.3696 19.8703C69.8279 20.0509 69.2002 20.1369 68.4866 20.1369C67.7557 20.1369 67.1194 20.0423 66.5691 19.8617C66.0188 19.6726 65.6061 19.4576 65.3309 19.2168C65.0558 18.9675 64.8322 18.6751 64.6688 18.3398C64.5055 18.0045 64.4023 17.7207 64.3679 17.5058C64.3249 17.2822 64.3077 17.0672 64.3077 16.8523C64.3077 15.872 64.7204 15.1068 65.5459 14.5565C66.3713 14.0062 67.5063 13.731 68.9595 13.731C69.5786 13.731 70.1718 13.774 70.7565 13.8514C70.7135 13.0174 70.49 12.4155 70.0773 12.0543C69.6645 11.6932 68.9853 11.5126 68.0394 11.5126C67.1796 11.5126 66.2682 11.676 65.3051 12.0113V10.455C66.2424 10.1025 67.2312 9.92192 68.2888 9.92192C69.6645 9.92192 70.7307 10.2831 71.4788 10.9967C72.2269 11.7104 72.6052 12.7422 72.6052 14.075V16.9383C72.5966 17.1446 72.5794 17.3596 72.5364 17.5659ZM70.7565 15.3045C70.2836 15.2272 69.7075 15.1842 69.0368 15.1756C68.7703 15.1756 68.4951 15.2014 68.2114 15.2444C67.9191 15.296 67.6095 15.3647 67.2742 15.4679C66.9388 15.5711 66.6637 15.7431 66.4487 15.9752C66.2338 16.216 66.122 16.4997 66.122 16.8265C66.122 17.9443 66.913 18.5032 68.4951 18.5032C68.5037 18.5032 68.5123 18.5032 68.5209 18.5032C70.0085 18.5032 70.7565 17.9701 70.7565 16.8953V15.3045ZM75.7436 12.0027V19.9907H73.938V10.9107C75.5889 10.2487 77.1882 9.92192 78.7531 9.92192V11.59C77.7643 11.5986 76.7583 11.7362 75.7436 12.0027ZM84.0411 18.5118C84.0497 18.5118 84.0498 18.5118 84.0583 18.5118C84.5055 18.5118 84.8924 18.4172 85.2105 18.2194V19.8617C84.7634 20.0423 84.3077 20.1369 83.8606 20.1369C83.8434 20.1369 83.8348 20.1369 83.809 20.1369C83.5682 20.1369 83.3189 20.1111 83.0437 20.0509C82.7772 19.9907 82.4504 19.8789 82.0721 19.707C81.6938 19.535 81.3842 19.2426 81.1435 18.8127C80.9027 18.3914 80.7737 17.8669 80.7737 17.2392V11.6158H79.054V10.0595H80.7737V7.12742H82.5794V10.0681H85.2105V11.6244H82.5794V17.3596C82.5794 18.1248 83.0695 18.5118 84.0411 18.5118ZM88.4178 13.5075C88.7617 13.688 89.183 13.8514 89.6731 13.989C90.1632 14.1266 90.6534 14.2985 91.1435 14.4963C91.6336 14.6941 92.0549 15.0208 92.4074 15.4851C92.76 15.9494 92.9319 16.5255 92.9319 17.2048C92.9319 18.0045 92.631 18.6923 92.0377 19.277C91.4444 19.8531 90.5158 20.1455 89.2604 20.1455C88.2028 20.1455 87.257 19.9133 86.4143 19.449V17.7895C87.2742 18.271 88.1856 18.5118 89.1486 18.5118C89.1572 18.5118 89.1744 18.5118 89.1916 18.5118C89.8193 18.5118 90.3008 18.4 90.6362 18.1678C90.9715 17.9357 91.1349 17.6433 91.1349 17.2908C91.1349 16.8867 90.9629 16.5599 90.619 16.3106C90.275 16.0612 89.8537 15.872 89.355 15.7259C88.8563 15.5883 88.3662 15.4335 87.8761 15.2616C87.3859 15.0896 86.9646 14.8058 86.6207 14.4103C86.2767 14.0148 86.1048 13.4989 86.1048 12.8626C86.1048 12.0457 86.3971 11.3407 86.9818 10.7646C87.5665 10.1885 88.4522 9.90472 89.6559 9.90472C90.5502 9.90472 91.4272 10.1197 92.2957 10.5582V12.1317C91.4444 11.7362 90.6362 11.5384 89.8795 11.5384C88.5725 11.5384 87.919 11.9598 87.919 12.8024C87.8932 13.0947 88.0738 13.3183 88.4178 13.5075Z" fill="white"/>
<path d="M24.5564 16.9211C24.5564 19.1051 22.7593 20.9366 20.5409 20.9366C20.5323 20.9366 20.5409 16.8867 20.5409 16.8867C20.5839 16.9297 24.5564 16.9125 24.5564 16.9211Z" fill="white"/>
<path d="M43.7396 19.9908V13.4903C43.7396 12.9228 43.602 12.4585 43.3269 12.1146C43.0517 11.762 42.51 11.5901 41.7018 11.5901C40.8333 11.5901 39.9477 11.7706 39.0535 12.1404C39.2082 12.5617 39.2856 13.0346 39.2856 13.5591C39.2856 13.5763 39.2856 13.6021 39.2856 13.6193V19.9994H37.4799V13.5161C37.4799 12.9314 37.3252 12.4757 37.0242 12.1404C36.7147 11.805 36.1128 11.6331 35.2014 11.6331C34.4963 11.6331 33.774 11.7362 33.0431 11.934V19.9994H31.2375V16.0097C30.498 16.8781 29.4748 17.5144 28.2796 17.7638C27.7637 17.8755 27.2564 17.9013 26.7577 17.8669C26.3621 20.4637 24.4103 22.6649 21.7018 23.241C18.8471 23.8515 16.0354 22.4499 14.7026 19.9994H7.36816V18.3141L12.3897 11.7534H7.47994V10.0853H14.7026V11.7362L9.69834 18.2797H14.0578C14.0578 18.2625 14.0492 18.2453 14.0492 18.2281C13.3183 14.7113 15.5453 11.2633 19.0363 10.5239C20.0853 10.3003 21.1343 10.3519 22.1059 10.6184C22.725 8.91595 24.1695 7.566 26.0526 7.16187C28.6665 6.60297 31.2375 8.06471 32.1747 10.4895C33.1979 10.1025 34.2469 9.91338 35.3303 9.91338C36.3965 9.91338 37.2822 10.1627 37.9701 10.6614C39.2082 10.1627 40.4206 9.91338 41.59 9.91338C42.8368 9.91338 43.8084 10.2401 44.5049 10.8936C45.2014 11.5471 45.5539 12.4585 45.5539 13.6279V20.008L43.7396 19.9908ZM27.2392 8.68379C25.1326 8.68379 23.4215 10.3949 23.4215 12.5015C23.4215 12.6993 23.4387 12.897 23.4645 13.0862C22.6562 12.4671 21.6416 12.0974 20.541 12.0974C17.8755 12.0974 15.7173 14.2556 15.7173 16.9211C15.7173 19.5866 17.8755 21.7448 20.541 21.7448C23.2065 21.7448 25.3647 19.5866 25.3647 16.9211C25.3647 16.517 25.3131 16.1129 25.2185 15.7345C25.8032 16.0957 26.4911 16.3106 27.2306 16.3106C29.3372 16.3106 31.0483 14.5995 31.0483 12.4929C31.0483 10.3949 29.3458 8.68379 27.2392 8.68379Z" fill="white"/>
<path d="M94.0923 10.1367C93.4474 10.1367 92.9143 10.6612 92.9143 11.3147C92.9143 11.9596 93.4388 12.4927 94.0923 12.4927C94.7372 12.4927 95.2703 11.9682 95.2703 11.3147C95.2703 10.6612 94.7458 10.1367 94.0923 10.1367ZM94.0923 12.2519C93.5764 12.2519 93.1551 11.8306 93.1551 11.3147C93.1551 10.7988 93.5764 10.3775 94.0923 10.3775C94.6082 10.3775 95.0295 10.7988 95.0295 11.3147C95.0295 11.8306 94.6082 12.2519 94.0923 12.2519Z" fill="white"/>
<path d="M94.4104 11.3922C94.376 11.3578 94.3416 11.332 94.29 11.3234C94.3674 11.2976 94.4276 11.2632 94.4706 11.2116C94.5136 11.16 94.5308 11.0912 94.5308 11.0139C94.5308 10.8935 94.4964 10.8075 94.419 10.7559C94.3416 10.7043 94.2212 10.6699 94.0665 10.6699H93.585V11.8995H93.9031V11.4352H93.9891C94.0407 11.4352 94.0837 11.4438 94.1095 11.4696C94.1439 11.4954 94.1697 11.5384 94.2041 11.5986L94.3588 11.9081H94.6942L94.5222 11.5556C94.4792 11.4782 94.4448 11.4266 94.4104 11.3922ZM94.1697 11.1772C94.1439 11.203 94.0923 11.2116 94.0235 11.2116H93.8945V10.8935H94.0321C94.1009 10.8935 94.1439 10.9021 94.1783 10.9279C94.2041 10.9537 94.2212 10.9967 94.2212 11.0483C94.2126 11.117 94.2041 11.1514 94.1697 11.1772Z" fill="white"/>
<line x1="115.5" y1="-2.18557e-08" x2="115.5" y2="30" stroke="black"/>
</svg>
