<svg width="115" height="25" viewBox="0 0 115 25" fill="none" xmlns="http://www.w3.org/2000/svg">
<path d="M115 11.1163V9.09323H112.489V5.94812L112.404 5.97416L110.045 6.69615L109.999 6.71028V9.09335H106.275V7.76577C106.275 7.14761 106.413 6.67456 106.686 6.35908C106.956 6.04738 107.343 5.88892 107.836 5.88892C108.191 5.88892 108.558 5.97249 108.928 6.1373L109.02 6.17869V4.04812L108.977 4.0321C108.632 3.90813 108.163 3.8457 107.582 3.8457C106.849 3.8457 106.184 4.00517 105.603 4.3212C105.023 4.63768 104.566 5.08948 104.246 5.66391C103.927 6.23767 103.765 6.90035 103.765 7.63368V9.09323H102.016V11.1163H103.765V19.6392H106.275V11.1163H109.999V16.5324C109.999 18.763 111.05 19.8934 113.125 19.8934C113.466 19.8934 113.824 19.8535 114.191 19.7752C114.564 19.6949 114.818 19.6147 114.967 19.529L115 19.5094V17.4676L114.898 17.5352C114.762 17.626 114.592 17.7002 114.393 17.7554C114.193 17.8116 114.027 17.8398 113.897 17.8398C113.411 17.8398 113.052 17.7088 112.829 17.4503C112.603 17.1894 112.489 16.7333 112.489 16.0952V11.1163H115ZM96.4096 17.8401C95.4984 17.8401 94.78 17.5378 94.2737 16.9425C93.7643 16.3441 93.5062 15.4911 93.5062 14.4072C93.5062 13.2889 93.7643 12.4137 94.2739 11.8048C94.7806 11.1999 95.4921 10.8929 96.3892 10.8929C97.2597 10.8929 97.9526 11.1861 98.449 11.7649C98.9478 12.3466 99.201 13.2148 99.201 14.3461C99.201 15.4913 98.963 16.371 98.4935 16.9594C98.0273 17.5434 97.3262 17.8401 96.4096 17.8401V17.8401ZM96.5212 8.83918C94.7828 8.83918 93.402 9.34873 92.4175 10.3537C91.4336 11.3588 90.9348 12.7497 90.9348 14.4881C90.9348 16.1393 91.4217 17.4674 92.3822 18.435C93.3427 19.4029 94.6498 19.8932 96.267 19.8932C97.9522 19.8932 99.3055 19.3765 100.29 18.3576C101.274 17.3399 101.772 15.9621 101.772 14.2643C101.772 12.5873 101.304 11.2493 100.381 10.2882C99.4578 9.32659 98.1589 8.83918 96.5212 8.83918V8.83918ZM86.8871 8.83918C85.7046 8.83918 84.7264 9.14175 83.9791 9.73833C83.2273 10.3385 82.846 11.1255 82.846 12.078C82.846 12.5731 82.9283 13.0129 83.0903 13.3859C83.2533 13.7601 83.5055 14.0896 83.8405 14.3661C84.173 14.6404 84.6863 14.9278 85.3665 15.2201C85.9383 15.4555 86.3647 15.6545 86.6356 15.8114C86.9003 15.9652 87.0882 16.1198 87.1944 16.2704C87.2975 16.4177 87.3498 16.6193 87.3498 16.8682C87.3498 17.5767 86.8194 17.9214 85.7279 17.9214C85.3231 17.9214 84.8613 17.8369 84.3555 17.6702C83.8532 17.506 83.3792 17.2656 82.95 16.9573L82.8458 16.8825V19.3003L82.884 19.3181C83.2392 19.4821 83.6871 19.6205 84.215 19.7293C84.7418 19.8382 85.2205 19.8936 85.6364 19.8936C86.9196 19.8936 87.953 19.5896 88.707 18.9895C89.4658 18.3852 89.8504 17.5796 89.8504 16.5942C89.8504 15.8833 89.6433 15.2737 89.2353 14.7821C88.83 14.2945 88.1266 13.8468 87.1455 13.4511C86.3639 13.1373 85.8632 12.8768 85.6566 12.6768C85.4575 12.4836 85.3564 12.2104 85.3564 11.8644C85.3564 11.5578 85.4812 11.3121 85.7374 11.1131C85.9956 10.9131 86.355 10.8114 86.8058 10.8114C87.2241 10.8114 87.652 10.8775 88.0777 11.007C88.503 11.1366 88.8765 11.31 89.1883 11.5223L89.2909 11.5924V9.29888L89.2515 9.28197C88.9638 9.15856 88.5845 9.05295 88.1237 8.96727C87.665 8.88214 87.249 8.83918 86.8871 8.83918V8.83918ZM76.3013 17.8401C75.3903 17.8401 74.6716 17.5378 74.1655 16.9425C73.656 16.3441 73.3983 15.4913 73.3983 14.4072C73.3983 13.2889 73.6563 12.4137 74.166 11.8048C74.6722 11.1999 75.3836 10.8929 76.2811 10.8929C77.1513 10.8929 77.8443 11.1861 78.3407 11.7649C78.8397 12.3466 79.0928 13.2148 79.0928 14.3461C79.0928 15.4913 78.8546 16.371 78.3851 16.9594C77.9189 17.5434 77.2182 17.8401 76.3013 17.8401V17.8401ZM76.4132 8.83918C74.6743 8.83918 73.2934 9.34873 72.3094 10.3537C71.3256 11.3588 70.8264 12.7497 70.8264 14.4881C70.8264 16.1399 71.3137 17.4674 72.2742 18.435C73.2347 19.4029 74.5417 19.8932 76.1589 19.8932C77.8438 19.8932 79.1975 19.3765 80.1815 18.3576C81.1653 17.3399 81.664 15.9621 81.664 14.2643C81.664 12.5873 81.1961 11.2493 80.2729 10.2882C79.3492 9.32659 78.0505 8.83918 76.4132 8.83918V8.83918ZM67.0156 10.9196V9.09323H64.5357V19.6389H67.0156V14.2444C67.0156 13.3271 67.2235 12.5735 67.6338 12.0043C68.0388 11.4419 68.5786 11.1569 69.2376 11.1569C69.461 11.1569 69.7117 11.1938 69.9833 11.2666C70.2521 11.3391 70.4467 11.4178 70.5615 11.5006L70.6658 11.5761V9.07521L70.6256 9.05796C70.3947 8.95981 70.0679 8.91029 69.6546 8.91029C69.0314 8.91029 68.4737 9.11059 67.996 9.50497C67.5767 9.85161 67.2737 10.3269 67.042 10.9196H67.0156ZM60.0946 8.83918C58.9569 8.83918 57.9422 9.08322 57.079 9.56428C56.2141 10.0465 55.5451 10.7348 55.09 11.6102C54.6369 12.4834 54.4069 13.5034 54.4069 14.6409C54.4069 15.6373 54.6299 16.5517 55.0708 17.3576C55.5119 18.1648 56.1362 18.7963 56.9265 19.2343C57.7157 19.6718 58.6278 19.8935 59.6376 19.8935C60.8162 19.8935 61.8224 19.6578 62.6292 19.193L62.6618 19.1743V16.9017L62.5575 16.9778C62.1921 17.2441 61.7837 17.4566 61.3443 17.6097C60.906 17.7627 60.5064 17.8401 60.1559 17.8401C59.1829 17.8401 58.4017 17.5355 57.8347 16.935C57.2664 16.3338 56.9783 15.4895 56.9783 14.4271C56.9783 13.358 57.2788 12.4921 57.8709 11.8531C58.4613 11.216 59.2439 10.8929 60.1969 10.8929C61.012 10.8929 61.8063 11.1689 62.5577 11.7142L62.6618 11.7898V9.39514L62.6282 9.37622C62.3454 9.21787 61.9597 9.08711 61.4809 8.98796C61.0041 8.88903 60.5377 8.83918 60.0946 8.83918V8.83918ZM52.6989 9.09335H50.219V19.6389H52.6989V9.09335V9.09335ZM51.4843 4.60085C51.0762 4.60085 50.7202 4.73984 50.4277 5.01526C50.134 5.29146 49.9851 5.63921 49.9851 6.04961C49.9851 6.45356 50.1322 6.79496 50.4232 7.06382C50.7122 7.33189 51.0693 7.46776 51.4844 7.46776C51.8995 7.46776 52.2579 7.33189 52.5504 7.06426C52.8448 6.79496 52.994 6.45367 52.994 6.04961C52.994 5.65356 52.8488 5.30937 52.5625 5.02639C52.2765 4.74396 51.9136 4.60085 51.4843 4.60085ZM45.2968 8.31527V19.6389H47.8277V4.92367H44.3249L39.8726 15.8537L35.5519 4.92367H31.9065V19.6388H34.2848V8.31416H34.3665L38.929 19.6389H40.7238L45.2152 8.31527H45.2968V8.31527Z" fill="#706D6E"/>
<path d="M11.6661 11.6761H0V0.00634766H11.6661V11.6761Z" fill="#F1511B"/>
<path d="M24.5469 11.6761H12.881V0.00634766H24.5469V11.6761Z" fill="#80CC28"/>
<path d="M11.6658 24.5653H0V12.8956H11.6658V24.5653Z" fill="#00ADEF"/>
<path d="M24.5469 24.5653H12.881V12.8956H24.5469V24.5653Z" fill="#FBBC09"/>
</svg>
