<svg width="83" height="30" viewBox="0 0 83 30" fill="none" xmlns="http://www.w3.org/2000/svg">
<path fill-rule="evenodd" clip-rule="evenodd" d="M0 7H8.43166L8.431 15.0871H0V7Z" fill="#F65314"/>
<path fill-rule="evenodd" clip-rule="evenodd" d="M9.29309 7H17.7247C17.7247 9.69569 17.7252 12.3914 17.7243 15.0871C14.9142 15.0866 12.1036 15.0871 9.29358 15.0871C9.2926 12.3914 9.29309 9.69569 9.29309 7Z" fill="#7FBB41"/>
<path fill-rule="evenodd" clip-rule="evenodd" d="M76.0345 10.0816C76.8118 9.59642 77.8162 9.55108 78.6921 9.7823C78.6998 10.2818 78.6931 10.7815 78.6956 11.2811C78.2793 11.1054 77.7895 10.9908 77.3517 11.1632C77.0042 11.2954 76.7974 11.6374 76.7435 11.9792C76.6782 12.4129 76.7206 12.8524 76.7094 13.2887C77.5988 13.2905 78.488 13.2891 79.3772 13.2896C79.3839 12.7359 79.3702 12.1817 79.3849 11.628C79.9895 11.4631 80.5875 11.2778 81.1892 11.104C81.1942 11.8334 81.1821 12.5635 81.1959 13.2935C81.7969 13.2852 82.3986 13.2916 83.0001 13.2896V14.71C82.3965 14.686 81.7923 14.7034 81.1888 14.7015C81.1913 15.5182 81.1892 16.3346 81.1896 17.1514C81.1993 17.6037 81.1645 18.0582 81.2196 18.5091C81.2529 18.7748 81.3538 19.0692 81.6134 19.2066C82.0486 19.4402 82.6006 19.3382 83.0001 19.0818V20.516C82.4789 20.7331 81.8967 20.7993 81.3331 20.7608C80.7981 20.7229 80.2443 20.5365 79.8953 20.1284C79.4922 19.6675 79.3885 19.0433 79.3803 18.4595C79.3757 17.2065 79.3808 15.9533 79.3784 14.6996C78.4885 14.699 77.5988 14.6987 76.7094 14.7001C76.7085 16.6667 76.709 18.6335 76.709 20.6002H74.8854C74.8854 18.6338 74.8828 16.6683 74.8864 14.7022C74.4635 14.6943 74.0402 14.704 73.6174 14.6957C73.6189 14.2291 73.6209 13.7618 73.6163 13.2945C74.0373 13.2852 74.4585 13.2891 74.8805 13.2921C74.9112 12.6712 74.8126 12.0327 75.0061 11.428C75.1695 10.8821 75.5332 10.3895 76.0345 10.0816ZM36.9916 10.1836C37.3592 10.1301 37.7572 10.2505 38.0008 10.5265C38.2866 10.8286 38.3392 11.3094 38.1274 11.6626C37.8934 12.0607 37.3699 12.2458 36.9136 12.1503C36.4401 12.0687 36.0456 11.6465 36.0667 11.1759C36.0532 10.6805 36.4851 10.2389 36.9916 10.1834V10.1836ZM23.0162 10.4002H25.6683C26.4937 12.4107 27.3252 14.4189 28.1517 16.4292C28.3629 16.9321 28.5604 17.4405 28.7817 17.9393C29.8436 15.4273 30.9207 12.9216 31.9745 10.406C32.8249 10.3928 33.6755 10.403 34.5263 10.4011C34.5243 13.8007 34.5253 17.2 34.526 20.5996C33.9122 20.5982 33.2989 20.6046 32.6856 20.5961C32.6921 18.0876 32.6851 15.5789 32.6887 13.0697C32.6897 12.9569 32.6856 12.8441 32.6774 12.7316C32.6414 12.784 32.6097 12.8385 32.5819 12.8949C31.5278 15.4626 30.4538 18.0233 29.4061 20.5936C28.9696 20.6088 28.5326 20.5947 28.0955 20.6013C27.0084 18.0336 25.9347 15.4598 24.853 12.8899C24.8245 12.8364 24.7943 12.7845 24.7612 12.7346C24.739 13.8336 24.7578 14.9337 24.7518 16.033C24.7521 17.5552 24.7508 19.0774 24.7521 20.5996C24.1734 20.601 23.5947 20.5996 23.0162 20.6002C23.0157 17.2 23.0152 13.8 23.0162 10.4002ZM42.0102 13.2829C42.8901 13.0424 43.8393 13.0521 44.7189 13.2905C44.9002 13.3392 45.0757 13.4066 45.2391 13.4985C45.2288 14.0556 45.2391 14.6132 45.2334 15.1709C44.6453 14.74 43.8995 14.467 43.1521 14.5574C42.5584 14.6088 41.9924 14.9042 41.6375 15.3641C41.181 15.9343 41.0757 16.6915 41.1544 17.3891C41.2131 17.9349 41.4484 18.4805 41.8911 18.8424C42.3509 19.2342 42.9954 19.3731 43.5971 19.3295C44.1917 19.2639 44.7529 19.0223 45.2334 18.6852C45.2384 19.2132 45.2308 19.7412 45.2375 20.2692C44.4919 20.6948 43.5982 20.8044 42.7448 20.7644C41.8718 20.72 41.0013 20.4029 40.3693 19.8142C39.6826 19.1793 39.3099 18.2739 39.2657 17.3673C39.2212 16.4244 39.4212 15.4408 39.987 14.6535C40.4609 13.9817 41.2024 13.5062 42.0102 13.2829ZM61.9295 13.1716C62.7728 13.0292 63.6555 13.1337 64.4534 13.4237C64.4545 13.96 64.4534 14.4956 64.4539 15.0314C63.8964 14.6637 63.2152 14.4659 62.5386 14.4888C62.1979 14.5015 61.8232 14.64 61.6677 14.9508C61.5441 15.2582 61.6298 15.6614 61.9322 15.8455C62.449 16.1773 63.0659 16.3182 63.6016 16.6153C64.0234 16.8427 64.4326 17.1398 64.6465 17.5684C65.0481 18.3707 64.878 19.4311 64.1718 20.0295C63.498 20.6336 62.5271 20.8007 61.6343 20.7687C61.0003 20.7293 60.3633 20.6093 59.7804 20.3605C59.783 19.7968 59.7768 19.2333 59.7833 18.6698C60.2736 19.0113 60.8392 19.2556 61.4378 19.3547C61.8546 19.4197 62.308 19.4228 62.6963 19.244C63.068 19.0667 63.1347 18.56 62.9141 18.2501C62.7074 18.0112 62.404 17.8797 62.118 17.7505C61.5807 17.5188 61.016 17.3249 60.5441 16.9778C60.2123 16.7295 59.9611 16.3798 59.863 15.9853C59.7171 15.404 59.7626 14.7487 60.115 14.2407C60.5176 13.6485 61.217 13.2935 61.9295 13.1716ZM49.3165 13.4019C49.8197 13.1119 50.4594 13.0876 51.0089 13.265C51.0064 13.8483 51.0089 14.4314 51.0074 15.0148C50.6478 14.7916 50.1991 14.6957 49.7749 14.7371C49.2571 14.7934 48.8469 15.1746 48.6345 15.612C48.4034 16.0747 48.3599 16.5982 48.3745 17.1044C48.3745 18.2695 48.3751 19.4349 48.3745 20.6002H46.5767C46.5753 18.1648 46.5789 15.729 46.5753 13.2935C47.1753 13.2861 47.7755 13.2891 48.3756 13.292C48.3731 13.7103 48.3756 14.1283 48.3741 14.5472C48.5691 14.0921 48.8592 13.6501 49.3165 13.4018V13.4019ZM36.2324 13.292C36.837 13.2896 37.4423 13.284 38.0468 13.2949C38.0398 15.7301 38.0465 18.1652 38.0439 20.6002H36.2334C36.2319 18.1643 36.234 15.7284 36.2324 13.2921V13.292ZM54.3648 13.1571C55.24 13.0502 56.163 13.0979 56.9754 13.4524C57.6803 13.7574 58.2515 14.3213 58.568 14.9966C58.9056 15.715 58.9878 16.5226 58.9306 17.3022C58.8743 18.0631 58.6252 18.8258 58.1289 19.4305C57.6211 20.0727 56.8555 20.5078 56.0355 20.6695C55.3345 20.8095 54.6013 20.8088 53.9004 20.6677C53.0619 20.4956 52.2855 20.0289 51.7937 19.3499C51.2166 18.563 51.0525 17.5626 51.1258 16.6196C51.1754 15.8196 51.4347 15.0134 51.9676 14.3859C52.551 13.683 53.4459 13.2683 54.3648 13.1571ZM54.9086 14.5453C54.4728 14.5685 54.0322 14.71 53.709 14.9993C53.2634 15.3865 53.0597 15.9635 53.0046 16.5244C52.9438 17.1414 52.9878 17.7917 53.2817 18.3541C53.51 18.7908 53.9298 19.1339 54.4245 19.2586C54.9108 19.3795 55.4398 19.3693 55.9109 19.1958C56.3133 19.0454 56.6324 18.7276 56.8068 18.3517C57.0699 17.7941 57.0959 17.1671 57.0635 16.5654C57.0184 16.0153 56.8555 15.4389 56.4339 15.0416C56.0401 14.6593 55.4567 14.5108 54.9086 14.5453ZM68.8993 13.1545C69.8092 13.0465 70.7755 13.105 71.606 13.5073C72.3303 13.8546 72.8918 14.4822 73.1721 15.2077C73.3916 15.7629 73.4686 16.3622 73.4557 16.9533C73.4573 17.8363 73.2087 18.7426 72.6309 19.443C72.0901 20.1211 71.2627 20.5618 70.389 20.7001C69.5348 20.8327 68.6322 20.7983 67.8205 20.4918C66.9982 20.1815 66.3146 19.548 65.968 18.7679C65.6071 17.9729 65.569 17.0782 65.6815 16.2287C65.7994 15.379 66.2006 14.5486 66.8842 13.9837C67.4444 13.5122 68.1654 13.2451 68.8993 13.1545ZM69.3915 14.5467C68.887 14.5738 68.3867 14.7823 68.0606 15.1591C67.7031 15.5629 67.5495 16.0956 67.508 16.6148C67.4651 17.1509 67.508 17.7062 67.7242 18.2074C67.9041 18.6281 68.2456 18.9938 68.6858 19.1726C69.0942 19.3412 69.5541 19.3712 69.9904 19.3086C70.3972 19.2512 70.7912 19.0648 71.0561 18.7588C71.3188 18.4543 71.4575 18.0705 71.5273 17.6858C71.6156 17.1695 71.6166 16.6377 71.5122 16.1238C71.4197 15.6857 71.2175 15.2505 70.8523 14.96C70.4566 14.6264 69.9065 14.5123 69.3915 14.5467Z" fill="#787878"/>
<path fill-rule="evenodd" clip-rule="evenodd" d="M0 15.9121C2.81055 15.9131 5.62111 15.9118 8.43166 15.9131C8.43215 18.6087 8.43166 21.304 8.43166 23.9997H0V15.9121Z" fill="#00A1F1"/>
<path fill-rule="evenodd" clip-rule="evenodd" d="M9.29346 15.9132C12.1035 15.9122 14.9141 15.9127 17.7246 15.9127V23.9998H9.29297C9.29346 21.3041 9.29248 18.6084 9.29346 15.9132Z" fill="#FFBB00"/>
</svg>
