<svg width="115" height="25" viewBox="0 0 115 25" fill="none" xmlns="http://www.w3.org/2000/svg">
<g clip-path="url(#clip0_2_37)">
<path d="M115 11.1128V9.09039H112.489V5.94625L112.404 5.97228L110.045 6.69405L109.998 6.70817V9.09051H106.275V7.76334C106.275 7.14537 106.413 6.67246 106.686 6.35708C106.956 6.04548 107.343 5.88707 107.836 5.88707C108.191 5.88707 108.558 5.97061 108.928 6.13537L109.02 6.17675V4.04684L108.977 4.03082C108.632 3.90689 108.163 3.84448 107.582 3.84448C106.849 3.84448 106.184 4.0039 105.603 4.31984C105.022 4.63622 104.566 5.08788 104.246 5.66213C103.927 6.23571 103.765 6.89818 103.765 7.63129V9.09039H102.016V11.1128H103.765V19.6331H106.275V11.1128H109.998V16.5273C109.998 18.7572 111.05 19.8873 113.125 19.8873C113.466 19.8873 113.824 19.8473 114.191 19.7691C114.564 19.6888 114.818 19.6086 114.967 19.5229L115 19.5033V17.4622L114.898 17.5297C114.762 17.6205 114.592 17.6947 114.393 17.7499C114.193 17.8061 114.026 17.8342 113.897 17.8342C113.411 17.8342 113.052 17.7033 112.829 17.4449C112.603 17.1841 112.489 16.7281 112.489 16.0902V11.1128H115ZM96.4096 17.8345C95.4984 17.8345 94.7799 17.5324 94.2737 16.9372C93.7643 16.3391 93.5062 15.4863 93.5062 14.4027C93.5062 13.2848 93.7643 12.4099 94.2739 11.8011C94.7805 11.1964 95.492 10.8895 96.3891 10.8895C97.2596 10.8895 97.9526 11.1826 98.4489 11.7612C98.9478 12.3428 99.201 13.2107 99.201 14.3416C99.201 15.4865 98.9629 16.3659 98.4934 16.9541C98.0272 17.538 97.3261 17.8345 96.4096 17.8345ZM96.5212 8.83642C94.7827 8.83642 93.4019 9.34582 92.4174 10.3505C91.4336 11.3552 90.9347 12.7457 90.9347 14.4836C90.9347 16.1343 91.4217 17.462 92.3822 18.4293C93.3427 19.3969 94.6498 19.887 96.267 19.887C97.9521 19.887 99.3054 19.3705 100.29 18.3519C101.273 17.3345 101.772 15.9572 101.772 14.2599C101.772 12.5834 101.304 11.2458 100.381 10.285C99.4577 9.32368 98.1588 8.83642 96.5212 8.83642ZM86.8871 8.83642C85.7045 8.83642 84.7263 9.1389 83.9791 9.73529C83.2273 10.3352 82.8459 11.1221 82.8459 12.0742C82.8459 12.5692 82.9283 13.0088 83.0902 13.3817C83.2532 13.7558 83.5054 14.0852 83.8405 14.3617C84.173 14.6359 84.6863 14.9231 85.3664 15.2154C85.9382 15.4507 86.3646 15.6497 86.6355 15.8065C86.9003 15.9603 87.0882 16.1148 87.1943 16.2653C87.2974 16.4126 87.3497 16.6142 87.3497 16.8629C87.3497 17.5712 86.8193 17.9159 85.7279 17.9159C85.323 17.9159 84.8613 17.8313 84.3554 17.6647C83.8532 17.5005 83.3792 17.2602 82.9499 16.952L82.8457 16.8773V19.2943L82.884 19.3121C83.2392 19.4761 83.6871 19.6144 84.2149 19.7232C84.7418 19.8321 85.2205 19.8875 85.6363 19.8875C86.9195 19.8875 87.9529 19.5836 88.7069 18.9836C89.4657 18.3795 89.8503 17.5741 89.8503 16.589C89.8503 15.8784 89.6433 15.269 89.2352 14.7775C88.83 14.29 88.1266 13.8425 87.1455 13.4469C86.3639 13.1332 85.8631 12.8728 85.6566 12.6728C85.4574 12.4797 85.3563 12.2066 85.3563 11.8608C85.3563 11.5542 85.4811 11.3085 85.7373 11.1096C85.9955 10.9097 86.355 10.808 86.8057 10.808C87.224 10.808 87.652 10.8741 88.0776 11.0036C88.5029 11.1331 88.8765 11.3065 89.1883 11.5187L89.2908 11.5888V9.29598L89.2515 9.27907C88.9638 9.1557 88.5844 9.05012 88.1237 8.96446C87.665 8.87936 87.2489 8.83642 86.8871 8.83642ZM76.3012 17.8345C75.3902 17.8345 74.6716 17.5324 74.1654 16.9372C73.6559 16.3391 73.3983 15.4865 73.3983 14.4027C73.3983 13.2848 73.6562 12.4099 74.166 11.8011C74.6721 11.1964 75.3836 10.8895 76.2811 10.8895C77.1513 10.8895 77.8442 11.1826 78.3407 11.7612C78.8396 12.3428 79.0927 13.2107 79.0927 14.3416C79.0927 15.4865 78.8545 16.3659 78.3851 16.9541C77.9189 17.538 77.2181 17.8345 76.3012 17.8345ZM76.4131 8.83642C74.6743 8.83642 73.2934 9.34582 72.3094 10.3505C71.3255 11.3552 70.8264 12.7457 70.8264 14.4836C70.8264 16.1349 71.3136 17.462 72.2741 18.4293C73.2346 19.3969 74.5416 19.887 76.1588 19.887C77.8438 19.887 79.1974 19.3705 80.1815 18.3519C81.1652 17.3345 81.6639 15.9572 81.6639 14.2599C81.6639 12.5834 81.196 11.2458 80.2728 10.285C79.3491 9.32368 78.0505 8.83642 76.4131 8.83642ZM67.0155 10.9162V9.09039H64.5356V19.6328H67.0155V14.24C67.0155 13.323 67.2234 12.5696 67.6337 12.0006C68.0388 11.4384 68.5785 11.1535 69.2376 11.1535C69.4609 11.1535 69.7117 11.1903 69.9832 11.2631C70.252 11.3356 70.4467 11.4142 70.5615 11.497L70.6657 11.5725V9.07237L70.6256 9.05513C70.3946 8.95701 70.0679 8.90751 69.6545 8.90751C69.0313 8.90751 68.4736 9.10775 67.9959 9.502C67.5767 9.84854 67.2736 10.3237 67.0419 10.9162H67.0155ZM60.0946 8.83642C58.9569 8.83642 57.9421 9.08038 57.0789 9.5613C56.214 10.0433 55.5451 10.7315 55.09 11.6066C54.6369 12.4795 54.4068 13.4992 54.4068 14.6363C54.4068 15.6324 54.6299 16.5465 55.0707 17.3522C55.5118 18.1592 56.1361 18.7905 56.9264 19.2283C57.7156 19.6657 58.6277 19.8874 59.6376 19.8874C60.8161 19.8874 61.8223 19.6517 62.6291 19.1871L62.6617 19.1684V16.8964L62.5575 16.9725C62.192 17.2387 61.7836 17.4512 61.3442 17.6043C60.9059 17.7572 60.5063 17.8345 60.1559 17.8345C59.1828 17.8345 58.4016 17.5301 57.8346 16.9298C57.2664 16.3287 56.9783 15.4847 56.9783 14.4226C56.9783 13.3539 57.2787 12.4882 57.8709 11.8494C58.4613 11.2125 59.2439 10.8895 60.1968 10.8895C61.0119 10.8895 61.8062 11.1655 62.5577 11.7106L62.6617 11.7861V9.3922L62.6281 9.37329C62.3453 9.21499 61.9596 9.08428 61.4808 8.98516C61.004 8.88626 60.5377 8.83642 60.0946 8.83642ZM52.6988 9.09051H50.219V19.6328H52.6988V9.09051ZM51.4843 4.5994C51.0761 4.5994 50.7201 4.73834 50.4277 5.01368C50.134 5.28979 49.985 5.63743 49.985 6.04771C49.985 6.45153 50.1322 6.79283 50.4231 7.0616C50.7121 7.32959 51.0692 7.46543 51.4844 7.46543C51.8994 7.46543 52.2579 7.32959 52.5503 7.06205C52.8447 6.79283 52.994 6.45164 52.994 6.04771C52.994 5.65178 52.8487 5.3077 52.5625 5.0248C52.2764 4.74246 51.9136 4.5994 51.4843 4.5994ZM45.2968 8.31267V19.6328H47.8276V4.92212H44.3248L39.8725 15.8488L35.5519 4.92212H31.9064V19.6327H34.2848V8.31156H34.3664L38.9289 19.6328H40.7238L45.2151 8.31267H45.2968Z" fill="#001935"/>
<path d="M11.6661 11.6725H0V0.00634766H11.6661V11.6725Z" fill="#001935"/>
<path d="M24.5468 11.6725H12.8809V0.00634766H24.5468V11.6725Z" fill="#001935"/>
<path d="M11.6658 24.5576H0V12.8916H11.6658V24.5576Z" fill="#001935"/>
<path d="M24.5468 24.5576H12.8809V12.8916H24.5468V24.5576Z" fill="#001935"/>
</g>
<defs>
<clipPath id="clip0_2_37">
<rect width="115" height="24.564" fill="white"/>
</clipPath>
</defs>
</svg>
