<svg width="50" height="22" viewBox="0 0 50 22" fill="none" xmlns="http://www.w3.org/2000/svg">
<path fill-rule="evenodd" clip-rule="evenodd" d="M13.3187 1.84898C14.3153 1.84898 17.0691 1.98011 15.2945 7.1992C13.428 12.6718 9.29732 11.5484 9.29732 11.5484L12.3396 1.84898H13.3231H13.3187ZM20.7103 7.54889C23.0401 1.8009 18.6908 0.240417 15.8452 0.240417L6.44737 0.24916C7.22979 0.782434 7.09866 1.49929 6.94567 1.93203L1.47306 19.4383C1.2545 20.1289 0.432739 20.8589 0 20.9725H7.60571C7.18608 20.8982 6.59161 20.2994 6.8058 19.4864L8.79465 13.157C8.79465 13.157 17.9477 14.394 20.7103 7.54889" fill="#233E99"/>
<path fill-rule="evenodd" clip-rule="evenodd" d="M23.7919 18.2799C23.4903 18.4635 22.3014 19.0667 21.1867 19.1716C20.1552 19.2678 18.4373 18.8656 18.4373 16.8025C18.4373 15.0322 20.3606 13.7471 21.3966 13.2881C21.8293 15.006 22.7778 16.9336 23.7875 18.2799H23.7919ZM26.7861 7.12924C26.5238 8.79463 24.3645 10.4819 23.84 10.7092C23.7482 9.77376 23.7875 8.29196 24.5743 7.08116C25.0901 6.27688 25.7764 5.92719 26.3359 6.11952C26.7774 6.27251 26.8342 6.68339 26.7905 7.12487L26.7861 7.12924ZM26.7992 20.9638H31.909C30.2699 20.4305 27.8527 18.8919 26.8866 17.786C27.6691 16.9336 28.6307 15.8671 28.8056 13.6859H26.1479C26.1479 13.6859 26.6637 13.9788 26.6637 14.6038C26.6637 15.1808 26.4321 15.972 25.9862 16.5402C25.2081 15.3906 24.3733 14.0749 24.0891 12.1429C25.1251 11.6227 26.5894 11.0632 27.7565 10.0448C28.8536 9.07438 29.1072 8.16956 29.129 7.57072V7.49642C29.129 6.87572 28.8842 6.29436 28.434 5.84851C27.6691 5.0792 26.4539 4.77322 25.1863 5.00926C24.1591 5.20159 23.2892 5.74798 22.8565 6.15012C21.3048 7.59258 21.1081 9.98794 21.1081 11.0676C21.1081 11.3255 21.1168 11.5309 21.1299 11.6446C21.0425 11.6752 20.8851 11.7408 20.8851 11.7408C19.7574 12.1516 16.7413 12.9603 15.6617 15.4387C15.5262 15.7534 15.3295 16.4266 15.3295 17.2221C15.3295 17.8996 15.4781 18.6602 15.9108 19.3552C16.6714 20.5398 17.9652 21.2916 20.024 21.2523C22.2708 21.2129 24.4738 19.6874 24.8716 19.4077C25.2606 19.7661 26.266 20.7102 26.7992 20.9594" fill="#233E99"/>
<path fill-rule="evenodd" clip-rule="evenodd" d="M42.3516 1.86647C45.3938 1.1365 47.8985 3.51875 48.1345 3.68048L49.0044 0.917947C47.7936 0.559517 39.0689 -2.39535 32.9056 4.65086C29.1115 8.97825 28.1805 17.8559 32.993 20.2338C38.1422 22.7778 43.829 19.8404 44.2399 19.635L46.6003 12.1473C46.8494 11.2425 47.4264 10.6524 48.4361 10.2765H40.2622C41.4599 10.7791 41.3724 11.6752 41.2719 12.0424L38.9246 19.5301C38.6143 19.5956 32.0445 21.2261 35.725 9.73445C36.5161 7.26478 38.7323 2.73632 42.3516 1.86647" fill="#233E99"/>
</svg>
