<svg width="49" height="22" viewBox="0 0 49 22" fill="none" xmlns="http://www.w3.org/2000/svg">
<g clip-path="url(#clip0_2_59)">
<path d="M19.4119 21.9889C17.74 21.8961 16.4924 21.1862 15.7628 19.9125C15.2733 19.0575 15.1244 17.933 15.3483 16.784C15.5965 15.5108 16.439 14.3636 17.7321 13.5384C18.4752 13.0638 19.1112 12.7693 20.4063 12.2996C20.7319 12.1815 21.0129 12.0728 21.0311 12.0576C21.057 12.0364 21.0607 11.9611 21.0477 11.7166C21.0105 11.0211 21.1229 9.93756 21.3133 9.15561C21.6335 7.83972 22.2497 6.77816 23.0675 6.13425C23.6545 5.6716 24.4241 5.32373 25.1902 5.17457C25.6133 5.09241 26.3218 5.09266 26.72 5.17533C28.4259 5.52978 29.3834 6.88662 29.0063 8.41538C28.9269 8.73771 28.676 9.26609 28.4636 9.55834C27.9195 10.3072 27.1009 10.9731 25.945 11.6066C25.7997 11.6865 25.3239 11.9277 24.8881 12.1431C24.4522 12.3582 24.082 12.5486 24.0649 12.5663C24.0406 12.5913 24.0468 12.6644 24.0938 12.9101C24.3106 14.0463 24.6752 15.0062 25.2977 16.0796C25.5452 16.5069 25.8874 17.0456 25.9264 17.0707C25.9828 17.1066 26.2131 16.7225 26.3632 16.3426C26.5489 15.8723 26.6553 15.2504 26.6028 14.9415C26.5651 14.7203 26.448 14.4867 26.2986 14.3357C26.23 14.266 26.1731 14.2 26.1729 14.1891C26.1726 14.1785 26.7528 14.1724 27.4626 14.1762L28.753 14.183L28.7456 14.3519C28.7356 14.5827 28.6525 15.075 28.5651 15.4254C28.3183 16.4106 27.8533 17.2532 27.0495 18.1734C26.9547 18.2819 26.877 18.3883 26.877 18.4101C26.877 18.4318 27.0103 18.5827 27.173 18.7456C28.189 19.7619 29.9887 20.9339 31.4541 21.5333C31.5964 21.5917 31.7126 21.6511 31.7121 21.6653C31.7116 21.6825 30.8656 21.6936 29.2398 21.6982L26.7682 21.7047L26.6276 21.6231C26.3405 21.4565 25.7047 20.9263 25.0939 20.3438C24.9645 20.2205 24.842 20.1196 24.8217 20.1196C24.8014 20.1196 24.6576 20.2058 24.5027 20.3112C23.7092 20.8512 22.7608 21.3364 21.9586 21.6124C21.0462 21.9267 20.2931 22.0379 19.4119 21.9891V21.9889ZM21.4929 19.7793C21.8628 19.7113 22.3173 19.5728 22.7353 19.4006C23.1555 19.2277 23.6763 18.9632 23.6949 18.9132C23.7023 18.8934 23.606 18.7273 23.4813 18.5438C22.9063 17.6984 22.2921 16.5094 21.8792 15.4431C21.7271 15.0499 21.4429 14.1793 21.3885 13.9406C21.3714 13.8645 21.3403 13.7955 21.3194 13.7871C21.2619 13.7644 20.7897 14.024 20.3818 14.3031C18.9319 15.2949 18.2368 16.5056 18.3912 17.7707C18.4598 18.333 18.6323 18.7428 18.9461 19.0889C19.5263 19.7285 20.4333 19.9745 21.4929 19.7793ZM23.9539 10.9824C24.4905 10.6583 25.3416 9.87133 25.8176 9.25952C26.4269 8.47656 26.7508 7.74593 26.7511 7.15334C26.7511 6.81457 26.7045 6.66288 26.5526 6.50614C26.4015 6.35041 26.2309 6.28594 25.9705 6.28569C25.1978 6.28569 24.3621 7.23222 23.998 8.52004C23.8143 9.16927 23.7697 9.51865 23.7684 10.3117C23.7675 10.9175 23.777 11.0522 23.8211 11.0522C23.8307 11.0522 23.8905 11.0209 23.9539 10.9824ZM36.7338 21.9737C35.4606 21.8415 34.6215 21.6451 33.6748 21.2583C32.3866 20.7314 31.5822 20.0789 30.9028 19.0097C30.6995 18.6897 30.3732 18.0177 30.2413 17.6463C29.6521 15.9917 29.5228 13.9085 29.8738 11.7353C30.2293 9.53584 31.0391 7.41601 32.1563 5.75908C32.881 4.68462 33.9592 3.55304 35.0723 2.69853C36.9102 1.28784 39.0258 0.420688 41.3761 0.115796C42.0891 0.0232666 42.4884 -0.000497774 43.3305 7.85081e-06C44.6042 0.000766288 45.5744 0.10088 46.8555 0.363552C47.6728 0.53142 48.9748 0.893953 48.9998 0.960948C49.0125 0.994825 48.1876 3.72293 48.1535 3.75958C48.143 3.77096 48.0163 3.68374 47.8725 3.56492C46.7139 2.61181 45.5132 2.03161 44.299 1.83871C43.9111 1.77703 43.1822 1.77627 42.802 1.8372C41.0997 2.10922 39.5215 3.23146 38.1203 5.16623C37.6651 5.79472 37.1636 6.6371 36.7735 7.42789C36.2451 8.49982 35.8817 9.44736 35.5142 10.7145C34.3436 14.7458 34.2843 17.5624 35.3378 19.0871C35.7717 19.7153 36.406 20.1155 37.2109 20.2685C37.6729 20.3565 38.7945 20.3031 38.9063 20.1881C38.9241 20.1699 39.4717 18.402 40.1229 16.2594C41.1931 12.74 41.3087 12.3431 41.321 12.1436C41.3372 11.8756 41.2889 11.6362 41.172 11.4056C41.0659 11.1961 40.7857 10.9116 40.5546 10.7794C40.4549 10.7223 40.3731 10.6667 40.3728 10.6561C40.3726 10.6454 42.1679 10.6366 44.3629 10.6366C46.5576 10.6366 48.3535 10.6454 48.3532 10.6561C48.3532 10.6667 48.2559 10.7215 48.1371 10.7774C47.5158 11.0707 47.0655 11.5101 46.7977 12.085C46.7396 12.2093 46.2374 13.8192 45.483 16.2983L44.2622 20.3105L43.9094 20.4849C42.4725 21.1966 40.7146 21.709 38.9611 21.9277C38.639 21.9682 37.0036 22.0018 36.7341 21.9737H36.7338ZM0.00124006 21.6805C-0.00684494 21.6673 0.0463201 21.621 0.119085 21.5778C0.552735 21.3202 1.03955 20.7857 1.24584 20.3403C1.30562 20.2114 6.77965 2.22122 6.90044 1.7563C6.92175 1.67489 6.93964 1.50298 6.93988 1.37455C6.9416 0.982184 6.82351 0.699287 6.54543 0.427767C6.46948 0.353693 6.4075 0.282147 6.4075 0.268748C6.4075 0.233101 15.9662 0.236135 16.4045 0.272034C17.3536 0.349648 18.3037 0.610044 19.0304 0.991286C20.2711 1.64228 21.0139 2.63027 21.2423 3.93301C21.306 4.29555 21.3182 5.10202 21.266 5.49236C21.0534 7.08356 20.3546 8.77134 19.4033 9.99242C17.8622 11.9704 15.3419 13.2352 12.2488 13.5831C11.2683 13.6933 10.0328 13.7212 9.15787 13.6524C8.90503 13.6324 8.69286 13.6215 8.68649 13.6281C8.65537 13.6605 6.6819 20.1944 6.65936 20.3403C6.58978 20.79 6.8142 21.2957 7.20106 21.5606C7.27749 21.613 7.33335 21.6668 7.32551 21.6799C7.30591 21.7126 0.0205951 21.7128 0.000995057 21.6802L0.00124006 21.6805ZM10.8513 11.9757C11.5699 11.8443 12.204 11.5697 12.8157 11.1255C13.1129 10.9099 13.7234 10.2806 13.9753 9.93048C14.6054 9.05499 15.069 8.022 15.4429 6.66137C15.681 5.79422 15.7824 5.13362 15.7822 4.4528C15.7822 3.92796 15.7361 3.61447 15.6082 3.26281C15.4184 2.741 15.0317 2.32866 14.5405 2.12389C14.1186 1.94793 13.7585 1.90166 12.8922 1.91203L12.239 1.91961L10.7207 6.90811C9.88601 9.65189 9.20736 11.91 9.21299 11.9262C9.21887 11.9424 9.32374 11.9697 9.44574 11.9869C9.56824 12.0041 9.68511 12.0223 9.70593 12.0276C9.80099 12.0516 10.6472 12.0134 10.8513 11.976V11.9757Z" fill="#001935"/>
</g>
<defs>
<clipPath id="clip0_2_59">
<rect width="49" height="22" fill="white"/>
</clipPath>
</defs>
</svg>
