<svg width="44" height="48" viewBox="0 0 44 48" fill="none" xmlns="http://www.w3.org/2000/svg">
<path d="M11 5.3V2H33V5.3H11ZM3.795 11.9V8.6H40.205V11.9H3.795ZM3.3 46C2.42 46 1.65 45.67 0.99 45.01C0.33 44.35 0 43.58 0 42.7V18.5C0 17.62 0.33 16.85 0.99 16.19C1.65 15.53 2.42 15.2 3.3 15.2H40.7C41.58 15.2 42.35 15.53 43.01 16.19C43.67 16.85 44 17.62 44 18.5V42.7C44 43.58 43.67 44.35 43.01 45.01C42.35 45.67 41.58 46 40.7 46H3.3ZM3.3 42.7H40.7V18.5H3.3V42.7ZM17.985 38.795L30.14 30.6L17.985 22.46V38.795ZM3.3 18.5V42.7V18.5Z" fill="#F2C811"/>
</svg>
