<svg width="12" height="22" viewBox="0 0 12 22" fill="none" xmlns="http://www.w3.org/2000/svg">
<path d="M5.97917 21.2838C4.39931 21.2838 3.04948 20.7418 1.92969 19.6577C0.809896 18.5736 0.25 17.2424 0.25 15.664V4.47643C0.25 3.36635 0.644965 2.42104 1.4349 1.64052C2.22483 0.85999 3.17535 0.469727 4.28646 0.469727C5.41493 0.469727 6.36979 0.85999 7.15104 1.64052C7.93229 2.42104 8.32292 3.37502 8.32292 4.50245V14.7534C8.32292 15.4125 8.09722 15.9719 7.64583 16.4315C7.19444 16.8912 6.63889 17.121 5.97917 17.121C5.31944 17.121 4.76389 16.8738 4.3125 16.3795C3.86111 15.8851 3.63542 15.2997 3.63542 14.6233V4.4244H4.67708V14.7013C4.67708 15.0829 4.80295 15.4082 5.05469 15.677C5.30642 15.9458 5.61458 16.0803 5.97917 16.0803C6.34375 16.0803 6.65191 15.9502 6.90365 15.69C7.15538 15.4298 7.28125 15.1176 7.28125 14.7534V4.47643C7.28125 3.64387 6.99045 2.9414 6.40885 2.36901C5.82726 1.79662 5.11979 1.51043 4.28646 1.51043C3.45312 1.51043 2.74566 1.79662 2.16406 2.36901C1.58247 2.9414 1.29167 3.64387 1.29167 4.47643V15.716C1.29167 16.9822 1.75174 18.0533 2.67187 18.9292C3.59201 19.8051 4.69444 20.2431 5.97917 20.2431C7.28125 20.2431 8.38802 19.8008 9.29948 18.9162C10.2109 18.0316 10.6667 16.9475 10.6667 15.664V4.4244H11.7083V15.638C11.7083 17.2164 11.1484 18.5519 10.0286 19.6447C8.90885 20.7374 7.55903 21.2838 5.97917 21.2838Z" fill="black"/>
</svg>
