<svg width="13" height="16" viewBox="0 0 13 16" fill="none" xmlns="http://www.w3.org/2000/svg">
<path fill-rule="evenodd" clip-rule="evenodd" d="M1.26202 1.2619C1.40667 1.11726 1.64118 1.11726 1.78583 1.2619L11.7382 11.2143C11.8829 11.3589 11.8829 11.5934 11.7382 11.7381C11.5936 11.8827 11.359 11.8827 11.2144 11.7381L1.26202 1.78571C1.11738 1.64107 1.11738 1.40655 1.26202 1.2619Z" fill="#FF0000" stroke="#FF0000" stroke-width="0.5" stroke-linecap="round"/>
<path fill-rule="evenodd" clip-rule="evenodd" d="M1.26202 11.7381C1.40667 11.8827 1.64118 11.8827 1.78583 11.7381L11.7382 1.78571C11.8829 1.64107 11.8829 1.40655 11.7382 1.26191C11.5936 1.11726 11.359 1.11726 11.2144 1.26191L1.26202 11.2143C1.11738 11.3589 1.11738 11.5934 1.26202 11.7381Z" fill="#FF0000" stroke="#FF0000" stroke-width="0.5" stroke-linecap="round"/>
<line x1="5.68248e-08" y1="15.35" x2="13" y2="15.35" stroke="#FF0000" stroke-width="1.3"/>
</svg>
