<svg width="35" height="35" viewBox="0 0 35 35" fill="none" xmlns="http://www.w3.org/2000/svg">
<path d="M7 21.0437H20.6938V18.4187H7V21.0437ZM7 15.3562H28V12.7312H7V15.3562ZM7 9.66875H28V7.04375H7V9.66875ZM0 35V2.625C0 1.95417 0.2625 1.34896 0.7875 0.809375C1.3125 0.269792 1.925 0 2.625 0H32.375C33.0458 0 33.651 0.269792 34.1906 0.809375C34.7302 1.34896 35 1.95417 35 2.625V25.375C35 26.0458 34.7302 26.651 34.1906 27.1906C33.651 27.7302 33.0458 28 32.375 28H7L0 35ZM2.625 28.6562L5.90625 25.375H32.375V2.625H2.625V28.6562ZM2.625 2.625V25.375V28.6562V2.625Z" fill="#001935"/>
</svg>
