<svg width="44" height="48" viewBox="0 0 44 48" fill="none" xmlns="http://www.w3.org/2000/svg">
<path d="M40.4311 21.2133L39.3067 18.7689L36.8622 17.6444L39.3067 16.52L40.4311 14.0756L41.5556 16.52L44 17.6444L41.5556 18.7689L40.4311 21.2133ZM34.2222 12.6578L32.5111 9.04L28.8933 7.32889L32.5111 5.61778L34.2222 2L35.9333 5.61778L39.5511 7.32889L35.9333 9.04L34.2222 12.6578ZM14.6667 45.0222C13.5585 45.0222 12.6215 44.6393 11.8556 43.8733C11.0896 43.1074 10.7067 42.1704 10.7067 41.0622H18.6267C18.6267 42.1704 18.2437 43.1074 17.4778 43.8733C16.7119 44.6393 15.7748 45.0222 14.6667 45.0222ZM6.74667 38.0311V35.0978H22.5867V38.0311H6.74667ZM6.99111 32.1156C4.84 30.7141 3.13704 28.9622 1.88222 26.86C0.627408 24.7578 0 22.3867 0 19.7467C0 15.7704 1.45037 12.3319 4.35111 9.43111C7.25185 6.53037 10.6904 5.08 14.6667 5.08C18.643 5.08 22.0815 6.53037 24.9822 9.43111C27.883 12.3319 29.3333 15.7704 29.3333 19.7467C29.3333 22.3867 28.7141 24.7578 27.4756 26.86C26.237 28.9622 24.5259 30.7141 22.3422 32.1156H6.99111ZM8.06667 29.1822H21.3156C22.88 28.1393 24.1185 26.7867 25.0311 25.1244C25.9437 23.4622 26.4 21.6696 26.4 19.7467C26.4 16.52 25.2511 13.7578 22.9533 11.46C20.6556 9.16222 17.8933 8.01333 14.6667 8.01333C11.44 8.01333 8.67778 9.16222 6.38 11.46C4.08222 13.7578 2.93333 16.52 2.93333 19.7467C2.93333 21.6696 3.38963 23.4622 4.30222 25.1244C5.21482 26.7867 6.46963 28.1393 8.06667 29.1822Z" fill="#F2C811"/>
</svg>
