<svg width="21" height="14" viewBox="0 0 21 14" fill="none" xmlns="http://www.w3.org/2000/svg">
<path d="M8.85938 5.0625C8.85938 4.67578 9.14062 4.35938 9.5625 4.35938H10.125C10.5117 4.35938 10.8281 4.67578 10.8281 5.0625V7.45312H10.9688C11.3555 7.45312 11.6719 7.76953 11.6719 8.15625C11.6719 8.54297 11.3555 8.85938 10.9688 8.85938H9.28125C8.85938 8.85938 8.57812 8.54297 8.57812 8.15625C8.57812 7.76953 8.85938 7.45312 9.28125 7.45312H9.42188V5.76562C9.07031 5.69531 8.85938 5.41406 8.85938 5.0625ZM18 0C19.2305 0 20.25 1.01953 20.25 2.25V11.25C20.25 12.5156 19.2305 13.5 18 13.5H2.25C0.984375 13.5 0 12.5156 0 11.25V2.25C0 1.01953 0.984375 0 2.25 0H18ZM4.5 11.25C4.5 10.0195 3.48047 9 2.25 9V11.25H4.5ZM2.25 4.5C3.48047 4.5 4.5 3.51562 4.5 2.25H2.25V4.5ZM18 11.25V9C16.7344 9 15.75 10.0195 15.75 11.25H18ZM18 2.25H15.75C15.75 3.51562 16.7344 4.5 18 4.5V2.25ZM10.125 2.8125C7.94531 2.8125 6.1875 4.60547 6.1875 6.75C6.1875 8.92969 7.94531 10.6875 10.125 10.6875C12.2695 10.6875 14.0625 8.92969 14.0625 6.75C14.0625 4.60547 12.2695 2.8125 10.125 2.8125Z" fill="#001935"/>
</svg>
