<svg width="24" height="24" viewBox="0 0 24 24" fill="none" xmlns="http://www.w3.org/2000/svg">
<circle cx="12" cy="12" r="12" fill="black"/>
<path d="M15.56 7.64004C15.4018 7.64004 15.2471 7.68696 15.1156 7.77487C14.984 7.86277 14.8815 7.98771 14.8209 8.13389C14.7604 8.28007 14.7445 8.44093 14.7754 8.59611C14.8063 8.7513 14.8825 8.89384 14.9944 9.00573C15.1062 9.11761 15.2488 9.1938 15.404 9.22467C15.5592 9.25554 15.72 9.23969 15.8662 9.17914C16.0124 9.11859 16.1373 9.01606 16.2252 8.8845C16.3131 8.75294 16.36 8.59827 16.36 8.44004C16.36 8.22787 16.2758 8.02438 16.1257 7.87436C15.9757 7.72433 15.7722 7.64004 15.56 7.64004V7.64004ZM18.6267 9.25337C18.6137 8.70024 18.5101 8.15298 18.32 7.63337C18.1505 7.1888 17.8867 6.78623 17.5467 6.45337C17.2166 6.11166 16.8131 5.84949 16.3667 5.68671C15.8485 5.49081 15.3006 5.38485 14.7467 5.37337C14.04 5.33337 13.8134 5.33337 12 5.33337C10.1867 5.33337 9.96004 5.33337 9.25337 5.37337C8.69948 5.38485 8.1516 5.49081 7.63337 5.68671C7.18782 5.85114 6.78466 6.11308 6.45337 6.45337C6.11166 6.78349 5.84949 7.187 5.68671 7.63337C5.49081 8.1516 5.38485 8.69948 5.37337 9.25337C5.33337 9.96004 5.33337 10.1867 5.33337 12C5.33337 13.8134 5.33337 14.04 5.37337 14.7467C5.38485 15.3006 5.49081 15.8485 5.68671 16.3667C5.84949 16.8131 6.11166 17.2166 6.45337 17.5467C6.78466 17.887 7.18782 18.1489 7.63337 18.3134C8.1516 18.5093 8.69948 18.6152 9.25337 18.6267C9.96004 18.6667 10.1867 18.6667 12 18.6667C13.8134 18.6667 14.04 18.6667 14.7467 18.6267C15.3006 18.6152 15.8485 18.5093 16.3667 18.3134C16.8131 18.1506 17.2166 17.8884 17.5467 17.5467C17.8882 17.2151 18.1523 16.8122 18.32 16.3667C18.5101 15.8471 18.6137 15.2998 18.6267 14.7467C18.6267 14.04 18.6667 13.8134 18.6667 12C18.6667 10.1867 18.6667 9.96004 18.6267 9.25337V9.25337ZM17.4267 14.6667C17.4219 15.0899 17.3452 15.5092 17.2 15.9067C17.0936 16.1968 16.9226 16.459 16.7 16.6734C16.4838 16.8937 16.2222 17.0643 15.9334 17.1734C15.5358 17.3185 15.1166 17.3952 14.6934 17.4C14.0267 17.4334 13.78 17.44 12.0267 17.44C10.2734 17.44 10.0267 17.44 9.36004 17.4C8.92063 17.4083 8.4831 17.3406 8.06671 17.2C7.79056 17.0854 7.54094 16.9152 7.33337 16.7C7.1121 16.4859 6.94327 16.2235 6.84004 15.9334C6.67728 15.5301 6.587 15.1013 6.57337 14.6667C6.57337 14 6.53337 13.7534 6.53337 12C6.53337 10.2467 6.53337 10 6.57337 9.33337C6.57636 8.90074 6.65534 8.472 6.80671 8.06671C6.92407 7.78531 7.10422 7.53448 7.33337 7.33337C7.53592 7.10415 7.78623 6.9221 8.06671 6.80004C8.47307 6.6534 8.90137 6.57676 9.33337 6.57337C10 6.57337 10.2467 6.53337 12 6.53337C13.7534 6.53337 14 6.53337 14.6667 6.57337C15.0899 6.57823 15.5092 6.65487 15.9067 6.80004C16.2097 6.91248 16.4816 7.09527 16.7 7.33337C16.9185 7.53816 17.0892 7.78853 17.2 8.06671C17.3482 8.47266 17.4249 8.90123 17.4267 9.33337C17.46 10 17.4667 10.2467 17.4667 12C17.4667 13.7534 17.46 14 17.4267 14.6667ZM12 8.58004C11.3239 8.58136 10.6633 8.78306 10.1018 9.15965C9.54027 9.53625 9.10296 10.0708 8.84513 10.6959C8.5873 11.3209 8.52052 12.0084 8.65324 12.6713C8.78595 13.3343 9.1122 13.9431 9.59076 14.4207C10.0693 14.8983 10.6787 15.2234 11.3419 15.3548C12.0052 15.4862 12.6925 15.4181 13.317 15.1591C13.9416 14.9 14.4753 14.4617 14.8508 13.8994C15.2263 13.3371 15.4267 12.6762 15.4267 12C15.4276 11.5501 15.3395 11.1044 15.1675 10.6887C14.9956 10.2729 14.7431 9.89525 14.4246 9.57741C14.1062 9.25957 13.728 9.00783 13.3119 8.83666C12.8958 8.66549 12.45 8.57828 12 8.58004V8.58004ZM12 14.22C11.561 14.22 11.1318 14.0898 10.7667 13.8459C10.4016 13.602 10.1171 13.2552 9.94903 12.8496C9.781 12.4439 9.73704 11.9976 9.8227 11.5669C9.90836 11.1363 10.1198 10.7407 10.4303 10.4303C10.7407 10.1198 11.1363 9.90836 11.5669 9.8227C11.9976 9.73704 12.4439 9.781 12.8496 9.94903C13.2552 10.1171 13.602 10.4016 13.8459 10.7667C14.0898 11.1318 14.22 11.561 14.22 12C14.22 12.2916 14.1626 12.5803 14.0511 12.8496C13.9395 13.1189 13.776 13.3637 13.5698 13.5698C13.3637 13.776 13.1189 13.9395 12.8496 14.0511C12.5803 14.1626 12.2916 14.22 12 14.22V14.22Z" fill="white"/>
</svg>
