<?xml version="1.0" encoding="UTF-8" standalone="no"?>
<svg
   width="24"
   height="24"
   viewBox="0 0 24 24"
   fill="none"
   version="1.1"
   id="svg692"
   sodipodi:docname="instagram.svg"
   inkscape:version="1.1 (c4e8f9e, 2021-05-24)"
   xmlns:inkscape="http://www.inkscape.org/namespaces/inkscape"
   xmlns:sodipodi="http://sodipodi.sourceforge.net/DTD/sodipodi-0.dtd"
   xmlns="http://www.w3.org/2000/svg"
   xmlns:svg="http://www.w3.org/2000/svg">
  <defs
     id="defs696" />
  <sodipodi:namedview
     id="namedview694"
     pagecolor="#ffffff"
     bordercolor="#666666"
     borderopacity="1.0"
     inkscape:pageshadow="2"
     inkscape:pageopacity="0.0"
     inkscape:pagecheckerboard="0"
     showgrid="false"
     inkscape:zoom="14.792533"
     inkscape:cx="16.731415"
     inkscape:cy="15.548385"
     inkscape:window-width="1296"
     inkscape:window-height="810"
     inkscape:window-x="0"
     inkscape:window-y="23"
     inkscape:window-maximized="0"
     inkscape:current-layer="svg692" />
  <path
     style="color:#000000;fill:#000000;-inkscape-stroke:none"
     d="M 24,12 A 12,12 0 0 1 12,24 12,12 0 0 1 0,12 12,12 0 0 1 12,0 12,12 0 0 1 24,12 Z"
     id="circle688" />
  <path
     style="color:#000000;fill:#ffffff;-inkscape-stroke:none"
     d="m 12.0142,8.62456 c -1.8702,0 -3.36042,1.51944 -3.36042,3.36034 0,1.8702 1.49022,3.3604 3.36042,3.3604 1.8409,0 3.3604,-1.4902 3.3604,-3.3604 0,-1.8409 -1.5195,-3.36034 -3.3604,-3.36034 z m 0,5.55194 c -1.1981,0 -2.19159,-0.9643 -2.19159,-2.1916 0,-1.198 0.96429,-2.16229 2.19159,-2.16229 1.198,0 2.1623,0.96429 2.1623,2.16229 0,1.2273 -0.9643,2.1916 -2.1623,2.1916 z m 4.2662,-5.66883 c 0,-0.43831 -0.3506,-0.78896 -0.789,-0.78896 -0.4383,0 -0.7889,0.35065 -0.7889,0.78896 0,0.43831 0.3506,0.78896 0.7889,0.78896 0.4384,0 0.789,-0.35065 0.789,-0.78896 z m 2.2208,0.78896 C 18.4427,8.24469 18.209,7.30962 17.4492,6.54988 16.6895,5.79014 15.7544,5.55637 14.7025,5.49793 13.6213,5.43949 10.3778,5.43949 9.29663,5.49793 8.24469,5.55637 7.33884,5.79014 6.54988,6.54988 5.79014,7.30962 5.55637,8.24469 5.49793,9.29663 c -0.05844,1.08117 -0.05844,4.32467 0,5.40587 0.05844,1.0519 0.29221,1.9578 1.05195,2.7467 0.78896,0.7598 1.69481,0.9935 2.74675,1.052 1.08117,0.0584 4.32467,0.0584 5.40587,0 1.0519,-0.0585 1.987,-0.2922 2.7467,-1.052 0.7598,-0.7889 0.9935,-1.6948 1.052,-2.7467 0.0584,-1.0812 0.0584,-4.3247 0,-5.40587 z m -1.4026,6.54547 c -0.2046,0.5844 -0.6721,1.0227 -1.2273,1.2565 -0.8766,0.3506 -2.9221,0.263 -3.8571,0.263 -0.9643,0 -3.00977,0.0876 -3.85718,-0.263 C 7.57261,16.8648 7.1343,16.4265 6.90053,15.8421 6.54988,14.9947 6.63754,12.9492 6.63754,11.9849 6.63754,11.0499 6.54988,9.00443 6.90053,8.1278 7.1343,7.57261 7.57261,7.1343 8.15702,6.90053 9.00443,6.54988 11.0499,6.63754 12.0142,6.63754 c 0.935,0 2.9805,-0.08766 3.8571,0.26299 0.5552,0.20455 0.9935,0.67208 1.2273,1.22727 0.3506,0.87663 0.263,2.9221 0.263,3.8571 0,0.9643 0.0876,3.0098 -0.263,3.8572 z"
     id="path690" />
</svg>
