<?xml version="1.0" encoding="UTF-8" standalone="no"?>
<svg
   width="24"
   height="24"
   viewBox="0 0 24 24"
   fill="none"
   version="1.1"
   id="svg349"
   sodipodi:docname="linkedin.svg"
   inkscape:version="1.1 (c4e8f9e, 2021-05-24)"
   xmlns:inkscape="http://www.inkscape.org/namespaces/inkscape"
   xmlns:sodipodi="http://sodipodi.sourceforge.net/DTD/sodipodi-0.dtd"
   xmlns="http://www.w3.org/2000/svg"
   xmlns:svg="http://www.w3.org/2000/svg">
  <defs
     id="defs353" />
  <sodipodi:namedview
     id="namedview351"
     pagecolor="#ffffff"
     bordercolor="#666666"
     borderopacity="1.0"
     inkscape:pageshadow="2"
     inkscape:pageopacity="0.0"
     inkscape:pagecheckerboard="0"
     showgrid="false"
     inkscape:zoom="13.761088"
     inkscape:cx="15.078749"
     inkscape:cy="15.224087"
     inkscape:window-width="1312"
     inkscape:window-height="809"
     inkscape:window-x="0"
     inkscape:window-y="23"
     inkscape:window-maximized="0"
     inkscape:current-layer="svg349" />
  <path
     style="color:#000000;fill:#000000;-inkscape-stroke:none"
     d="M 24,12 A 12,12 0 0 1 12,24 12,12 0 0 1 0,12 12,12 0 0 1 12,0 12,12 0 0 1 24,12 Z"
     id="circle345" />
  <path
     style="color:#000000;fill:#ffffff;-inkscape-stroke:none"
     d="M 9.22447,17.4541 V 9.42726 H 6.7334 V 17.4541 Z M 7.96554,8.35343 c 0.80357,0 1.44643,-0.67114 1.44643,-1.47651 0,-0.77852 -0.64286,-1.42282 -1.44643,-1.42282 -0.77678,0 -1.41964,0.6443 -1.41964,1.42282 0,0.80537 0.64286,1.47651 1.41964,1.47651 z M 18.5191,17.4541 h 0.0268 v -4.4027 c 0,-2.1476 -0.4821,-3.81206 -3,-3.81206 -1.2054,0 -2.0089,0.67114 -2.3571,1.28856 H 13.162 V 9.42726 h -2.384 v 8.02684 h 2.4911 v -3.9732 c 0,-1.0469 0.1875,-2.0402 1.4732,-2.0402 1.2857,0 1.3125,1.1812 1.3125,2.1208 v 3.8926 z"
     id="path347" />
</svg>
