<svg width="24" height="24" viewBox="0 0 24 24" fill="none" xmlns="http://www.w3.org/2000/svg">
<circle cx="12" cy="12" r="12" fill="black"/>
<path d="M7.32201 8.79795C8.12761 8.79795 8.78068 8.14488 8.78068 7.33928C8.78068 6.53368 8.12761 5.88062 7.32201 5.88062C6.51641 5.88062 5.86334 6.53368 5.86334 7.33928C5.86334 8.14488 6.51641 8.79795 7.32201 8.79795Z" fill="white"/>
<path d="M10.158 9.90337V17.996H12.6707V13.994C12.6707 12.938 12.8694 11.9154 14.1787 11.9154C15.47 11.9154 15.486 13.1227 15.486 14.0607V17.9967H18V13.5587C18 11.3787 17.5307 9.70337 14.9827 9.70337C13.7594 9.70337 12.9394 10.3747 12.604 11.01H12.57V9.90337H10.158V9.90337ZM6.06335 9.90337H8.58002V17.996H6.06335V9.90337Z" fill="white"/>
</svg>
