<svg width="24" height="24" viewBox="0 0 24 24" fill="none" xmlns="http://www.w3.org/2000/svg">
<circle cx="12" cy="12" r="12" fill="black"/>
<path d="M9.22447 17.4541V9.42726H6.7334V17.4541H9.22447ZM7.96554 8.35343C8.76911 8.35343 9.41197 7.68229 9.41197 6.87692C9.41197 6.0984 8.76911 5.4541 7.96554 5.4541C7.18876 5.4541 6.5459 6.0984 6.5459 6.87692C6.5459 7.68229 7.18876 8.35343 7.96554 8.35343ZM18.5191 17.4541H18.5459V13.0514C18.5459 10.9038 18.0638 9.23934 15.5459 9.23934C14.3405 9.23934 13.537 9.91048 13.1888 10.5279H13.162V9.42726H10.778V17.4541H13.2691V13.4809C13.2691 12.434 13.4566 11.4407 14.7423 11.4407C16.028 11.4407 16.0548 12.6219 16.0548 13.5615V17.4541H18.5191Z" fill="white"/>
</svg>
