<svg width="23" height="18" viewBox="0 0 23 18" fill="none" xmlns="http://www.w3.org/2000/svg">
<path d="M12.9375 0C13.8516 0 14.625 0.773438 14.625 1.6875V3.375H16.3828C16.9805 3.375 17.543 3.62109 18 4.04297L20.707 6.75C21.1289 7.17188 21.375 7.76953 21.375 8.36719V12.375C21.9727 12.375 22.5 12.9023 22.5 13.5C22.5 14.1328 21.9727 14.625 21.375 14.625H20.25C20.25 16.4883 18.7383 18 16.875 18C14.9766 18 13.5 16.4883 13.5 14.625H9C9 16.4883 7.48828 18 5.625 18C3.72656 18 2.25 16.4883 2.25 14.625H1.6875C0.738281 14.625 0 13.8867 0 12.9375V1.6875C0 0.773438 0.738281 0 1.6875 0H12.9375ZM14.625 5.625V9H19.125V8.36719L16.3828 5.625H14.625ZM5.625 12.9375C4.67578 12.9375 3.9375 13.7109 3.9375 14.625C3.9375 15.5742 4.67578 16.3125 5.625 16.3125C6.53906 16.3125 7.3125 15.5742 7.3125 14.625C7.3125 13.7109 6.53906 12.9375 5.625 12.9375ZM16.875 16.3125C17.7891 16.3125 18.5625 15.5742 18.5625 14.625C18.5625 13.7109 17.7891 12.9375 16.875 12.9375C15.9258 12.9375 15.1875 13.7109 15.1875 14.625C15.1875 15.5742 15.9258 16.3125 16.875 16.3125Z" fill="#001935"/>
</svg>
