<svg width="15" height="14" viewBox="0 0 15 14" fill="none" xmlns="http://www.w3.org/2000/svg">
<path d="M2.8125 13.9375H4.6875C5.18555 13.9375 5.625 13.5273 5.625 13C5.625 12.502 5.18555 12.0625 4.6875 12.0625H2.8125C2.28516 12.0625 1.875 11.6523 1.875 11.125V3.625C1.875 3.12695 2.28516 2.6875 2.8125 2.6875H4.6875C5.18555 2.6875 5.625 2.27734 5.625 1.75C5.625 1.25195 5.18555 0.8125 4.6875 0.8125H2.8125C1.23047 0.8125 0 2.07227 0 3.625V11.125C0 12.6777 1.23047 13.9375 2.8125 13.9375ZM14.7656 6.87695L10.5469 2.89258C10.3418 2.6875 10.0488 2.6582 9.78516 2.74609C9.52148 2.86328 9.375 3.12695 9.375 3.39062V5.5H5.625C5.09766 5.5 4.6875 5.93945 4.6875 6.4375V8.3125C4.6875 8.83984 5.09766 9.25 5.625 9.25H9.375V11.3594C9.375 11.623 9.52148 11.8867 9.78516 12.0039C10.0488 12.0918 10.3418 12.0625 10.5469 11.8574L14.7656 7.87305C15.0586 7.63867 15.0586 7.14062 14.7656 6.87695Z" fill="#001935"/>
</svg>
