<svg width="23" height="18" viewBox="0 0 23 18" fill="none" xmlns="http://www.w3.org/2000/svg">
<path d="M10.0552 5.20312C10.0903 5.41406 10.1255 5.66016 10.1255 5.90625C10.1255 6.1875 10.0903 6.43359 10.0552 6.64453L10.8286 7.34766C11.0747 7.55859 11.1802 7.91016 11.0395 8.22656C10.9692 8.40234 10.8638 8.61328 10.7935 8.78906L10.688 8.96484C10.5474 9.14062 10.4419 9.31641 10.3364 9.49219C10.1255 9.73828 9.77392 9.84375 9.45752 9.73828L8.47314 9.38672C8.08642 9.70312 7.66455 9.94922 7.20752 10.125L6.96142 11.1445C6.92627 11.4961 6.64502 11.7422 6.32861 11.7773C6.08252 11.8125 5.83642 11.8125 5.62549 11.8125C5.37939 11.8125 5.1333 11.8125 4.8872 11.7773C4.5708 11.7422 4.28955 11.4961 4.25439 11.1445L4.0083 10.125C3.55127 9.94922 3.12939 9.70312 2.74267 9.38672L1.7583 9.73828C1.44189 9.84375 1.09033 9.73828 0.879392 9.49219C0.773924 9.31641 0.633299 9.14062 0.52783 8.96484L0.422361 8.78906C0.352049 8.61328 0.24658 8.40234 0.176267 8.22656C0.0356423 7.91016 0.141111 7.55859 0.387205 7.34766L1.16064 6.64453C1.12549 6.43359 1.09033 6.1875 1.09033 5.90625C1.09033 5.66016 1.12549 5.41406 1.16064 5.20312L0.387205 4.5C0.141111 4.25391 0.0356423 3.90234 0.176267 3.62109C0.24658 3.41016 0.352049 3.23438 0.422361 3.05859L0.52783 2.88281C0.633299 2.70703 0.773924 2.53125 0.879392 2.35547C1.09033 2.10938 1.44189 2.00391 1.7583 2.10938L2.74267 2.46094C3.12939 2.14453 3.55127 1.89844 4.0083 1.72266L4.25439 0.703125C4.28955 0.351562 4.5708 0.105469 4.8872 0.0703125C5.1333 0.0351562 5.37939 0 5.62549 0C5.83642 0 6.08252 0.0351562 6.32861 0.0703125C6.64502 0.105469 6.92627 0.351562 6.96142 0.703125L7.20752 1.72266C7.66455 1.89844 8.08642 2.14453 8.47314 2.46094L9.45752 2.10938C9.77392 2.00391 10.1255 2.10938 10.3364 2.35547C10.4419 2.53125 10.5474 2.70703 10.688 2.88281L10.7935 3.05859C10.8638 3.23438 10.9692 3.41016 11.0395 3.62109C11.1802 3.90234 11.0747 4.25391 10.8286 4.5L10.0552 5.20312ZM5.62549 4.21875C4.67627 4.21875 3.93799 4.99219 3.93799 5.90625C3.93799 6.85547 4.67627 7.59375 5.62549 7.59375C6.53955 7.59375 7.31299 6.85547 7.31299 5.90625C7.31299 4.99219 6.53955 4.21875 5.62549 4.21875ZM17.0161 16.5586C16.8052 16.5938 16.5591 16.5938 16.313 16.5938C16.0317 16.5938 15.7856 16.5938 15.5747 16.5586L14.8716 17.332C14.6255 17.5781 14.3091 17.6836 13.9927 17.543C13.8169 17.4727 13.606 17.3672 13.4302 17.2969L13.2544 17.1562C13.0786 17.0508 12.9028 16.9453 12.727 16.8398C12.481 16.6289 12.3755 16.2773 12.481 15.9609L12.8325 14.9766C12.5161 14.5898 12.27 14.168 12.0942 13.6758L11.0747 13.4648C10.7231 13.3945 10.477 13.1484 10.4419 12.832C10.4067 12.5859 10.4067 12.3398 10.4067 12.0938C10.4067 11.8828 10.4067 11.6367 10.4419 11.3906C10.477 11.0742 10.7231 10.793 11.0747 10.7227L12.0942 10.5117C12.27 10.0547 12.5161 9.63281 12.8325 9.24609L12.481 8.26172C12.3755 7.94531 12.481 7.59375 12.727 7.38281C12.9028 7.27734 13.0786 7.13672 13.2544 7.03125L13.4302 6.92578C13.606 6.85547 13.7817 6.75 13.9927 6.67969C14.3091 6.53906 14.6255 6.64453 14.8716 6.89062L15.5747 7.66406C15.7856 7.62891 16.0317 7.59375 16.313 7.59375C16.5591 7.59375 16.8052 7.62891 17.0161 7.66406L17.7192 6.89062C17.9653 6.64453 18.2817 6.53906 18.5981 6.67969C18.8091 6.75 18.9849 6.85547 19.1606 6.92578L19.3364 7.03125C19.5122 7.13672 19.688 7.27734 19.8638 7.38281C20.1099 7.59375 20.2153 7.94531 20.1099 8.26172L19.7583 9.24609C20.0747 9.63281 20.3208 10.0547 20.4966 10.5117L21.5161 10.7227C21.8677 10.793 22.1138 11.0742 22.1489 11.3906C22.1841 11.6367 22.2192 11.8828 22.2192 12.0938C22.2192 12.3398 22.1841 12.5859 22.1489 12.832C22.1138 13.1484 21.8677 13.3945 21.5161 13.4648L20.4966 13.6758C20.3208 14.168 20.0747 14.5898 19.7583 14.9766L20.1099 15.9609C20.2153 16.2773 20.1099 16.6289 19.8638 16.8398C19.688 16.9453 19.5122 17.0508 19.3364 17.1562L19.1606 17.2969C18.9849 17.3672 18.7739 17.4727 18.5981 17.543C18.2817 17.6836 17.9653 17.5781 17.7192 17.332L17.0161 16.5586ZM18.0005 12.0938C18.0005 11.1797 17.227 10.4062 16.313 10.4062C15.3638 10.4062 14.6255 11.1797 14.6255 12.0938C14.6255 13.043 15.3638 13.7812 16.313 13.7812C17.227 13.7812 18.0005 13.043 18.0005 12.0938Z" fill="#001935"/>
</svg>
