<svg width="30" height="30" viewBox="0 0 30 30" fill="none" xmlns="http://www.w3.org/2000/svg">
<path d="M29.9631 22.6263L28.5558 28.537C28.3799 29.4148 27.6763 30 26.7967 30C12.0204 29.9415 0 17.9445 0 3.19703C0 2.3192 0.527725 1.61694 1.40727 1.44138L7.32952 0.0368552C8.15042 -0.13871 9.02997 0.329464 9.38178 1.09025L12.1377 7.46912C12.4309 8.2299 12.255 9.10773 11.61 9.5759L8.44361 12.1509C10.4372 16.1889 13.7209 19.4661 17.8254 21.4558L20.4054 18.2956C20.8745 17.7104 21.754 17.4763 22.5163 17.769L28.9076 20.5195C29.6699 20.9291 30.139 21.807 29.9631 22.6263Z" fill="#001935"/>
</svg>
