<svg width="30" height="31" viewBox="0 0 30 31" fill="none" xmlns="http://www.w3.org/2000/svg">
<path d="M15 0.75C6.67969 0.75 0 7.48828 0 15.75C0 24.0703 6.67969 30.75 15 30.75C23.2617 30.75 30 24.0703 30 15.75C30 7.48828 23.2617 0.75 15 0.75ZM15 8.25C17.2852 8.25 19.2188 10.1836 19.2188 12.4688C19.2188 14.8125 17.2852 16.6875 15 16.6875C12.6562 16.6875 10.7812 14.8125 10.7812 12.4688C10.7812 10.1836 12.6562 8.25 15 8.25ZM15 27C11.8945 27 9.08203 25.7695 7.03125 23.7188C7.96875 21.2578 10.3125 19.5 13.125 19.5H16.875C19.6289 19.5 21.9727 21.2578 22.9102 23.7188C20.8594 25.7695 18.0469 27 15 27Z" fill="#C5CAD3"/>
</svg>
