<svg width="28" height="35" viewBox="0 0 28 35" fill="none" xmlns="http://www.w3.org/2000/svg">
<path d="M2.625 35C1.925 35 1.3125 34.7375 0.7875 34.2125C0.2625 33.6875 0 33.075 0 32.375V2.625C0 1.925 0.2625 1.3125 0.7875 0.7875C1.3125 0.2625 1.925 0 2.625 0H18.4187L28 9.58125V32.375C28 33.075 27.7375 33.6875 27.2125 34.2125C26.6875 34.7375 26.075 35 25.375 35H2.625ZM2.625 9.58125V2.625V32.375V9.58125ZM12.6875 29.7063V27.9563H8.75V25.3313H16.625V22.2688H10.0625C9.68333 22.2688 9.36979 22.1448 9.12187 21.8969C8.87396 21.649 8.75 21.3354 8.75 20.9563V15.2688C8.75 14.8896 8.87396 14.576 9.12187 14.3281C9.36979 14.0802 9.68333 13.9563 10.0625 13.9563H12.6875V12.2063H15.3125V13.9563H19.25V16.5813H11.375V19.6438H17.9375C18.3167 19.6438 18.6302 19.7677 18.8781 20.0156C19.126 20.2635 19.25 20.5771 19.25 20.9563V26.6438C19.25 27.0229 19.126 27.3365 18.8781 27.5844C18.6302 27.8323 18.3167 27.9563 17.9375 27.9563H15.3125V29.7063H12.6875ZM16.2312 9.58125V2.625H2.625V32.375H25.375V9.58125H16.2312Z" fill="#001935"/>
</svg>
