<svg width="21" height="18" viewBox="0 0 21 18" fill="none" xmlns="http://www.w3.org/2000/svg">
<path d="M6.01172 6.73477H14.2031L11.3203 1.25039C11.1094 0.828519 11.2852 0.301176 11.6719 0.0902381C12.0938 -0.120699 12.6211 0.0550819 12.832 0.441801L16.1016 6.73477H19.125C19.7227 6.73477 20.25 7.26211 20.25 7.85977C20.25 8.49258 19.7227 8.98477 19.125 8.98477L17.2969 16.2973C17.0156 17.2816 16.1367 17.9848 15.1172 17.9848H5.09766C4.07812 17.9848 3.19922 17.2816 2.91797 16.2973L1.125 8.98477C0.492188 8.98477 0 8.49258 0 7.85977C0 7.26211 0.492188 6.73477 1.125 6.73477H4.11328L7.38281 0.441801C7.59375 0.0550819 8.12109 -0.120699 8.54297 0.0902381C8.92969 0.301176 9.10547 0.828519 8.89453 1.25039L6.01172 6.73477ZM6.71484 10.6723C6.71484 10.391 6.46875 10.1098 6.15234 10.1098C5.87109 10.1098 5.58984 10.391 5.58984 10.6723V14.0473C5.58984 14.3637 5.87109 14.6098 6.15234 14.6098C6.46875 14.6098 6.71484 14.3637 6.71484 14.0473V10.6723ZM9.52734 10.6723V14.0473C9.52734 14.3637 9.80859 14.6098 10.0898 14.6098C10.4062 14.6098 10.6875 14.3637 10.6875 14.0473V10.6723C10.6875 10.391 10.4062 10.1098 10.0898 10.1098C9.80859 10.1098 9.52734 10.391 9.52734 10.6723ZM14.625 10.6723C14.625 10.391 14.3438 10.1098 14.0625 10.1098C13.7461 10.1098 13.5 10.391 13.5 10.6723V14.0473C13.5 14.3637 13.7461 14.6098 14.0625 14.6098C14.3438 14.6098 14.625 14.3637 14.625 14.0473V10.6723Z" fill="#001935"/>
</svg>
