<svg width="28" height="28" viewBox="0 0 28 28" fill="none" xmlns="http://www.w3.org/2000/svg">
<path d="M20.8829 24.5H7.93288V9.56669L16.0412 1.16669L17.1787 2.07085C17.2954 2.16808 17.3829 2.30419 17.4412 2.47919C17.4995 2.65419 17.5287 2.86808 17.5287 3.12085V3.41252L16.2162 9.56669H24.937C25.4037 9.56669 25.812 9.74169 26.162 10.0917C26.512 10.4417 26.687 10.85 26.687 11.3167V13.7084C26.687 13.8445 26.7016 13.9854 26.7308 14.1313C26.76 14.2771 26.7454 14.4181 26.687 14.5542L23.012 23.0125C22.837 23.4209 22.5502 23.7709 22.1516 24.0625C21.753 24.3542 21.3301 24.5 20.8829 24.5ZM9.68288 22.75H21.262L24.937 14.0292V11.3167H14.0579L15.6037 4.05419L9.68288 10.2959V22.75ZM9.68288 10.2959V11.3167V14.0292V22.75V10.2959ZM7.93288 9.56669V11.3167H4.05371V22.75H7.93288V24.5H2.30371V9.56669H7.93288Z" fill="#001935"/>
</svg>
