<svg width="28" height="28" viewBox="0 0 28 28" fill="none" xmlns="http://www.w3.org/2000/svg">
<path d="M7.11712 3.49998L20.0671 3.49998L20.0671 18.4333L11.9588 26.8333L10.8213 25.9291C10.7046 25.8319 10.6171 25.6958 10.5588 25.5208C10.5005 25.3458 10.4713 25.1319 10.4713 24.8791V24.5875L11.7838 18.4333L3.06296 18.4333C2.59629 18.4333 2.18796 18.2583 1.83796 17.9083C1.48796 17.5583 1.31296 17.15 1.31296 16.6833V14.2916C1.31296 14.1555 1.29837 14.0146 1.26921 13.8687C1.24004 13.7229 1.25462 13.5819 1.31296 13.4458L4.98796 4.98748C5.16296 4.57915 5.44976 4.22915 5.84838 3.93748C6.24699 3.64581 6.6699 3.49998 7.11712 3.49998ZM18.3171 5.24998L6.73796 5.24998L3.06296 13.9708V16.6833L13.9421 16.6833L12.3963 23.9458L18.3171 17.7041L18.3171 5.24998ZM18.3171 17.7041V16.6833V13.9708L18.3171 5.24998L18.3171 17.7041ZM20.0671 18.4333V16.6833H23.9463L23.9463 5.24998H20.0671V3.49998H25.6963L25.6963 18.4333H20.0671Z" fill="#001935"/>
</svg>
