<svg width="24" height="24" viewBox="0 0 24 24" fill="none" xmlns="http://www.w3.org/2000/svg">
<circle cx="12" cy="12" r="12" fill="black"/>
<path d="M18.3953 8.80205C18.3194 8.52031 18.171 8.26338 17.9649 8.05682C17.7588 7.85027 17.5022 7.70129 17.2206 7.62471C16.1766 7.33805 12 7.33338 12 7.33338C12 7.33338 7.82398 7.32871 6.77931 7.60271C6.49793 7.68281 6.24186 7.8339 6.03569 8.04147C5.82952 8.24904 5.68017 8.50613 5.60198 8.78805C5.32664 9.83205 5.32398 11.9974 5.32398 11.9974C5.32398 11.9974 5.32131 14.1734 5.59464 15.2067C5.74798 15.778 6.19798 16.2294 6.76998 16.3834C7.82464 16.67 11.99 16.6747 11.99 16.6747C11.99 16.6747 16.1666 16.6794 17.2106 16.406C17.4923 16.3296 17.7491 16.181 17.9557 15.9748C18.1623 15.7687 18.3116 15.5122 18.3886 15.2307C18.6646 14.1874 18.6666 12.0227 18.6666 12.0227C18.6666 12.0227 18.68 9.84605 18.3953 8.80205V8.80205ZM10.664 14.0034L10.6673 10.0034L14.1386 12.0067L10.664 14.0034V14.0034Z" fill="white"/>
</svg>
