<?xml version="1.0" encoding="UTF-8" standalone="no"?>
<svg
   width="24"
   height="24"
   viewBox="0 0 24 24"
   fill="none"
   version="1.1"
   id="svg551"
   sodipodi:docname="youtube.svg"
   inkscape:version="1.1 (c4e8f9e, 2021-05-24)"
   xmlns:inkscape="http://www.inkscape.org/namespaces/inkscape"
   xmlns:sodipodi="http://sodipodi.sourceforge.net/DTD/sodipodi-0.dtd"
   xmlns="http://www.w3.org/2000/svg"
   xmlns:svg="http://www.w3.org/2000/svg">
  <defs
     id="defs555" />
  <sodipodi:namedview
     id="namedview553"
     pagecolor="#ffffff"
     bordercolor="#666666"
     borderopacity="1.0"
     inkscape:pageshadow="2"
     inkscape:pageopacity="0.0"
     inkscape:pagecheckerboard="0"
     showgrid="false"
     inkscape:zoom="12.951377"
     inkscape:cx="16.098674"
     inkscape:cy="15.480979"
     inkscape:window-width="1312"
     inkscape:window-height="809"
     inkscape:window-x="0"
     inkscape:window-y="23"
     inkscape:window-maximized="0"
     inkscape:current-layer="svg551" />
  <path
     style="color:#000000;fill:#000000;-inkscape-stroke:none"
     d="M 24,12 A 12,12 0 0 1 12,24 12,12 0 0 1 0,12 12,12 0 0 1 12,0 12,12 0 0 1 24,12 Z"
     id="circle547" />
  <path
     style="color:#000000;fill:#ffffff;-inkscape-stroke:none"
     d="M 19.301,8.22553 C 19.1334,7.56469 18.6029,7.04153 17.9608,6.87632 16.7602,6.5459 12.0136,6.5459 12.0136,6.5459 c 0,0 -4.77447,0 -5.97507,0.33042 C 5.39635,7.04153 4.86586,7.56469 4.69833,8.22553 4.36328,9.382 4.36328,11.8601 4.36328,11.8601 c 0,0 0,2.4507 0.33505,3.6347 0.16753,0.6608 0.69802,1.1564 1.3402,1.3216 1.2006,0.3029 5.97507,0.3029 5.97507,0.3029 0,0 4.7466,0 5.9472,-0.3029 0.6421,-0.1652 1.1726,-0.6608 1.3402,-1.3216 0.335,-1.184 0.335,-3.6347 0.335,-3.6347 0,0 0,-2.4781 -0.335,-3.63457 z M 10.45,14.0905 V 9.62981 l 3.9648,2.23029 z"
     id="path549" />
</svg>
