<svg width="23" height="28" viewBox="0 0 23 28" fill="none" xmlns="http://www.w3.org/2000/svg"><path d="M18.526 26.872c-1.43 1.474-3.01 1.245-4.514.55-1.6-.71-3.062-.754-4.751 0-2.104.964-3.22.683-4.488-.55C-2.38 19.055-1.324 7.145 6.806 6.697c1.972.112 3.352 1.157 4.514 1.244 1.726-.372 3.378-1.44 5.226-1.3 2.22.19 3.88 1.12 4.99 2.794-4.567 2.914-3.485 9.303.71 11.096-.84 2.34-1.917 4.652-3.723 6.361l.003-.02zM11.161 6.613C10.948 3.138 13.601.28 16.651 0c.42 4.007-3.43 7.005-5.49 6.613z" fill="#000"/></svg>