<svg width="25" height="29" viewBox="0 0 25 29" fill="none" xmlns="http://www.w3.org/2000/svg"><path d="M3.507 4.781c-.184.093-.555.207-1.106.207C.875 4.988 0 3.903 0 2.52 0 .872 1.115 0 2.502 0c.538 0 .822.106 1.005.207l-.17.985a1.713 1.713 0 00-.793-.178c-.66 0-1.36.406-1.36 1.487 0 .967.558 1.479 1.365 1.479.32 0 .538-.065.788-.184l.17.985zM6.04 1.222c-.411 0-.809.193-1.011.502h-.013V.018l-1.033.37V4.84h1.033V2.76c0-.3.189-.623.551-.623.388 0 .537.315.537.774v1.93h1.034V2.763c0-1.06-.44-1.542-1.098-1.542zm2.658 2.213c.038.451.4.69.959.696.337.003.728-.099.99-.257l.155.831c-.393.204-.841.283-1.298.283-1.23 0-1.89-.765-1.89-1.937 0-1.134.71-1.865 1.772-1.865 1.095 0 1.586.833 1.586 1.878 0 .11-.013.29-.025.371h-2.25zm1.242-.76c0-.262-.124-.72-.602-.72-.42 0-.618.373-.647.72H9.94zm2.247 2.165l-1.142-3.506h1.14l.621 2.48h.021l.62-2.48h1.141L13.446 4.84h-1.259zm2.694-2.353c0-.516-.015-.852-.037-1.153h.974l.03.652h.026c.17-.516.497-.712.834-.732.16-.01.246.002.345.022v1.025a1.68 1.68 0 00-.415-.029c-.398.038-.638.337-.706.681a1.36 1.36 0 00-.02.244V4.84h-1.03V2.487zm5.805.6c0 1.149-.67 1.901-1.755 1.901s-1.755-.752-1.755-1.901c0-1.15.67-1.901 1.755-1.901s1.755.752 1.755 1.901zm-1.072 0c0-.57-.19-1.067-.683-1.067-.494 0-.682.496-.682 1.067s.188 1.067.682 1.067c.493 0 .683-.496.683-1.067zm1.531-.635c0-.438-.015-.811-.037-1.118h.974l.022.49h.021c.135-.228.492-.602 1.049-.602.681 0 1.126.48 1.126 1.513V4.84h-1.033V2.896c0-.451-.15-.76-.523-.76-.287 0-.465.209-.53.408a.911.911 0 00-.035.273V4.84h-1.034V2.452zM.037 14.133V5.772l12.133 4.18-12.133 4.18zm.003 0l12.13 4.18 12.129-4.18v-8.36l-12.13 4.18-12.13 4.18zm-.002 9.719l-.001-8.364 12.132 4.18L.038 23.853z" fill="#001935"/><path d="M24.3 15.488l-12.134 4.18L.039 23.85l12.13 4.182 12.13-4.183v-8.36z" fill="#001935"/></svg>