<svg width="24" height="28" viewBox="0 0 24 28" fill="none" xmlns="http://www.w3.org/2000/svg"><g clip-path="url(#clip0_2_99)"><path d="M3.464 4.776c-.182.092-.549.207-1.093.207C.865 4.983 0 3.899 0 2.517 0 .87 1.102 0 2.471 0c.531 0 .812.106.992.207l-.167.984a1.676 1.676 0 00-.783-.178c-.653 0-1.344.405-1.344 1.485 0 .967.551 1.478 1.349 1.478.316 0 .53-.065.778-.184l.168.984zM5.965 1.22c-.406 0-.798.193-.998.502h-.013V.017l-1.02.37v4.447h1.02V2.757c0-.3.187-.623.545-.623.382 0 .53.315.53.773v1.927H7.05V2.76c0-1.059-.435-1.54-1.086-1.54zM8.59 3.431c.038.45.395.69.948.695.332.003.72-.098.977-.257l.154.831c-.388.204-.831.283-1.282.283-1.215 0-1.867-.765-1.867-1.935 0-1.133.7-1.864 1.75-1.864 1.082 0 1.567.833 1.567 1.876a3.4 3.4 0 01-.025.371H8.591zm1.227-.76c0-.26-.122-.718-.595-.718-.414 0-.61.373-.638.719h1.233zm2.22 2.163l-1.128-3.501h1.126l.613 2.477h.02l.613-2.477h1.127L13.28 4.834h-1.243zm2.661-2.35c0-.515-.016-.851-.037-1.151h.962l.03.65h.025c.168-.515.491-.71.823-.73.158-.01.244.002.342.022v1.024a1.642 1.642 0 00-.41-.03c-.393.038-.63.337-.697.681-.014.071-.02.15-.02.243v1.641h-1.018v-2.35zm5.732.599c0 1.148-.66 1.9-1.732 1.9s-1.734-.752-1.734-1.9.662-1.899 1.734-1.899c1.071 0 1.732.752 1.732 1.9zm-1.058 0c0-.57-.187-1.066-.674-1.066-.488 0-.675.496-.675 1.066 0 .57.187 1.066.675 1.066.487 0 .674-.495.674-1.066zm1.512-.633c0-.438-.015-.811-.036-1.117h.961l.022.49h.021c.133-.228.486-.602 1.036-.602.673 0 1.112.48 1.112 1.51v2.104h-1.02V2.893c0-.45-.148-.759-.517-.759-.283 0-.459.208-.524.408a.923.923 0 00-.034.272v2.02h-1.02V2.45z" fill="#0056A2"/><path d="M.036 14.117V5.766L12.02 9.942.036 14.117z" fill="url(#paint0_linear_2_99)"/><path d="M.04 14.118l11.98 4.175L24 14.118V5.767L12.02 9.942.04 14.118z" fill="url(#paint1_linear_2_99)"/><path d="M.037 23.825V15.47l11.981 4.175-11.98 4.179z" fill="url(#paint2_linear_2_99)"/><path d="M24 15.47l-11.984 4.175L.04 23.823 12.019 28l11.98-4.178v-8.351z" fill="url(#paint3_linear_2_99)"/></g><defs><linearGradient id="paint0_linear_2_99" x1="12.02" y1="9.941" x2="4.184" y2="-1.301" gradientUnits="userSpaceOnUse"><stop stop-color="#06549B"/><stop offset=".55" stop-color="#2FA1D3"/><stop offset=".9" stop-color="#2FA1D3"/></linearGradient><linearGradient id="paint1_linear_2_99" x1=".04" y1="13.283" x2="8.86" y2="-9.492" gradientUnits="userSpaceOnUse"><stop stop-color="#1371B1"/><stop offset=".05" stop-color="#2FA1D3"/><stop offset=".45" stop-color="#2FA1D3"/><stop offset=".6" stop-color="#06569C"/></linearGradient><linearGradient id="paint2_linear_2_99" x1="12.018" y1="19.648" x2="2.656" y2="11.591" gradientUnits="userSpaceOnUse"><stop stop-color="#9D1A36"/><stop offset=".4" stop-color="#9D1A36"/><stop offset=".6" stop-color="#E6192F"/></linearGradient><linearGradient id="paint3_linear_2_99" x1=".039" y1="22.988" x2="8.861" y2=".21" gradientUnits="userSpaceOnUse"><stop stop-color="#A21C38"/><stop offset=".13" stop-color="#E6192F"/><stop offset=".45" stop-color="#E6192F"/><stop offset=".6" stop-color="#A71C37"/></linearGradient><clipPath id="clip0_2_99"><path fill="#fff" d="M0 0h24v28H0z"/></clipPath></defs></svg>