<svg width="44" height="48" viewBox="0 0 44 48" fill="none" xmlns="http://www.w3.org/2000/svg"><path d="M13.2 37.2h3.025v-11H22l2.2 4.4h11V17.4h-6.6L26.4 13H13.2v24.2zm13.035-9.625l-2.2-4.4h-7.81v-7.15h8.14l2.2 4.4h5.61v7.15h-5.94zM22 46c-3.117 0-6.013-.56-8.69-1.678-2.677-1.118-5.005-2.667-6.985-4.647-1.98-1.98-3.53-4.308-4.647-6.985C.559 30.013 0 27.117 0 24c0-3.08.56-5.958 1.677-8.635 1.119-2.677 2.668-5.005 4.648-6.985 1.98-1.98 4.308-3.538 6.985-4.675C15.987 2.568 18.883 2 22 2c3.08 0 5.958.568 8.635 1.705C33.312 4.842 35.64 6.4 37.62 8.38c1.98 1.98 3.538 4.308 4.675 6.985C43.432 18.042 44 20.92 44 24c0 3.117-.568 6.013-1.705 8.69-1.137 2.677-2.695 5.005-4.675 6.985-1.98 1.98-4.308 3.53-6.985 4.648C27.958 45.44 25.08 46 22 46zm0-3.3c5.317 0 9.762-1.788 13.337-5.363C38.913 33.762 40.7 29.317 40.7 24s-1.788-9.762-5.363-13.338C31.762 7.087 27.317 5.3 22 5.3s-9.762 1.788-13.338 5.362C5.087 14.238 3.3 18.684 3.3 24c0 5.317 1.788 9.763 5.362 13.337C12.238 40.913 16.684 42.7 22 42.7z" fill="#F2C811"/></svg>