<svg width="44" height="48" viewBox="0 0 44 48" fill="none" xmlns="http://www.w3.org/2000/svg"><path d="M3.5 41.35a3.372 3.372 0 01-2.475-1.025A3.372 3.372 0 010 37.85c0-.967.342-1.792 1.025-2.475A3.372 3.372 0 013.5 34.35c.167 0 .333.008.5.025.167.017.383.058.65.125l10-10a4.767 4.767 0 01-.125-.65 5.012 5.012 0 01-.025-.5c0-.967.342-1.792 1.025-2.475A3.372 3.372 0 0118 19.85c.967 0 1.792.342 2.475 1.025A3.372 3.372 0 0121.5 23.35c0 .067-.05.45-.15 1.15l5.5 5.5c.267-.067.483-.108.65-.125a5.012 5.012 0 011 0c.167.017.383.058.65.125l8-8a4.767 4.767 0 01-.125-.65 5.012 5.012 0 01-.025-.5c0-.967.342-1.792 1.025-2.475A3.372 3.372 0 0140.5 17.35c.967 0 1.792.342 2.475 1.025A3.372 3.372 0 0144 20.85c0 .967-.342 1.792-1.025 2.475A3.372 3.372 0 0140.5 24.35c-.167 0-.333-.008-.5-.025a4.767 4.767 0 01-.65-.125l-8 8c.067.267.108.483.125.65.017.167.025.333.025.5 0 .967-.342 1.792-1.025 2.475A3.372 3.372 0 0128 36.85a3.372 3.372 0 01-2.475-1.025A3.372 3.372 0 0124.5 33.35c0-.167.008-.333.025-.5.017-.167.058-.383.125-.65l-5.5-5.5a4.767 4.767 0 01-.65.125 5.012 5.012 0 01-.5.025c-.067 0-.45-.05-1.15-.15l-10 10c.067.267.108.483.125.65.017.167.025.333.025.5 0 .967-.342 1.792-1.025 2.475A3.372 3.372 0 013.5 41.35zM6 19.25l-1-2.2-2.2-1 2.2-1 1-2.2 1 2.2 2.2 1-2.2 1-1 2.2zm22-2.55l-1.55-3.3-3.3-1.55 3.3-1.55L28 7l1.55 3.3 3.3 1.55-3.3 1.55L28 16.7z" fill="#F2C811"/></svg>