<svg width="44" height="48" viewBox="0 0 44 48" fill="none" xmlns="http://www.w3.org/2000/svg"><path d="M40.431 21.213l-1.124-2.444-2.445-1.125 2.445-1.124 1.124-2.444 1.125 2.444L44 17.644l-2.444 1.125-1.125 2.444zm-6.209-8.555l-1.71-3.618-3.619-1.711 3.618-1.711L34.222 2l1.711 3.618 3.618 1.71-3.618 1.712-1.71 3.618zM14.667 45.022c-1.108 0-2.046-.383-2.811-1.149-.766-.766-1.15-1.703-1.15-2.81h7.92c0 1.107-.382 2.044-1.148 2.81-.766.766-1.703 1.15-2.811 1.15zm-7.92-6.99v-2.934h15.84v2.933H6.747zm.244-5.916c-2.151-1.402-3.854-3.154-5.109-5.256C.627 24.758 0 22.387 0 19.747 0 15.77 1.45 12.332 4.351 9.43c2.9-2.9 6.34-4.351 10.316-4.351 3.976 0 7.414 1.45 10.315 4.351 2.901 2.9 4.351 6.34 4.351 10.316 0 2.64-.619 5.01-1.857 7.113-1.239 2.102-2.95 3.854-5.134 5.256H6.992zm1.076-2.934h13.249a11.392 11.392 0 003.715-4.058 10.997 10.997 0 001.369-5.377c0-3.227-1.149-5.99-3.447-8.287-2.297-2.298-5.06-3.447-8.286-3.447-3.227 0-5.99 1.15-8.287 3.447-2.298 2.298-3.447 5.06-3.447 8.287 0 1.923.457 3.715 1.37 5.377a11.237 11.237 0 003.764 4.058z" fill="#F2C811"/></svg>