<svg width="29" height="29" viewBox="0 0 29 29" fill="none" xmlns="http://www.w3.org/2000/svg"><path fill-rule="evenodd" clip-rule="evenodd" d="M23.273 10.066h-2.308l-3.233 8.872h2.308l3.233-8.872zM14.498 29c-.142 0-.286-.003-.43-.007l2.964-8.145h4.077c.717 0 1.503-.55 1.747-1.222l3.215-8.83c.527-1.447-.3-2.628-1.84-2.628h-5.658l-4.747 13.044h-.001l-2.692 7.393C4.75 27.09 0 21.348 0 14.5 0 7.654 4.479 2.244 10.586.536L7.81 8.168h-.002L3.191 20.85h3.073l3.926-10.775h2.31L8.574 20.849l3.071.002 3.659-10.054c.526-1.447-.302-2.628-1.839-2.628h-2.583L13.847.016c.217-.01.434-.016.651-.016C22.508 0 29 6.492 29 14.5c0 8.009-6.492 14.501-14.502 14.501z" fill="#00A1DD"/></svg>