<svg width="29" height="29" viewBox="0 0 29 29" fill="none" xmlns="http://www.w3.org/2000/svg"><g clip-path="url(#clip0_2_66)"><path d="M14.5 29c-.144 0-.287-.003-.43-.007l2.963-8.144h4.078c.716 0 1.501-.55 1.746-1.222l3.215-8.83c.526-1.447-.302-2.63-1.84-2.63h-5.658l-4.747 13.045h-.002l-2.691 7.394C4.749 27.088 0 21.35 0 14.5 0 7.848 4.48 2.243 10.585.535L7.81 8.167h-.001L3.192 20.85h3.073l3.925-10.776h2.31L8.574 20.85l3.072.001 3.659-10.054c.526-1.446-.302-2.629-1.84-2.629h-2.583L13.848.015c.217-.01.434-.015.652-.015C22.508 0 29 6.492 29 14.5S22.508 29 14.5 29zm8.773-18.935h-2.308l-3.234 8.872h2.31l3.232-8.872z" fill="#001935"/></g><defs><clipPath id="clip0_2_66"><path fill="#fff" d="M0 0h29v29H0z"/></clipPath></defs></svg>