<svg width="44" height="48" viewBox="0 0 44 48" fill="none" xmlns="http://www.w3.org/2000/svg"><path d="M20.927 35.22c-3.122-.163-5.756-1.366-7.903-3.61-2.146-2.244-3.22-4.943-3.22-8.098 0-3.252 1.14-6.016 3.415-8.293 2.277-2.276 5.041-3.414 8.293-3.414 3.155 0 5.854 1.073 8.098 3.22 2.244 2.146 3.447 4.796 3.61 7.95L30.145 22c-.357-2.081-1.333-3.813-2.927-5.195-1.593-1.382-3.495-2.073-5.707-2.073-2.439 0-4.512.853-6.22 2.56-1.707 1.708-2.56 3.781-2.56 6.22 0 2.18.69 4.073 2.073 5.683 1.382 1.61 3.114 2.594 5.195 2.951l.927 3.073zm2.341 7.707a15.936 15.936 0 01-1.756.097c-2.699 0-5.236-.512-7.61-1.536-2.373-1.025-4.439-2.415-6.195-4.17-1.756-1.757-3.146-3.822-4.17-6.196C2.512 28.748 2 26.212 2 23.512c0-2.699.512-5.236 1.537-7.61 1.024-2.373 2.414-4.439 4.17-6.195 1.756-1.756 3.821-3.146 6.195-4.17C16.276 4.512 18.813 4 21.512 4c2.7 0 5.236.512 7.61 1.537 2.374 1.024 4.439 2.414 6.195 4.17 1.756 1.756 3.146 3.821 4.17 6.195 1.025 2.374 1.537 4.911 1.537 7.61a15.783 15.783 0 01-.097 1.756l-2.83-.878v-.878c0-4.618-1.61-8.536-4.829-11.756-3.22-3.22-7.138-4.83-11.756-4.83s-8.536 1.61-11.756 4.83c-3.22 3.22-4.83 7.138-4.83 11.756s1.61 8.537 4.83 11.756c3.22 3.22 7.138 4.83 11.756 4.83h.878l.878 2.829zM38.146 44l-8.341-8.342-2.44 7.366-5.853-19.512 19.512 5.854-7.366 2.439L42 40.146 38.146 44z" fill="#F2C811"/></svg>