<svg width="44" height="48" viewBox="0 0 44 48" fill="none" xmlns="http://www.w3.org/2000/svg"><path d="M23.65 29.61h3.3v-7.26h7.26v-3.3h-7.26v-7.26h-3.3v7.26h-7.26v3.3h7.26v7.26zM9.9 39.4c-.88 0-1.65-.33-2.31-.99-.66-.66-.99-1.43-.99-2.31V5.3c0-.88.33-1.65.99-2.31C8.25 2.33 9.02 2 9.9 2h30.8c.88 0 1.65.33 2.31.99.66.66.99 1.43.99 2.31v30.8c0 .88-.33 1.65-.99 2.31-.66.66-1.43.99-2.31.99H9.9zm0-3.3h30.8V5.3H9.9v30.8zm0-30.8v30.8V5.3zM3.3 46c-.88 0-1.65-.33-2.31-.99C.33 44.35 0 43.58 0 42.7V8.6h3.3v34.1h34.1V46H3.3z" fill="#F2C811"/></svg>