<svg width="252" height="40" viewBox="0 0 252 40" fill="none" xmlns="http://www.w3.org/2000/svg"><path d="M165.717 26h-1.245V15.292h5.969v1.106h-4.724v3.918h4.439v1.106h-4.439V26zm13.25-4.021c0 1.309-.33 2.332-.989 3.069-.659.732-1.57 1.099-2.732 1.099-.718 0-1.355-.169-1.912-.506-.556-.337-.986-.82-1.289-1.45-.302-.63-.454-1.367-.454-2.212 0-1.309.327-2.327.982-3.054.654-.733 1.562-1.099 2.724-1.099 1.123 0 2.015.374 2.674 1.12.664.748.996 1.759.996 3.033zm-6.116 0c0 1.025.205 1.807.615 2.344.41.537 1.013.805 1.809.805s1.399-.266 1.809-.798c.416-.537.623-1.32.623-2.351 0-1.02-.207-1.794-.623-2.322-.41-.532-1.018-.798-1.823-.798-.796 0-1.397.261-1.802.784-.405.522-.608 1.3-.608 2.336zm11.917-4.153c.356 0 .676.03.959.088l-.168 1.128a4.144 4.144 0 00-.879-.11c-.65 0-1.206.264-1.67.791-.459.527-.689 1.184-.689 1.97V26h-1.216v-8.027h1.004l.139 1.486h.059c.297-.522.656-.925 1.076-1.208.42-.283.882-.425 1.385-.425zm13.33.586c0 1.084-.371 1.92-1.114 2.505-.737.581-1.794.872-3.171.872h-1.26V26h-1.245V15.292h2.776c2.676 0 4.014 1.04 4.014 3.12zm-5.545 2.307h1.121c1.103 0 1.902-.178 2.395-.534.493-.357.74-.928.74-1.714 0-.708-.232-1.236-.696-1.582-.464-.347-1.187-.52-2.168-.52h-1.392v4.35zm14.539 1.26c0 1.309-.33 2.332-.989 3.069-.659.732-1.57 1.099-2.732 1.099-.718 0-1.355-.169-1.912-.506-.556-.337-.986-.82-1.289-1.45-.302-.63-.454-1.367-.454-2.212 0-1.309.327-2.327.982-3.054.654-.733 1.562-1.099 2.724-1.099 1.123 0 2.015.374 2.674 1.12.664.748.996 1.759.996 3.033zm-6.116 0c0 1.025.205 1.807.615 2.344.41.537 1.013.805 1.809.805s1.399-.266 1.809-.798c.416-.537.623-1.32.623-2.351 0-1.02-.207-1.794-.623-2.322-.41-.532-1.018-.798-1.823-.798-.796 0-1.397.261-1.802.784-.405.522-.608 1.3-.608 2.336zM215.786 26l-1.473-4.71c-.092-.288-.266-.942-.52-1.962h-.058a26.413 26.413 0 01-.513 1.977L211.706 26H210.3l-2.19-8.027h1.274c.518 2.016.911 3.552 1.179 4.607.274 1.054.43 1.765.469 2.13h.059a19.35 19.35 0 01.571-2.131l1.472-4.606h1.319l1.435 4.607c.274.84.459 1.545.557 2.116h.058a8.35 8.35 0 01.154-.813c.088-.366.598-2.336 1.531-5.91h1.26L217.229 26h-1.443zm8.51.146c-1.186 0-2.124-.36-2.812-1.084-.684-.722-1.026-1.726-1.026-3.01 0-1.294.318-2.322.953-3.083.639-.762 1.496-1.143 2.57-1.143 1.006 0 1.802.332 2.388.996.586.66.879 1.531.879 2.615v.77h-5.53c.025.941.261 1.657.711 2.145.454.488 1.091.732 1.911.732a6.47 6.47 0 002.564-.541v1.084c-.43.185-.838.317-1.223.395a6.613 6.613 0 01-1.385.125zm-.329-7.302c-.645 0-1.16.21-1.546.63-.38.42-.605 1.001-.673 1.743h4.196c0-.766-.171-1.352-.512-1.758-.342-.41-.83-.615-1.465-.615zm9.023-1.018c.357 0 .677.03.96.088l-.169 1.128a4.144 4.144 0 00-.879-.11c-.649 0-1.206.264-1.67.791-.459.527-.688 1.184-.688 1.97V26h-1.216v-8.027h1.004l.139 1.486h.058c.298-.522.657-.925 1.077-1.208.42-.283.881-.425 1.384-.425zm6.541-2.534h3.025c1.421 0 2.448.212 3.083.637.635.425.952 1.096.952 2.014 0 .635-.178 1.16-.534 1.575-.352.41-.867.676-1.546.798v.074c1.626.278 2.439 1.133 2.439 2.563 0 .957-.325 1.704-.974 2.241-.644.537-1.548.806-2.71.806h-3.735V15.292zm1.245 4.585h2.051c.879 0 1.511-.137 1.897-.41.385-.278.578-.745.578-1.4 0-.6-.215-1.032-.644-1.296-.43-.268-1.114-.402-2.051-.402h-1.831v3.508zm0 1.055v4.006h2.234c.864 0 1.513-.166 1.948-.498.439-.337.659-.862.659-1.575 0-.664-.224-1.152-.674-1.465-.444-.312-1.123-.468-2.036-.468h-2.131zM249.257 26V15.292h1.245V26h-1.245z" fill="#001935"/><path d="M133.333 0H0v40h133.333V0z" fill="red"/><path d="M65.383 23.903c.401.31.802.516 1.215.62.413.103.894.16 1.468.16a8.464 8.464 0 003.668-.848v2.293a10.67 10.67 0 01-3.875.733c-2.006 0-3.52-.584-4.563-1.754-1.043-1.17-1.57-2.854-1.57-5.067s.527-3.91 1.57-5.067c1.044-1.17 2.568-1.755 4.563-1.755 1.342 0 2.637.241 3.875.734v2.304c-1.192-.584-2.396-.87-3.623-.87h-.046c-1.215 0-2.155.309-2.843.94-.688.63-1.031 1.857-1.031 3.702 0 .975.103 1.789.298 2.43.194.654.492 1.136.894 1.445zm16.532 2.752v-7.888c0-1.295-.275-2.166-.814-2.59-.55-.436-1.261-.654-2.133-.654-1.077 0-2.155.206-3.256.63v10.49h-2.407V8.357h2.407v5.503a9.59 9.59 0 013.486-.653c1.64 0 2.912.493 3.817 1.467.906.975 1.365 2.374 1.365 4.174v7.784l-2.465.023zm14.8-3.233c-.057.275-.194.642-.4 1.078a3.509 3.509 0 01-.86 1.146c-.367.332-.906.608-1.629.848-.722.241-1.559.356-2.51.356-.975 0-1.823-.126-2.557-.367-.734-.252-1.284-.539-1.65-.86a3.844 3.844 0 01-.884-1.17c-.217-.446-.355-.825-.4-1.111a4.567 4.567 0 01-.081-.872c0-1.307.55-2.327 1.65-3.06 1.101-.734 2.615-1.101 4.552-1.101.826 0 1.617.057 2.396.16-.057-1.112-.355-1.914-.905-2.396-.55-.481-1.456-.722-2.717-.722-1.147 0-2.362.218-3.646.665V13.94a11.18 11.18 0 013.978-.711c1.834 0 3.256.481 4.253 1.433.998.951 1.502 2.327 1.502 4.104v3.818a5.198 5.198 0 01-.091.837zm-2.373-3.015c-.63-.104-1.398-.16-2.293-.172a7.36 7.36 0 00-1.1.091c-.39.07-.803.161-1.25.299a2.454 2.454 0 00-1.1.676c-.287.321-.436.7-.436 1.135 0 1.49 1.055 2.236 3.164 2.236h.035c1.983 0 2.98-.711 2.98-2.144v-2.121zm6.65-4.403v10.65h-2.408V14.549c2.201-.883 4.334-1.318 6.42-1.318v2.224a16.33 16.33 0 00-4.012.55zm11.063 8.679h.023c.596 0 1.112-.126 1.536-.39v2.19a4.808 4.808 0 01-1.8.367h-.068a4.74 4.74 0 01-1.021-.115 6.878 6.878 0 01-1.295-.458c-.505-.23-.917-.62-1.238-1.193-.321-.561-.493-1.26-.493-2.098v-7.498h-2.293v-2.075h2.293v-3.91h2.407v3.922h3.508V15.5h-3.508v7.647c0 1.02.654 1.536 1.949 1.536zm5.836-6.672a8.64 8.64 0 001.674.642 19.02 19.02 0 011.96.676c.653.264 1.215.7 1.685 1.319s.7 1.387.7 2.292c0 1.067-.402 1.984-1.193 2.763-.791.768-2.029 1.158-3.703 1.158-1.41 0-2.671-.31-3.795-.928V23.72a7.352 7.352 0 003.646.963h.057c.837 0 1.479-.149 1.927-.459.447-.31.664-.699.664-1.169 0-.539-.229-.974-.687-1.307-.459-.332-1.021-.585-1.686-.78a30.25 30.25 0 01-1.972-.619 3.892 3.892 0 01-1.673-1.135c-.459-.527-.688-1.215-.688-2.063 0-1.09.389-2.03 1.169-2.798.78-.768 1.961-1.146 3.566-1.146 1.192 0 2.361.287 3.519.871v2.098c-1.135-.527-2.212-.79-3.221-.79-1.743 0-2.614.561-2.614 1.684-.035.39.206.688.665.94zm-85.148 4.55c0 2.913-2.396 5.354-5.354 5.354-.012 0 0-5.4 0-5.4.057.058 5.354.035 5.354.046z" fill="#fff"/><path d="M58.32 26.655v-8.667c0-.757-.183-1.376-.55-1.834-.367-.47-1.089-.7-2.167-.7-1.158 0-2.338.241-3.53.734.206.562.309 1.193.309 1.892v8.587h-2.408v-8.645c0-.78-.206-1.387-.607-1.834-.413-.447-1.216-.676-2.43-.676a11 11 0 00-2.878.401v10.754H41.65v-5.32a7.06 7.06 0 01-3.944 2.339 7.187 7.187 0 01-2.03.138c-.526 3.462-3.129 6.397-6.74 7.165-3.807.814-7.556-1.055-9.332-4.322h-9.78V24.42l6.695-8.748H9.974v-2.224h9.63v2.201l-6.672 8.725h5.813c0-.023-.012-.046-.012-.069-.974-4.689 1.995-9.286 6.65-10.272a8.636 8.636 0 014.093.126c.825-2.27 2.751-4.07 5.262-4.609 3.485-.745 6.913 1.204 8.163 4.437a11.78 11.78 0 014.207-.768c1.422 0 2.603.332 3.52.997 1.65-.665 3.267-.997 4.826-.997 1.663 0 2.958.436 3.887 1.307.928.871 1.398 2.086 1.398 3.646v8.506l-2.418-.023zm-22-15.076a5.093 5.093 0 00-5.033 5.87 6.43 6.43 0 00-10.33 5.113 6.43 6.43 0 006.432 6.432 6.43 6.43 0 006.432-6.431c0-.54-.07-1.078-.195-1.583a5.09 5.09 0 002.682.768 5.093 5.093 0 005.09-5.09 5.081 5.081 0 00-5.078-5.079zm89.137 1.938c-.859 0-1.57.699-1.57 1.57 0 .86.699 1.57 1.57 1.57.86 0 1.571-.698 1.571-1.57 0-.871-.699-1.57-1.571-1.57zm0 2.82a1.252 1.252 0 01-1.249-1.25c0-.688.561-1.25 1.249-1.25.688 0 1.25.562 1.25 1.25s-.562 1.25-1.25 1.25z" fill="#fff"/><path d="M125.882 15.19a.285.285 0 00-.161-.091.504.504 0 00.241-.15.404.404 0 00.08-.263c0-.16-.045-.275-.149-.344-.103-.069-.263-.115-.47-.115h-.642v1.64h.424v-.62h.115c.069 0 .126.012.161.047.045.034.08.091.126.172l.206.412h.447l-.229-.47a.976.976 0 00-.149-.217zm-.321-.286c-.035.034-.103.046-.195.046h-.172v-.424h.183c.092 0 .149.011.195.046a.224.224 0 01.058.16c-.012.092-.023.138-.069.172z" fill="#fff"/><path stroke="#000" d="M148.5 0v40"/></svg>