<svg width="219" height="30" viewBox="0 0 219 30" fill="none" xmlns="http://www.w3.org/2000/svg"><path d="M132.717 21h-1.245V10.292h5.969v1.106h-4.724v3.918h4.439v1.106h-4.439V21zm13.25-4.021c0 1.309-.33 2.332-.989 3.069-.659.732-1.57 1.099-2.732 1.099-.718 0-1.355-.169-1.912-.506-.556-.337-.986-.82-1.289-1.45-.302-.63-.454-1.367-.454-2.212 0-1.309.327-2.327.982-3.054.654-.733 1.562-1.099 2.724-1.099 1.123 0 2.015.374 2.674 1.12.664.748.996 1.759.996 3.033zm-6.116 0c0 1.025.205 1.807.615 2.344.41.537 1.013.805 1.809.805s1.399-.266 1.809-.798c.416-.537.623-1.32.623-2.351 0-1.02-.207-1.794-.623-2.322-.41-.532-1.018-.798-1.823-.798-.796 0-1.397.261-1.802.784-.405.522-.608 1.3-.608 2.336zm11.917-4.153c.356 0 .676.03.959.088l-.168 1.128a4.144 4.144 0 00-.879-.11c-.65 0-1.206.264-1.67.791-.459.527-.689 1.184-.689 1.97V21h-1.216v-8.027h1.004l.139 1.486h.059c.297-.522.656-.925 1.076-1.208.42-.283.882-.425 1.385-.425zm13.33.586c0 1.084-.371 1.92-1.114 2.505-.737.581-1.794.872-3.171.872h-1.26V21h-1.245V10.292h2.776c2.676 0 4.014 1.04 4.014 3.12zm-5.545 2.307h1.121c1.103 0 1.902-.178 2.395-.534.493-.357.74-.928.74-1.714 0-.708-.232-1.236-.696-1.582-.464-.347-1.187-.52-2.168-.52h-1.392v4.35zm14.539 1.26c0 1.309-.33 2.332-.989 3.069-.659.732-1.57 1.099-2.732 1.099-.718 0-1.355-.169-1.912-.506-.556-.337-.986-.82-1.289-1.45-.302-.63-.454-1.367-.454-2.212 0-1.309.327-2.327.982-3.054.654-.733 1.562-1.099 2.724-1.099 1.123 0 2.015.374 2.674 1.12.664.748.996 1.759.996 3.033zm-6.116 0c0 1.025.205 1.807.615 2.344.41.537 1.013.805 1.809.805s1.399-.266 1.809-.798c.416-.537.623-1.32.623-2.351 0-1.02-.207-1.794-.623-2.322-.41-.532-1.018-.798-1.823-.798-.796 0-1.397.261-1.802.784-.405.522-.608 1.3-.608 2.336zM182.786 21l-1.473-4.71c-.092-.288-.266-.942-.52-1.962h-.058a26.413 26.413 0 01-.513 1.977L178.706 21H177.3l-2.19-8.027h1.274c.518 2.016.911 3.552 1.179 4.607.274 1.054.43 1.765.469 2.13h.059a19.35 19.35 0 01.571-2.131l1.472-4.606h1.319l1.435 4.607c.274.84.459 1.545.557 2.116h.058a8.35 8.35 0 01.154-.813c.088-.366.598-2.336 1.531-5.91h1.26L184.229 21h-1.443zm8.51.146c-1.186 0-2.124-.36-2.812-1.084-.684-.722-1.026-1.726-1.026-3.01 0-1.294.318-2.322.953-3.083.639-.762 1.496-1.143 2.57-1.143 1.006 0 1.802.332 2.388.996.586.66.879 1.531.879 2.615v.77h-5.53c.025.941.261 1.657.711 2.145.454.488 1.091.732 1.911.732a6.47 6.47 0 002.564-.541v1.084c-.43.185-.838.317-1.223.395a6.613 6.613 0 01-1.385.125zm-.329-7.302c-.645 0-1.16.21-1.546.63-.38.42-.605 1.001-.673 1.743h4.196c0-.766-.171-1.352-.512-1.757-.342-.41-.83-.616-1.465-.616zm9.023-1.018c.357 0 .677.03.96.088l-.169 1.128a4.144 4.144 0 00-.879-.11c-.649 0-1.206.264-1.67.791-.459.527-.688 1.184-.688 1.97V21h-1.216v-8.027h1.004l.139 1.486h.058c.298-.522.657-.925 1.077-1.208.42-.283.881-.425 1.384-.425zm6.541-2.534h3.025c1.421 0 2.448.212 3.083.637.635.425.952 1.096.952 2.014 0 .635-.178 1.16-.534 1.575-.352.41-.867.676-1.546.798v.074c1.626.278 2.439 1.133 2.439 2.563 0 .957-.325 1.704-.974 2.241-.644.537-1.548.806-2.71.806h-3.735V10.292zm1.245 4.585h2.051c.879 0 1.511-.137 1.897-.41.385-.279.578-.745.578-1.4 0-.6-.215-1.032-.644-1.296-.43-.268-1.114-.402-2.051-.402h-1.831v3.508zm0 1.055v4.006h2.234c.864 0 1.513-.166 1.948-.498.439-.337.659-.862.659-1.575 0-.664-.224-1.152-.674-1.465-.444-.312-1.123-.468-2.036-.468h-2.131zM216.257 21V10.292h1.245V21h-1.245z" fill="#001935"/><path d="M100 0H0v30h100V0z" fill="red"/><path d="M49.037 17.927c.3.232.602.387.911.464.31.078.671.12 1.1.12.947 0 1.867-.214 2.752-.636v1.72c-.937.361-1.9.55-2.906.55-1.505 0-2.64-.438-3.422-1.315s-1.178-2.141-1.178-3.8c0-1.66.396-2.933 1.178-3.801.782-.877 1.926-1.316 3.422-1.316 1.006 0 1.978.18 2.906.55v1.729c-.894-.439-1.797-.654-2.717-.654h-.034c-.911 0-1.617.233-2.133.705-.515.473-.773 1.393-.773 2.778 0 .73.077 1.341.223 1.823.146.49.37.85.67 1.083zm12.399 2.064v-5.916c0-.972-.206-1.625-.61-1.943-.413-.327-.947-.49-1.6-.49-.808 0-1.617.154-2.442.473v7.867h-1.806V6.268h1.806v4.127a7.192 7.192 0 012.614-.49c1.23 0 2.184.37 2.863 1.1.68.731 1.023 1.78 1.023 3.13v5.839l-1.848.017zm11.1-2.425a3.919 3.919 0 01-.3.808c-.155.327-.37.62-.645.86-.276.25-.68.456-1.221.636-.542.18-1.17.267-1.883.267-.731 0-1.368-.095-1.918-.275-.55-.19-.963-.404-1.238-.645a2.882 2.882 0 01-.662-.877c-.163-.335-.267-.62-.301-.834a3.424 3.424 0 01-.06-.654c0-.98.412-1.745 1.238-2.296.825-.55 1.96-.825 3.413-.825.62 0 1.213.043 1.797.12-.043-.834-.266-1.436-.679-1.797-.412-.36-1.092-.541-2.038-.541-.86 0-1.77.163-2.734.498v-1.556a8.385 8.385 0 012.984-.533c1.376 0 2.442.361 3.19 1.075.748.713 1.126 1.745 1.126 3.078v2.863a3.892 3.892 0 01-.069.628zm-1.78-2.261a11.835 11.835 0 00-1.72-.13c-.266 0-.54.026-.825.07-.292.051-.602.12-.937.223a1.84 1.84 0 00-.825.507 1.24 1.24 0 00-.327.851c0 1.118.791 1.677 2.373 1.677h.026c1.487 0 2.236-.533 2.236-1.608v-1.59zm4.988-3.302v7.988h-1.806v-9.08c1.65-.662 3.25-.99 4.815-.99v1.669a12.25 12.25 0 00-3.01.413zm8.297 6.509h.017c.447 0 .834-.095 1.152-.293v1.643c-.447.18-.902.275-1.35.275h-.051c-.24 0-.49-.026-.765-.086a5.165 5.165 0 01-.972-.344c-.378-.172-.688-.464-.928-.894-.241-.422-.37-.946-.37-1.574v-5.623h-1.72V10.06h1.72V7.127h1.805v2.941h2.632v1.556h-2.632v5.736c0 .765.49 1.152 1.462 1.152zm4.377-5.005c.344.181.765.344 1.255.482.49.138.98.31 1.47.507.49.198.912.525 1.264.99.353.463.525 1.04.525 1.719 0 .8-.301 1.487-.894 2.072-.594.576-1.522.868-2.778.868-1.057 0-2.003-.232-2.846-.696v-1.66a5.51 5.51 0 002.735.723h.043c.627 0 1.109-.112 1.444-.344.336-.232.499-.525.499-.877 0-.404-.172-.731-.516-.98-.344-.25-.765-.439-1.264-.585a22.694 22.694 0 01-1.479-.464 2.921 2.921 0 01-1.255-.852c-.344-.395-.516-.911-.516-1.547 0-.817.292-1.522.877-2.098.585-.577 1.47-.86 2.674-.86.894 0 1.771.215 2.64.653v1.574c-.852-.396-1.66-.594-2.417-.594-1.306 0-1.96.422-1.96 1.264-.026.293.155.516.499.706zm-63.862 3.414c0 2.184-1.797 4.016-4.015 4.016-.009 0 0-4.05 0-4.05.043.043 4.015.026 4.015.034z" fill="#fff"/><path d="M43.74 19.99v-6.5c0-.567-.138-1.031-.413-1.375-.275-.353-.817-.525-1.625-.525-.869 0-1.754.18-2.648.55.154.422.232.895.232 1.42V20H37.48v-6.484c0-.585-.155-1.04-.456-1.376-.31-.335-.911-.507-1.823-.507-.705 0-1.427.103-2.158.301v8.065h-1.805v-3.99a5.296 5.296 0 01-2.958 1.755 5.39 5.39 0 01-1.522.103c-.396 2.597-2.348 4.798-5.056 5.374-2.855.61-5.667-.791-7-3.242H7.369v-1.685l5.022-6.56H7.48v-1.669h7.223v1.651L9.698 18.28h4.36c0-.018-.009-.035-.009-.052-.73-3.517 1.496-6.965 4.987-7.704a6.477 6.477 0 013.07.094 5.409 5.409 0 013.947-3.456c2.613-.559 5.184.903 6.122 3.327a8.834 8.834 0 013.155-.576c1.067 0 1.952.25 2.64.748 1.238-.498 2.45-.748 3.62-.748 1.247 0 2.218.327 2.915.98.696.654 1.049 1.566 1.049 2.735v6.38l-1.814-.017zM27.24 8.685a3.82 3.82 0 00-3.775 4.402 4.822 4.822 0 00-7.747 3.835 4.822 4.822 0 004.823 4.824 4.822 4.822 0 004.677-6.01 3.817 3.817 0 002.013.576 3.82 3.82 0 003.817-3.818 3.81 3.81 0 00-3.809-3.81zm66.852 1.452a1.18 1.18 0 00-1.178 1.178 1.18 1.18 0 001.178 1.178 1.18 1.18 0 001.178-1.178c0-.654-.524-1.178-1.178-1.178zm0 2.115a.94.94 0 01-.937-.937.94.94 0 01.937-.938.94.94 0 01.938.938.94.94 0 01-.938.937z" fill="#fff"/><path d="M94.41 11.392a.213.213 0 00-.12-.069.382.382 0 00.18-.111.301.301 0 00.06-.198c0-.12-.034-.207-.111-.258a.644.644 0 00-.352-.086h-.482v1.23h.318v-.465h.086c.052 0 .095.009.12.035.035.025.06.068.095.129l.155.31h.335l-.172-.353a.746.746 0 00-.112-.164zm-.24-.215c-.026.026-.078.035-.147.035h-.129v-.319h.138c.069 0 .112.01.146.035a.17.17 0 01.043.12c-.008.069-.017.103-.051.13z" fill="#fff"/><path stroke="#000" d="M115.5 0v30"/></svg>