<svg width="134" height="40" viewBox="0 0 134 40" fill="none" xmlns="http://www.w3.org/2000/svg"><path d="M133.333 0H0v40h133.333V0z" fill="red"/><path d="M65.383 23.903c.401.31.803.516 1.215.62.413.103.895.16 1.468.16a8.463 8.463 0 003.668-.848v2.293a10.67 10.67 0 01-3.875.733c-2.006 0-3.52-.584-4.562-1.754-1.044-1.17-1.571-2.854-1.571-5.067s.527-3.91 1.57-5.067c1.044-1.17 2.569-1.755 4.563-1.755 1.342 0 2.637.241 3.875.734v2.304c-1.192-.584-2.396-.87-3.622-.87h-.046c-1.216 0-2.156.309-2.844.94-.687.63-1.031 1.857-1.031 3.702 0 .975.103 1.789.298 2.43.195.654.493 1.136.894 1.445zm16.532 2.752v-7.888c0-1.295-.275-2.166-.814-2.59-.55-.436-1.261-.654-2.132-.654-1.078 0-2.156.206-3.256.63v10.49h-2.408V8.357h2.408v5.503a9.591 9.591 0 013.485-.653c1.64 0 2.912.493 3.818 1.467.905.975 1.364 2.374 1.364 4.174v7.784l-2.465.023zm14.8-3.233c-.056.275-.194.642-.4 1.078a3.507 3.507 0 01-.86 1.146c-.367.332-.906.608-1.628.848-.723.241-1.56.356-2.511.356-.975 0-1.823-.126-2.557-.367-.733-.252-1.284-.539-1.65-.86a3.84 3.84 0 01-.883-1.17c-.218-.446-.356-.825-.402-1.111a4.567 4.567 0 01-.08-.872c0-1.307.55-2.327 1.651-3.06 1.1-.734 2.614-1.101 4.552-1.101.825 0 1.616.057 2.396.16-.058-1.112-.356-1.914-.906-2.396-.55-.481-1.456-.722-2.717-.722-1.147 0-2.362.218-3.646.665V13.94a11.18 11.18 0 013.978-.711c1.835 0 3.256.481 4.254 1.433.997.951 1.502 2.327 1.502 4.104v3.818a5.198 5.198 0 01-.092.837zm-2.372-3.015c-.63-.104-1.4-.16-2.293-.172a7.36 7.36 0 00-1.1.091c-.39.07-.803.161-1.25.299a2.454 2.454 0 00-1.101.676c-.287.321-.436.7-.436 1.135 0 1.49 1.055 2.236 3.164 2.236h.035c1.983 0 2.98-.711 2.98-2.144v-2.121zm6.649-4.403v10.65h-2.407V14.549c2.201-.883 4.333-1.318 6.42-1.318v2.224c-1.319.011-2.66.195-4.013.55zm11.063 8.679h.023c.597 0 1.112-.126 1.537-.39v2.19a4.816 4.816 0 01-1.8.367h-.069a4.71 4.71 0 01-1.02-.115 6.86 6.86 0 01-1.296-.458c-.504-.23-.917-.62-1.238-1.193-.321-.561-.493-1.26-.493-2.098v-7.498h-2.293v-2.075h2.293v-3.91h2.407v3.922h3.509V15.5h-3.509v7.647c0 1.02.654 1.536 1.949 1.536zm5.836-6.672c.459.24 1.02.458 1.674.642.653.183 1.307.412 1.96.676.654.264 1.215.7 1.685 1.319.471.619.7 1.387.7 2.292 0 1.067-.401 1.984-1.192 2.763-.792.768-2.03 1.158-3.704 1.158-1.41 0-2.671-.31-3.794-.928V23.72a7.346 7.346 0 003.645.963h.058c.837 0 1.479-.149 1.926-.459.447-.31.665-.699.665-1.169 0-.539-.23-.974-.688-1.307-.459-.332-1.02-.585-1.685-.78a30.06 30.06 0 01-1.972-.619 3.89 3.89 0 01-1.674-1.135c-.459-.527-.688-1.215-.688-2.063 0-1.09.39-2.03 1.169-2.798.78-.768 1.961-1.146 3.566-1.146 1.192 0 2.362.287 3.519.871v2.098c-1.135-.527-2.212-.79-3.221-.79-1.743 0-2.614.561-2.614 1.684-.034.39.206.688.665.94zm-85.148 4.55c0 2.913-2.396 5.354-5.354 5.354-.011 0 0-5.4 0-5.4.058.058 5.354.035 5.354.046z" fill="#fff"/><path d="M58.32 26.655v-8.667c0-.757-.183-1.376-.55-1.834-.367-.47-1.089-.7-2.167-.7-1.158 0-2.338.241-3.53.734.206.562.309 1.193.309 1.892v8.587h-2.408v-8.645c0-.78-.206-1.387-.607-1.834-.413-.447-1.216-.676-2.43-.676a11 11 0 00-2.878.401v10.754H41.65v-5.32a7.06 7.06 0 01-3.944 2.339 7.187 7.187 0 01-2.03.138c-.526 3.462-3.129 6.397-6.74 7.165-3.807.814-7.556-1.055-9.332-4.322h-9.78V24.42l6.695-8.748H9.974v-2.224h9.63v2.201l-6.672 8.725h5.813c0-.023-.012-.046-.012-.069-.974-4.689 1.995-9.286 6.65-10.272a8.636 8.636 0 014.093.126c.825-2.27 2.751-4.07 5.262-4.609 3.485-.745 6.913 1.204 8.163 4.437a11.78 11.78 0 014.207-.768c1.422 0 2.603.332 3.52.997 1.65-.665 3.267-.997 4.826-.997 1.663 0 2.958.436 3.887 1.307.928.871 1.398 2.086 1.398 3.646v8.506l-2.418-.023zm-22-15.076a5.093 5.093 0 00-5.033 5.87 6.43 6.43 0 00-10.33 5.113 6.43 6.43 0 006.432 6.432 6.43 6.43 0 006.432-6.431c0-.54-.07-1.078-.195-1.583a5.09 5.09 0 002.682.768 5.093 5.093 0 005.09-5.09 5.081 5.081 0 00-5.078-5.079zm89.137 1.938c-.859 0-1.57.699-1.57 1.57 0 .86.699 1.57 1.57 1.57.86 0 1.571-.698 1.571-1.57 0-.871-.699-1.57-1.571-1.57zm0 2.82a1.252 1.252 0 01-1.249-1.25c0-.688.561-1.25 1.249-1.25.688 0 1.25.562 1.25 1.25s-.562 1.25-1.25 1.25z" fill="#fff"/><path d="M125.882 15.19a.285.285 0 00-.161-.091.508.508 0 00.241-.15.404.404 0 00.08-.263c0-.16-.046-.275-.149-.344-.103-.069-.264-.115-.47-.115h-.642v1.64h.424v-.62h.115c.069 0 .126.012.16.047a.54.54 0 01.126.172l.207.412h.447l-.229-.47a1.05 1.05 0 00-.149-.217zm-.321-.286c-.035.034-.104.046-.195.046h-.172v-.424h.183c.092 0 .149.011.195.046a.228.228 0 01.057.16c-.011.092-.023.138-.068.172z" fill="#fff"/></svg>