<svg width="115" height="25" viewBox="0 0 115 25" fill="none" xmlns="http://www.w3.org/2000/svg"><g clip-path="url(#clip0_2_37)" fill="#001935"><path d="M115 11.113V9.09h-2.511V5.946l-.085.026-2.359.722-.047.014v2.383h-3.723V7.763c0-.618.138-1.09.411-1.406.27-.312.657-.47 1.15-.47.355 0 .722.084 1.092.248l.092.042v-2.13l-.043-.016c-.345-.124-.814-.187-1.395-.187-.733 0-1.398.16-1.979.476a3.379 3.379 0 00-1.357 1.342c-.319.574-.481 1.236-.481 1.97V9.09h-1.749v2.023h1.749v8.52h2.51v-8.52h3.723v5.414c0 2.23 1.052 3.36 3.127 3.36.341 0 .699-.04 1.066-.118.373-.08.627-.16.776-.246l.033-.02v-2.04l-.102.067c-.136.09-.306.165-.505.22a1.92 1.92 0 01-.496.084c-.486 0-.845-.13-1.068-.39-.226-.26-.34-.716-.34-1.354v-4.977H115zm-18.59 6.721c-.912 0-1.63-.302-2.136-.897-.51-.598-.768-1.45-.768-2.534 0-1.118.258-1.993.768-2.602.507-.605 1.218-.912 2.115-.912.87 0 1.564.294 2.06.872.499.582.752 1.45.752 2.58 0 1.146-.238 2.025-.708 2.613-.466.584-1.167.88-2.083.88zm.111-8.998c-1.738 0-3.12.51-4.104 1.514-.983 1.005-1.482 2.396-1.482 4.134 0 1.65.487 2.978 1.447 3.945.96.968 2.268 1.458 3.885 1.458 1.685 0 3.038-.517 4.023-1.535.983-1.018 1.482-2.395 1.482-4.092 0-1.677-.468-3.014-1.391-3.975-.923-.961-2.222-1.449-3.86-1.449zm-9.634 0c-1.183 0-2.16.303-2.908.9-.752.6-1.133 1.386-1.133 2.338 0 .495.082.935.244 1.308.163.374.415.703.75.98.333.274.846.561 1.526.853.572.236.999.435 1.27.591.264.154.452.309.558.46.103.147.156.348.156.597 0 .708-.53 1.053-1.622 1.053-.405 0-.867-.085-1.373-.251a5.159 5.159 0 01-1.405-.713l-.104-.075v2.417l.038.018c.355.164.803.302 1.33.411a7.14 7.14 0 001.422.165c1.284 0 2.317-.304 3.07-.904.76-.605 1.144-1.41 1.144-2.395 0-.71-.207-1.32-.615-1.811-.405-.488-1.108-.936-2.09-1.331-.781-.314-1.282-.574-1.488-.774-.2-.193-.3-.466-.3-.812 0-.307.124-.553.38-.751.259-.2.618-.302 1.069-.302.418 0 .846.066 1.272.196.425.13.798.303 1.11.515l.103.07V9.296l-.04-.017a5.479 5.479 0 00-1.127-.315 6.886 6.886 0 00-1.237-.128zm-10.586 8.998c-.91 0-1.63-.302-2.136-.897-.51-.598-.767-1.45-.767-2.534 0-1.118.258-1.993.768-2.602.506-.605 1.218-.912 2.115-.912.87 0 1.563.294 2.06.872.499.582.752 1.45.752 2.58 0 1.146-.239 2.025-.708 2.613-.466.584-1.167.88-2.084.88zm.112-8.998c-1.739 0-3.12.51-4.104 1.514-.983 1.005-1.483 2.396-1.483 4.134 0 1.65.488 2.978 1.448 3.945.96.968 2.268 1.458 3.885 1.458 1.685 0 3.038-.517 4.022-1.535.984-1.018 1.483-2.395 1.483-4.092 0-1.677-.468-3.014-1.391-3.975-.924-.961-2.222-1.449-3.86-1.449zm-9.397 2.08V9.09h-2.48v10.543h2.48V14.24c0-.917.207-1.67.618-2.24.405-.562.945-.847 1.604-.847.223 0 .474.037.745.11.269.073.464.151.578.234l.105.075v-2.5l-.04-.017c-.231-.098-.558-.147-.972-.147-.623 0-1.18.2-1.658.594-.42.347-.722.822-.954 1.414h-.026zm-6.921-2.08c-1.138 0-2.153.244-3.016.725a4.884 4.884 0 00-1.989 2.046c-.453.873-.683 1.892-.683 3.03 0 .995.223 1.91.664 2.715a4.665 4.665 0 001.855 1.876c.79.438 1.702.66 2.712.66 1.178 0 2.184-.236 2.991-.7l.033-.02v-2.272l-.105.076a4.664 4.664 0 01-1.213.632c-.438.153-.838.23-1.188.23-.973 0-1.754-.304-2.321-.904-.569-.601-.857-1.445-.857-2.507 0-1.07.3-1.935.893-2.574.59-.636 1.373-.96 2.326-.96.815 0 1.61.277 2.36.822l.105.075V9.392l-.034-.019c-.283-.158-.668-.289-1.147-.388a6.853 6.853 0 00-1.386-.149zm-7.396.255h-2.48v10.542h2.48V9.09zm-1.215-4.492c-.408 0-.764.14-1.056.415a1.367 1.367 0 00-.443 1.034c0 .404.147.745.438 1.014a1.51 1.51 0 001.061.403 1.53 1.53 0 001.066-.403c.295-.27.444-.61.444-1.014 0-.396-.145-.74-.431-1.023a1.48 1.48 0 00-1.079-.426zm-6.187 3.714v11.32h2.53V4.923h-3.502l-4.453 10.926-4.32-10.927h-3.646v14.71h2.379V8.313h.081l4.563 11.32h1.795l4.491-11.32h.082zm-33.631 3.359H0V.006h11.666v11.666zm12.881 0H12.88V.006h11.666v11.666zM11.666 24.558H0V12.892h11.666v11.666zm12.881 0H12.88V12.892h11.666v11.666z"/></g><defs><clipPath id="clip0_2_37"><path fill="#fff" d="M0 0h115v24.564H0z"/></clipPath></defs></svg>