<svg width="83" height="30" viewBox="0 0 83 30" fill="none" xmlns="http://www.w3.org/2000/svg"><path fill-rule="evenodd" clip-rule="evenodd" d="M0 7h8.432l-.001 8.087H0V7z" fill="#F65314"/><path fill-rule="evenodd" clip-rule="evenodd" d="M9.293 7h8.432v8.087H9.293V7z" fill="#7FBB41"/><path fill-rule="evenodd" clip-rule="evenodd" d="M76.034 10.082c.778-.486 1.782-.53 2.658-.3.008.5.001 1 .004 1.5-.417-.177-.906-.291-1.344-.119-.348.132-.555.474-.609.816-.065.434-.022.873-.034 1.31.89.002 1.779 0 2.668 0 .007-.553-.007-1.107.008-1.661.605-.165 1.203-.35 1.804-.524.005.73-.007 1.46.007 2.19.6-.009 1.203-.002 1.804-.004v1.42c-.603-.024-1.208-.007-1.811-.009.002.817 0 1.634 0 2.45.01.453-.024.907.03 1.358.034.266.135.56.394.698.436.233.988.131 1.387-.125v1.434c-.521.217-1.103.283-1.667.245-.535-.038-1.089-.224-1.438-.633-.403-.46-.507-1.085-.515-1.669-.004-1.253 0-2.506-.002-3.76l-2.669.001v5.9h-1.824c0-1.966-.002-3.932.001-5.898-.422-.008-.846.002-1.269-.006.002-.467.004-.934 0-1.402.42-.009.841-.005 1.263-.002.031-.62-.067-1.26.126-1.864a2.394 2.394 0 011.028-1.346zm-39.042.102c.367-.054.765.067 1.009.343a.965.965 0 01.126 1.136c-.234.398-.757.583-1.213.487-.474-.081-.868-.504-.847-.974-.014-.495.418-.937.925-.993zm-13.976.216h2.652c.826 2.01 1.657 4.019 2.484 6.03.21.502.408 1.01.63 1.51 1.062-2.513 2.139-5.018 3.192-7.534.85-.013 1.701-.003 2.552-.005-.002 3.4 0 6.799 0 10.199-.614-.002-1.227.005-1.84-.004.006-2.508 0-5.017.003-7.526a4.146 4.146 0 00-.012-.338 1.313 1.313 0 00-.095.163c-1.054 2.568-2.128 5.128-3.176 7.699-.436.015-.873 0-1.31.007-1.088-2.567-2.161-5.141-3.243-7.711a1.874 1.874 0 00-.092-.155c-.022 1.099-.003 2.199-.01 3.298l.001 4.567h-1.736V10.4zm18.994 2.883c.88-.24 1.83-.23 2.709.008.181.048.357.116.52.207-.01.558 0 1.115-.006 1.673-.588-.431-1.333-.704-2.08-.614a2.165 2.165 0 00-1.515.807c-.457.57-.562 1.328-.484 2.025.06.546.294 1.091.737 1.453.46.392 1.104.531 1.706.488.595-.066 1.156-.308 1.636-.645.005.528-.002 1.056.005 1.584-.746.426-1.64.535-2.493.495-.873-.044-1.744-.361-2.376-.95-.686-.635-1.06-1.54-1.103-2.447-.045-.943.155-1.926.721-2.714.474-.671 1.215-1.147 2.023-1.37zm19.92-.111a5.014 5.014 0 012.523.252v1.607a3.312 3.312 0 00-1.914-.542c-.341.012-.716.151-.871.462-.124.307-.038.71.264.894.517.332 1.134.473 1.67.77.421.228.83.525 1.045.953.401.803.231 1.863-.475 2.461-.674.605-1.645.772-2.538.74-.634-.04-1.27-.16-1.854-.409.003-.563-.003-1.127.003-1.69a4.08 4.08 0 001.655.685c.417.065.87.068 1.258-.111.372-.177.439-.684.218-.994-.207-.239-.51-.37-.796-.5-.537-.231-1.102-.425-1.574-.772a1.805 1.805 0 01-.681-.993c-.146-.581-.1-1.236.252-1.744.403-.592 1.102-.947 1.814-1.07zm-12.614.23c.504-.29 1.143-.314 1.693-.137-.003.583 0 1.166-.002 1.75a2.005 2.005 0 00-1.232-.278c-.518.056-.928.438-1.14.875-.232.463-.275.986-.26 1.492V20.6h-1.798c-.002-2.435.002-4.871-.002-7.307.6-.007 1.2-.004 1.8-.001-.002.418 0 .836 0 1.255.194-.455.484-.897.941-1.145zm-13.084-.11c.605-.002 1.21-.008 1.815.003-.007 2.435 0 4.87-.003 7.305h-1.81c-.002-2.436 0-4.872-.002-7.308zm18.133-.135c.875-.107 1.798-.06 2.61.295a3.16 3.16 0 011.593 1.545c.338.718.42 1.526.363 2.305-.057.761-.306 1.524-.802 2.128-.508.643-1.273 1.078-2.093 1.24a5.465 5.465 0 01-2.136-.002c-.838-.172-1.614-.64-2.106-1.318-.577-.787-.741-1.787-.668-2.73.05-.8.309-1.607.842-2.234.583-.703 1.478-1.118 2.397-1.229zm.544 1.388c-.436.024-.877.165-1.2.454-.446.387-.65.964-.704 1.525-.061.617-.017 1.268.277 1.83.228.437.648.78 1.143.905.486.12 1.015.11 1.486-.063.402-.15.721-.468.896-.844.263-.558.289-1.185.256-1.787-.045-.55-.208-1.126-.63-1.523-.393-.383-.976-.531-1.524-.497zm13.99-1.39c.91-.108 1.876-.05 2.707.352a3.166 3.166 0 011.566 1.7c.22.556.297 1.155.284 1.746.001.883-.247 1.79-.825 2.49-.54.678-1.368 1.119-2.242 1.257-.854.133-1.757.098-2.569-.208a3.32 3.32 0 01-1.852-1.724c-.36-.795-.399-1.69-.287-2.54.118-.849.52-1.68 1.203-2.244.56-.472 1.281-.739 2.015-.83zm.492 1.392c-.504.027-1.004.235-1.33.612-.358.404-.512.937-.553 1.456-.043.536 0 1.091.216 1.592.18.421.522.787.962.966.408.168.868.198 1.304.136.407-.058.801-.244 1.066-.55.263-.305.401-.689.471-1.073a4.257 4.257 0 00-.015-1.562c-.092-.438-.294-.873-.66-1.164-.395-.334-.946-.448-1.46-.413z" fill="#787878"/><path fill-rule="evenodd" clip-rule="evenodd" d="M0 15.912l8.432.001V24H0v-8.088z" fill="#00A1F1"/><path fill-rule="evenodd" clip-rule="evenodd" d="M9.293 15.913h8.432V24H9.293v-8.087z" fill="#FB0"/></svg>