<svg width="115" height="25" viewBox="0 0 115 25" fill="none" xmlns="http://www.w3.org/2000/svg"><path d="M115 11.116V9.093h-2.511V5.948l-.085.026-2.359.722-.046.014v2.383h-3.724V7.766c0-.618.138-1.091.411-1.407.27-.312.657-.47 1.15-.47.355 0 .722.083 1.092.248l.092.042v-2.13l-.043-.017c-.345-.124-.814-.186-1.395-.186-.733 0-1.398.16-1.979.475a3.386 3.386 0 00-1.357 1.343c-.319.574-.481 1.236-.481 1.97v1.46h-1.749v2.022h1.749v8.523h2.51v-8.523h3.724v5.416c0 2.231 1.051 3.361 3.126 3.361.341 0 .699-.04 1.066-.118.373-.08.627-.16.776-.246l.033-.02v-2.041l-.102.067a1.744 1.744 0 01-.505.22c-.2.057-.366.085-.496.085-.486 0-.845-.131-1.068-.39-.226-.26-.34-.717-.34-1.355v-4.979H115zM96.41 17.84c-.912 0-1.63-.302-2.136-.898-.51-.598-.768-1.45-.768-2.535 0-1.118.258-1.993.768-2.602.507-.605 1.218-.912 2.115-.912.87 0 1.564.293 2.06.872.499.582.752 1.45.752 2.581 0 1.145-.238 2.025-.707 2.613-.467.584-1.168.881-2.084.881zm.111-9c-1.738 0-3.119.509-4.103 1.514-.984 1.005-1.483 2.396-1.483 4.134 0 1.651.487 2.98 1.447 3.947.96.968 2.268 1.458 3.885 1.458 1.685 0 3.038-.517 4.023-1.535.984-1.018 1.482-2.396 1.482-4.094 0-1.677-.468-3.015-1.391-3.976-.923-.961-2.222-1.449-3.86-1.449zm-9.634 0c-1.182 0-2.16.302-2.908.898-.752.6-1.133 1.388-1.133 2.34 0 .495.082.935.244 1.308.163.374.415.704.75.98.333.274.846.562 1.526.854.572.236.999.434 1.27.591.264.154.452.309.558.46.103.147.156.348.156.597 0 .709-.53 1.053-1.622 1.053-.405 0-.867-.084-1.372-.25a5.154 5.154 0 01-1.406-.714l-.104-.075V19.3l.038.018c.355.164.803.302 1.331.411a7.139 7.139 0 001.421.165c1.284 0 2.317-.304 3.071-.904.759-.605 1.143-1.41 1.143-2.396 0-.71-.207-1.32-.615-1.812-.405-.488-1.108-.935-2.09-1.33-.781-.315-1.282-.575-1.488-.775-.2-.193-.3-.467-.3-.813 0-.306.124-.552.38-.75.259-.2.618-.303 1.069-.303.418 0 .846.066 1.272.196.425.13.798.303 1.11.515l.103.07V9.3l-.04-.017a5.475 5.475 0 00-1.127-.315 6.883 6.883 0 00-1.237-.128zm-10.586 9c-.91 0-1.63-.302-2.136-.898-.509-.598-.767-1.45-.767-2.535 0-1.118.258-1.993.768-2.602.506-.605 1.218-.912 2.115-.912.87 0 1.563.293 2.06.872.499.582.752 1.45.752 2.581 0 1.145-.238 2.025-.708 2.613-.466.584-1.167.881-2.084.881zm.112-9c-1.739 0-3.12.509-4.104 1.514-.983 1.005-1.483 2.396-1.483 4.134 0 1.652.488 2.98 1.448 3.947.96.968 2.268 1.458 3.885 1.458 1.685 0 3.038-.517 4.022-1.535.984-1.018 1.483-2.396 1.483-4.094 0-1.677-.468-3.015-1.391-3.976-.924-.961-2.222-1.449-3.86-1.449zm-9.397 2.08V9.093h-2.48V19.64h2.48v-5.395c0-.917.207-1.67.618-2.24.405-.562.945-.847 1.604-.847.223 0 .474.037.745.11.27.072.464.15.578.234l.105.075v-2.5l-.04-.018c-.231-.098-.558-.148-.971-.148-.624 0-1.181.2-1.659.595-.42.347-.722.822-.954 1.415h-.026zm-6.921-2.08c-1.138 0-2.153.243-3.016.724a4.885 4.885 0 00-1.989 2.046c-.453.873-.683 1.893-.683 3.03 0 .997.223 1.912.664 2.718a4.667 4.667 0 001.855 1.876c.79.438 1.702.66 2.712.66 1.178 0 2.184-.236 2.991-.701l.033-.019v-2.272l-.105.076a4.66 4.66 0 01-1.213.632c-.438.153-.838.23-1.188.23-.973 0-1.754-.305-2.321-.905-.569-.601-.857-1.445-.857-2.508 0-1.069.3-1.935.893-2.574.59-.637 1.373-.96 2.326-.96.815 0 1.61.276 2.36.821l.105.076V9.395l-.034-.019c-.283-.158-.668-.289-1.147-.388a6.851 6.851 0 00-1.386-.149zm-7.396.253h-2.48V19.64h2.48V9.093zm-1.215-4.492c-.408 0-.764.139-1.056.414a1.368 1.368 0 00-.443 1.035c0 .404.147.745.438 1.014a1.51 1.51 0 001.061.404 1.53 1.53 0 001.066-.404 1.32 1.32 0 00.444-1.014c0-.396-.145-.74-.431-1.024a1.479 1.479 0 00-1.079-.425zm-6.187 3.714V19.64h2.53V4.924h-3.502l-4.452 10.93-4.321-10.93h-3.645v14.715h2.378V8.314h.082l4.562 11.325h1.795l4.491-11.324h.082z" fill="#706D6E"/><path d="M11.666 11.676H0V.006h11.666v11.67z" fill="#F1511B"/><path d="M24.547 11.676H12.88V.006h11.666v11.67z" fill="#80CC28"/><path d="M11.666 24.565H0v-11.67h11.666v11.67z" fill="#00ADEF"/><path d="M24.547 24.565H12.88v-11.67h11.666v11.67z" fill="#FBBC09"/></svg>