<svg width="50" height="22" viewBox="0 0 50 22" fill="none" xmlns="http://www.w3.org/2000/svg"><path fill-rule="evenodd" clip-rule="evenodd" d="M13.319 1.849c.996 0 3.75.131 1.975 5.35-1.866 5.473-5.997 4.35-5.997 4.35l3.043-9.7h.983-.004zm7.391 5.7C23.04 1.8 18.69.24 15.845.24L6.447.25c.783.532.652 1.25.499 1.682L1.473 19.438c-.219.69-1.04 1.42-1.473 1.535h7.606c-.42-.075-1.014-.674-.8-1.487l1.989-6.329s9.153 1.237 11.915-5.608" fill="#233E99"/><path fill-rule="evenodd" clip-rule="evenodd" d="M23.792 18.28c-.302.183-1.49.787-2.605.892-1.032.096-2.75-.306-2.75-2.37 0-1.77 1.924-3.055 2.96-3.514.432 1.718 1.38 3.646 2.39 4.992h.005zm2.994-11.15c-.262 1.665-2.422 3.352-2.946 3.58-.092-.936-.052-2.418.734-3.629.516-.804 1.202-1.154 1.762-.961.441.153.498.563.455 1.005l-.005.004zm.013 13.834h5.11c-1.64-.534-4.056-2.072-5.022-3.178.782-.852 1.744-1.919 1.919-4.1h-2.658s.516.293.516.918c0 .577-.232 1.368-.678 1.936-.778-1.15-1.613-2.465-1.897-4.397 1.036-.52 2.5-1.08 3.668-2.098 1.097-.97 1.35-1.875 1.372-2.474v-.075c0-.62-.245-1.202-.695-1.647-.765-.77-1.98-1.076-3.248-.84-1.027.193-1.897.739-2.33 1.141-1.551 1.443-1.748 3.838-1.748 4.918 0 .258.009.463.022.577-.087.03-.245.096-.245.096-1.128.41-4.144 1.22-5.223 3.698-.136.314-.333.988-.333 1.783 0 .678.15 1.438.582 2.133.76 1.185 2.054 1.937 4.113 1.897 2.247-.04 4.45-1.565 4.848-1.844.389.358 1.394 1.302 1.927 1.551" fill="#233E99"/><path fill-rule="evenodd" clip-rule="evenodd" d="M42.352 1.866c3.042-.73 5.547 1.653 5.783 1.814l.87-2.762c-1.211-.358-9.936-3.313-16.1 3.733-3.794 4.327-4.725 13.205.088 15.583 5.15 2.544 10.836-.394 11.247-.599l2.36-7.488c.25-.905.826-1.495 1.836-1.87h-8.174c1.198.502 1.11 1.398 1.01 1.765l-2.347 7.488c-.31.066-6.88 1.696-3.2-9.796.791-2.47 3.007-6.998 6.627-7.868" fill="#233E99"/></svg>