<svg width="49" height="22" viewBox="0 0 49 22" fill="none" xmlns="http://www.w3.org/2000/svg"><g clip-path="url(#clip0_2_59)"><path d="M19.412 21.989c-1.672-.093-2.92-.803-3.65-2.076-.489-.855-.638-1.98-.414-3.129.248-1.273 1.091-2.42 2.384-3.246.743-.474 1.38-.769 2.674-1.238.326-.119.607-.227.625-.242.026-.022.03-.097.017-.341-.037-.696.075-1.78.265-2.561.32-1.316.937-2.378 1.755-3.022a5.1 5.1 0 012.122-.96c.423-.082 1.132-.081 1.53.001 1.706.355 2.663 1.712 2.286 3.24-.08.323-.33.851-.542 1.143-.544.75-1.363 1.415-2.519 2.049-.145.08-.621.32-1.057.536a15.42 15.42 0 00-.823.423c-.024.025-.018.098.029.344.217 1.136.581 2.096 1.204 3.17.247.427.59.966.628.99.057.037.287-.348.437-.727.186-.47.292-1.093.24-1.402a1.19 1.19 0 00-.304-.605.805.805 0 01-.126-.147c0-.01.58-.017 1.29-.013l1.29.007-.007.169c-.01.23-.093.723-.18 1.073-.248.986-.713 1.828-1.517 2.748-.094.109-.172.215-.172.237 0 .022.133.173.296.336 1.016 1.016 2.816 2.188 4.281 2.787.142.059.259.118.258.132 0 .018-.846.029-2.472.033l-2.472.007-.14-.082c-.288-.167-.923-.697-1.534-1.28-.13-.122-.252-.223-.272-.223-.02 0-.164.086-.32.191-.793.54-1.741 1.025-2.543 1.301-.913.315-1.666.426-2.547.377zm2.08-2.21c.37-.068.825-.206 1.243-.378.42-.173.941-.438.96-.488.007-.02-.089-.186-.214-.37-.575-.845-1.189-2.034-1.602-3.1a18.421 18.421 0 01-.49-1.502c-.018-.077-.049-.146-.07-.154-.057-.023-.53.237-.937.516-1.45.992-2.145 2.203-1.99 3.468.068.562.24.972.554 1.318.58.64 1.487.886 2.547.69zm2.462-8.797c.537-.324 1.388-1.11 1.864-1.722.609-.783.933-1.514.933-2.107 0-.338-.047-.49-.198-.647-.152-.156-.322-.22-.582-.22-.773 0-1.609.946-1.973 2.234-.184.65-.228.999-.23 1.792 0 .606.009.74.053.74.01 0 .07-.031.133-.07zm12.78 10.992c-1.273-.133-2.113-.329-3.06-.716-1.287-.527-2.092-1.18-2.771-2.248a8.847 8.847 0 01-.662-1.364c-.589-1.654-.718-3.738-.367-5.91.355-2.2 1.165-4.32 2.282-5.977.725-1.074 1.803-2.206 2.916-3.06C36.91 1.288 39.026.42 41.376.116 42.09.023 42.488 0 43.331 0c1.273 0 2.243.1 3.524.364.818.167 2.12.53 2.145.597.013.034-.812 2.762-.846 2.799-.011.011-.138-.076-.282-.195-1.158-.953-2.359-1.533-3.573-1.726a6.116 6.116 0 00-1.497-.002c-1.702.272-3.28 1.394-4.682 3.33a16.63 16.63 0 00-1.346 2.26c-.529 1.073-.892 2.02-1.26 3.287-1.17 4.032-1.23 6.848-.176 8.373.434.628 1.068 1.029 1.873 1.181.462.088 1.584.035 1.695-.08.018-.018.566-1.786 1.217-3.929 1.07-3.519 1.186-3.916 1.198-4.115a1.396 1.396 0 00-.149-.738c-.106-.21-.386-.494-.617-.627a.806.806 0 01-.182-.123c0-.01 1.795-.02 3.99-.02 2.195 0 3.99.01 3.99.02s-.097.066-.216.121c-.621.294-1.072.733-1.34 1.308-.057.124-.56 1.734-1.314 4.213l-1.22 4.013-.354.174c-1.437.712-3.194 1.224-4.948 1.443-.322.04-1.957.074-2.227.046zM0 21.68c-.008-.013.045-.059.118-.102.434-.258.92-.792 1.127-1.238.06-.129 5.534-18.119 5.654-18.584.022-.081.04-.253.04-.381a1.208 1.208 0 00-.395-.947.745.745 0 01-.138-.16c0-.035 9.56-.032 9.997.004.95.078 1.9.338 2.626.72 1.241.65 1.984 1.638 2.212 2.941.064.363.076 1.169.024 1.56-.213 1.59-.911 3.278-1.863 4.5-1.54 1.977-4.061 3.242-7.154 3.59-.98.11-2.216.138-3.091.07a4.528 4.528 0 00-.472-.025c-.03.033-2.004 6.566-2.027 6.712-.07.45.155.956.542 1.22.076.053.132.107.125.12-.02.033-7.305.033-7.325 0zm10.85-9.704a4.696 4.696 0 001.965-.85c.297-.216.907-.845 1.16-1.196.63-.875 1.093-1.908 1.467-3.269.238-.867.34-1.527.34-2.208 0-.525-.047-.839-.175-1.19a1.942 1.942 0 00-1.068-1.14c-.421-.175-.781-.221-1.648-.211l-.653.008-1.518 4.988c-.835 2.744-1.514 5.002-1.508 5.018.006.016.11.044.233.06.122.018.24.036.26.042.095.024.941-.015 1.145-.052z" fill="#001935"/></g><defs><clipPath id="clip0_2_59"><path fill="#fff" d="M0 0h49v22H0z"/></clipPath></defs></svg>