<svg width="116" height="28" viewBox="0 0 116 28" fill="none" xmlns="http://www.w3.org/2000/svg"><path d="M0 2a2 2 0 012-2h112a2 2 0 012 2v24a2 2 0 01-2 2H2a2 2 0 01-2-2V2z" fill="#EDBD11"/><path d="M0 2a2 2 0 012-2h112a2 2 0 012 2v24a2 2 0 01-2 2H2a2 2 0 01-2-2V2z" fill="#fff" fill-opacity=".7"/><path d="M21 16l.75 3.75L18 19l-2 3-2-3-3.75.75L11 16l-3-2 3-2-.75-3.75L14 9l2-3 2 3 3.75-.75L21 12l2.992 2L21 16zm-3.46 1.89c.494.09.983.183 1.468.282.49.099.979.2 1.469.305-.105-.49-.206-.977-.305-1.461-.1-.49-.193-.982-.281-1.477.39-.255.773-.51 1.148-.766.38-.26.766-.518 1.156-.773l-1.148-.773c-.38-.256-.766-.51-1.156-.766.093-.495.19-.984.289-1.469l.297-1.469c-.49.105-.98.206-1.47.305-.484.1-.973.193-1.468.281-.255-.39-.51-.776-.766-1.156L16 7.805l-.773 1.148c-.256.38-.51.766-.766 1.156a67.54 67.54 0 01-1.477-.28c-.484-.1-.971-.201-1.46-.306.104.49.205.98.304 1.47.1.484.193.973.281 1.468-.39.255-.776.51-1.156.766L9.805 14l1.148.773c.38.256.766.51 1.156.766-.093.495-.19.987-.289 1.477l-.297 1.46c.49-.104.977-.205 1.461-.304.49-.1.982-.193 1.477-.281.255.39.51.776.766 1.156L16 20.195l.773-1.148c.256-.38.51-.766.766-1.156zm.608-6.242l.704.704L15 16.203l-1.852-1.851.704-.704L15 14.797l3.148-3.149zm16.286 3.647V19h-1.149V9.197h2.694c1.048 0 1.859.255 2.433.766.579.51.868 1.23.868 2.16 0 .93-.321 1.69-.964 2.283-.638.593-1.501.889-2.59.889h-1.292zm0-5.059v4.02h1.203c.793 0 1.396-.18 1.811-.54.42-.365.63-.877.63-1.538 0-1.295-.767-1.942-2.298-1.942h-1.346zM41.133 19V9.197h2.789c.848 0 1.52.208 2.017.622.496.415.745.955.745 1.62 0 .556-.15 1.04-.452 1.45-.3.41-.715.702-1.244.875v.027c.661.077 1.19.328 1.586.752.397.42.595.966.595 1.64 0 .84-.3 1.518-.902 2.038-.602.52-1.36.779-2.277.779h-2.857zm1.148-8.764v3.165h1.176c.629 0 1.123-.15 1.483-.45.36-.306.54-.735.54-1.286 0-.952-.626-1.429-1.88-1.429h-1.319zm0 4.198v3.527h1.559c.674 0 1.196-.16 1.565-.479.374-.319.56-.756.56-1.312 0-1.158-.788-1.736-2.364-1.736h-1.32zM50.307 19h-1.149V9.197h1.149V19zm13.097-.41c-.724.383-1.627.574-2.707.574-1.394 0-2.51-.449-3.35-1.347-.838-.897-1.257-2.075-1.257-3.534 0-1.567.471-2.834 1.415-3.8.943-.967 2.14-1.45 3.589-1.45.93 0 1.7.135 2.31.404v1.223a4.685 4.685 0 00-2.324-.588c-1.126 0-2.04.376-2.741 1.128-.697.752-1.046 1.757-1.046 3.015 0 1.194.326 2.146.977 2.857.657.707 1.516 1.06 2.578 1.06.984 0 1.836-.219 2.556-.656v1.114zm7.472-2.81h-4.942c.018.78.228 1.381.629 1.805.4.424.952.636 1.654.636.788 0 1.513-.26 2.174-.78v1.053c-.616.447-1.43.67-2.44.67-.99 0-1.767-.317-2.332-.95-.565-.638-.847-1.534-.847-2.687 0-1.089.307-1.975.922-2.659.62-.688 1.388-1.032 2.304-1.032.916 0 1.625.296 2.126.889.501.592.752 1.415.752 2.467v.588zm-1.148-.95c-.005-.647-.162-1.15-.472-1.51-.305-.36-.732-.54-1.278-.54-.53 0-.978.188-1.347.567-.37.378-.597.872-.684 1.483h3.78zm6.5-1.695c-.195-.15-.478-.226-.847-.226-.479 0-.88.226-1.203.677-.32.451-.479 1.066-.479 1.846V19h-1.12v-7h1.12v1.442h.028c.16-.492.403-.875.731-1.148a1.66 1.66 0 011.1-.417c.292 0 .516.032.67.096v1.162zm4.464 5.797c-.264.146-.613.218-1.045.218-1.226 0-1.84-.683-1.84-2.05v-4.143h-1.203V12h1.204v-1.709l1.12-.362V12h1.764v.957H78.93v3.944c0 .47.08.805.239 1.005.16.2.424.301.793.301.282 0 .526-.077.731-.232v.957zm2.072-8.71a.71.71 0 01-.725-.724c0-.21.07-.383.212-.52a.698.698 0 01.513-.211c.205 0 .378.07.52.212.145.136.218.31.218.519a.69.69 0 01-.219.513.706.706 0 01-.52.212zM83.31 19h-1.122v-7h1.122v7zm5.728-9.379a1.494 1.494 0 00-.745-.184c-.784 0-1.176.494-1.176 1.483V12h1.64v.957h-1.64V19h-1.114v-6.043h-1.196V12h1.196v-1.135c0-.733.212-1.312.636-1.736.424-.428.952-.643 1.586-.643.341 0 .612.041.813.123v1.012zm1.504.602a.71.71 0 01-.725-.725c0-.21.071-.383.212-.52a.698.698 0 01.513-.211c.205 0 .378.07.52.212.145.136.218.31.218.519a.69.69 0 01-.219.513.707.707 0 01-.519.212zM91.09 19h-1.121v-7h1.12v7zm7.895-3.22h-4.942c.018.78.228 1.381.629 1.805.4.424.952.636 1.654.636.789 0 1.513-.26 2.174-.78v1.053c-.615.447-1.429.67-2.44.67-.99 0-1.766-.317-2.332-.95-.565-.638-.847-1.534-.847-2.687 0-1.089.308-1.975.923-2.659.62-.688 1.387-1.032 2.303-1.032.916 0 1.625.296 2.126.889.502.592.752 1.415.752 2.467v.588zm-1.148-.95c-.005-.647-.162-1.15-.472-1.51-.305-.36-.731-.54-1.278-.54-.529 0-.978.188-1.347.567-.369.378-.597.872-.683 1.483h3.78zm8.825 4.17h-1.121v-1.19h-.027c-.52.903-1.322 1.354-2.407 1.354-.879 0-1.583-.312-2.112-.937-.524-.628-.786-1.483-.786-2.563 0-1.157.292-2.085.875-2.782.583-.697 1.36-1.046 2.331-1.046.962 0 1.661.378 2.099 1.135h.027V8.637h1.121V19zm-1.121-3.165v-1.032c0-.565-.187-1.044-.561-1.436-.373-.392-.847-.588-1.421-.588-.684 0-1.222.25-1.614.752-.392.502-.588 1.194-.588 2.078 0 .807.187 1.445.561 1.914.378.465.884.698 1.518.698.624 0 1.13-.226 1.517-.677.392-.451.588-1.02.588-1.709z" fill="#A96500"/></svg>