<svg width="20" height="20" viewBox="0 0 20 20" fill="none" xmlns="http://www.w3.org/2000/svg"><path d="M18.778 20l-7.306-7.306a6.12 6.12 0 01-1.944 1.125 6.873 6.873 0 01-2.361.403c-2 0-3.695-.694-5.084-2.083C.694 10.75 0 9.074 0 7.11c0-1.963.694-3.639 2.083-5.028C3.473.694 5.157 0 7.14 0c1.963 0 3.634.694 5.014 2.083 1.38 1.39 2.07 3.065 2.07 5.028 0 .796-.13 1.565-.39 2.306a7.05 7.05 0 01-1.166 2.083L20 18.778 18.778 20zm-11.64-7.444c1.5 0 2.779-.533 3.834-1.598 1.056-1.064 1.584-2.347 1.584-3.847s-.528-2.782-1.584-3.847C9.917 2.199 8.64 1.667 7.14 1.667c-1.519 0-2.81.532-3.875 1.597S1.667 5.61 1.667 7.11s.532 2.783 1.597 3.847c1.065 1.065 2.356 1.598 3.875 1.598z" fill="#001935"/></svg>